<?xml version="1.0" encoding="UTF-8" standalone="no"?>
<svg
   xmlns:dc="http://purl.org/dc/elements/1.1/"
   xmlns:cc="http://creativecommons.org/ns#"
   xmlns:rdf="http://www.w3.org/1999/02/22-rdf-syntax-ns#"
   xmlns:svg="http://www.w3.org/2000/svg"
   xmlns="http://www.w3.org/2000/svg"
   xmlns:sodipodi="http://sodipodi.sourceforge.net/DTD/sodipodi-0.dtd"
   xmlns:inkscape="http://www.inkscape.org/namespaces/inkscape"
   xml:space="preserve"
   version="1.1"
   style="image-rendering:optimizeQuality;shape-rendering:geometricPrecision;text-rendering:geometricPrecision"
   viewBox="0 0 124.99981 126.84528"
   x="0px"
   y="0px"
   fill-rule="evenodd"
   clip-rule="evenodd"
   id="svg14"
   sodipodi:docname="coronavirus.svg"
   width="124.99981"
   height="126.84528"
   inkscape:version="1.0.2 (1.0.2+r75+1)"><metadata
     id="metadata18"><rdf:RDF><cc:Work
         rdf:about=""><dc:format>image/svg+xml</dc:format><dc:type
           rdf:resource="http://purl.org/dc/dcmitype/StillImage" /><dc:title></dc:title></cc:Work></rdf:RDF></metadata><sodipodi:namedview
     pagecolor="#ffffff"
     bordercolor="#666666"
     borderopacity="1"
     objecttolerance="10"
     gridtolerance="10"
     guidetolerance="10"
     inkscape:pageopacity="0"
     inkscape:pageshadow="2"
     inkscape:window-width="1920"
     inkscape:window-height="980"
     id="namedview16"
     showgrid="false"
     fit-margin-top="0"
     fit-margin-left="0"
     fit-margin-right="0"
     fit-margin-bottom="0"
     inkscape:zoom="0.011013333"
     inkscape:cx="28190.5"
     inkscape:cy="36279.83"
     inkscape:window-x="0"
     inkscape:window-y="27"
     inkscape:window-maximized="1"
     inkscape:current-layer="svg14" /><defs
     id="defs4"><style
       type="text/css"
       id="style2">
   
    .fil0 {fill:black;fill-rule:nonzero}
   
  </style></defs><g
     id="g8"
     transform="matrix(0.00220356,0,0,0.00220356,-3.9873418,-2.6887178)"><path
       class="fil0"
       d="m 29945.21,16229.27 c 401.79,32.07 1091.57,676.24 1678.12,1406.61 609.64,759.13 1148.91,1652.24 1148.91,2052.89 0,473.58 -366.51,873.27 -959.08,1136.63 -102.74,45.66 -213.15,87.69 -330.13,125.65 -170.69,65.99 -268.34,133.61 -318.68,206.43 -41.51,60.04 -59.66,142.49 -67.04,242.01 l 166.89,1321.95 c 1040.22,192.12 1995.46,624.39 2805.89,1236.98 797.73,603 1456.31,1382.22 1918.49,2280.36 l 1331.37,-432.59 17.19,-4.69 c 99.7,-27.7 150.53,-56.78 171.32,-90.92 31.77,-52.18 46.12,-152.72 57.04,-287.09 -2.67,-146.93 2.93,-287.05 16.65,-418.44 67.29,-644.16 334.53,-1115.92 785.69,-1262.52 l 62.5,-20.31 h 23.71 c 443.54,-73.84 1461.89,141.63 2358.59,454.77 885.2,309.13 1699.2,739.49 1842.06,1132.3 1.66,4.54 3.89,11.12 6.64,19.64 l 0.45,-0.15 c 137.29,422.55 -317.64,1338.89 -894.13,2161.46 -555.43,792.53 -1245.44,1546.46 -1610.99,1679.42 -5.38,1.94 -12.75,4.46 -22.79,7.72 l 0.15,0.46 c -451.6,146.73 -944.98,-77.47 -1377.58,-558.55 -78.56,-87.36 -155.98,-184.08 -231.38,-289.15 -110.38,-133.11 -201.82,-201.43 -284.55,-226.18 -75.81,-22.68 -167.98,-11.27 -275.12,17.01 l -1280.85,416.18 c 8.67,75.2 15.91,149.3 21.68,222.27 14.13,178.76 21.34,356.72 21.34,533.49 0,960.56 -203.2,1874.51 -569.02,2701.18 -341.48,771.7 -824.7,1466.54 -1416.52,2051.56 l 979.95,1348.78 9.37,14.07 c 56.95,85.96 100.24,125.21 139.14,134.43 60.74,14.4 154.82,-0.53 276.37,-28.8 144.4,-50.49 284.68,-90.26 418.75,-118.85 632.7,-134.92 1163.66,-26.22 1442.85,358.06 2.92,4.02 3.46,5.91 19.29,29.99 212.64,323.05 341.43,1221.04 332.05,2076.89 -9.84,897.37 -178.48,1800.43 -568.96,2084.13 l -0.74,-1.02 c -9.71,7.04 -18.53,13.19 -26.43,18.38 -368.58,242.6 -1301.53,202.17 -2200.55,26.16 -958.52,-187.65 -1935.97,-541.2 -2179.13,-875.89 -278.69,-383.59 -217.57,-922.1 106.54,-1482.62 58.2,-100.66 125.45,-203.07 201.06,-306.14 94.52,-148.46 132,-258.08 129.95,-345.57 -1.77,-75.69 -39.31,-157.28 -96.98,-247.85 l -1019.29,-1305.41 c -378.19,163.89 -776.16,293.32 -1190.04,385.81 -472.58,105.62 -964.44,161.78 -1469.62,164.67 -548.43,3.14 -1077.85,-58.54 -1581.4,-177.74 -420.04,-99.42 -825.67,-239.5 -1212.68,-415.9 l -1151.58,1467.72 -1.56,1.56 c -64.35,80.98 -88.35,134.7 -85.05,175.17 4.98,61.09 50.35,148.26 117.64,259.21 90.42,119.35 169.77,238.07 237.05,354.43 324.1,560.52 385.21,1099.02 106.52,1482.61 -230.94,317.85 -1091.68,615.88 -1985.78,803.65 -968.25,203.33 -2032.59,293.21 -2376.85,142.4 -40.93,-17.91 -77.85,-38.99 -110.88,-62.98 -338.95,-246.26 -491.54,-1100.18 -502.76,-1979.42 -10.45,-819.05 85.77,-1701.41 255.96,-2089.91 29.31,-66.9 61.27,-124.79 95.85,-172.38 279.19,-384.27 810.16,-492.97 1442.86,-358.05 113.12,24.12 230.64,56.2 351.34,95.96 172.19,44.62 288.55,46.7 370.77,17.84 73.56,-25.82 142.19,-91.24 214.16,-180.18 l 1004.23,-1382.22 c -564.03,-583.1 -1022.18,-1270.74 -1344.43,-2031.71 -342.29,-808.33 -530.02,-1698.24 -526.93,-2632.02 0.31,-96.88 2.3,-187.24 5.9,-271.12 2.91,-67.8 6.08,-128.36 9.49,-181.79 l -1631.89,-707.82 c -93.96,-34.53 -151.18,-40.25 -188.1,-24.84 -56.09,23.41 -124.5,92.82 -208.59,190.26 -86.16,124.02 -175.2,237.12 -265.73,337.8 -432.59,481.07 -925.98,705.27 -1377.58,558.54 -389.38,-126.51 -1068.69,-958.88 -1579.23,-1813.62 -478.47,-801.06 -832.64,-1668.8 -707.86,-2079.09 v -3.12 l 3.03,-9.36 c 142.81,-439.51 989.82,-889.75 1878.47,-1188.66 852.57,-286.77 1789.16,-457.07 2157.86,-344.94 h 3.12 l 10.79,3.48 c 451.18,146.59 718.42,618.37 785.7,1262.58 11.91,114.05 17.7,234.7 17.27,360.64 10.38,177.84 44.35,289.34 97.48,358.96 43.34,56.81 114.54,98.98 204.96,136.3 l 1576.91,266.62 c 450.55,-841.89 1074.4,-1575.51 1823.94,-2152.23 757.47,-582.81 1643.65,-1006.58 2609.54,-1221.44 l 108.51,-1475.1 0.41,0.03 c 3.19,-96.97 -8.87,-151.61 -34.13,-181.01 -40.19,-46.79 -132.18,-91.77 -257.59,-144.02 -139.33,-42.75 -269.91,-91.17 -390.02,-144.56 -592.55,-263.36 -959.08,-663.05 -959.08,-1136.63 0,-16.4 0.92,-35.82 2.68,-58.02 31.52,-395.04 530.46,-1241.16 1100.37,-1971.91 593.35,-760.8 1306.18,-1431.78 1738.63,-1431.78 13.38,0 29.39,0.75 47.86,2.21 z m -11849.12,3583.47 356.34,-350.74 350.74,356.33 -356.34,350.74 z m 3389.72,-17045.67 483.98,-125.58 125.59,483.97 -483.98,125.58 z m 251.18,967.94 483.98,-125.58 125.59,483.97 -483.98,125.58 z m 251.18,967.94 483.98,-125.58 125.59,483.97 -483.98,125.58 z m 251.18,967.94 483.98,-125.58 125.59,483.97 -483.98,125.58 z m 251.18,967.94 483.98,-125.58 125.59,483.97 -483.98,125.58 z m 251.18,967.94 483.98,-125.58 125.59,483.97 -483.98,125.58 z m 251.18,967.94 483.98,-125.58 125.59,483.97 -483.98,125.58 z m 251.18,967.94 483.98,-125.58 125.59,483.97 -483.98,125.58 z m 251.18,967.94 483.98,-125.58 125.59,483.97 -483.98,125.58 z m 251.18,967.94 483.98,-125.58 125.59,483.97 -483.98,125.58 z m 251.18,967.94 483.98,-125.58 125.59,483.97 -483.98,125.58 z m 251.18,967.94 483.98,-125.58 125.59,483.97 -483.98,125.58 z m 251.18,967.94 483.98,-125.58 125.58,483.97 -483.98,125.58 z m 251.16,967.94 483.98,-125.58 125.58,483.97 -483.98,125.58 z m 11458.42,-13067.1 481.92,133.22 -133.23,481.93 -481.92,-133.22 z m -266.46,963.86 481.92,133.22 -133.23,481.93 -481.92,-133.22 z m -266.46,963.86 481.92,133.22 -133.23,481.93 -481.92,-133.22 z m -266.45,963.86 481.92,133.22 -133.22,481.93 -481.92,-133.22 z m -266.44,963.86 481.92,133.22 -133.22,481.93 -481.92,-133.22 z m -266.44,963.86 481.92,133.22 -133.22,481.93 -481.92,-133.22 z m -266.44,963.86 481.92,133.22 -133.22,481.93 -481.92,-133.22 z m -266.44,963.85 481.92,133.22 -133.22,481.92 -481.92,-133.22 z m -266.44,963.84 481.92,133.22 -133.22,481.92 -481.92,-133.22 z m -266.44,963.84 481.92,133.22 -133.22,481.92 -481.92,-133.22 z m -266.44,963.84 481.92,133.22 -133.22,481.92 -481.92,-133.22 z m -266.44,963.84 481.92,133.22 -133.22,481.92 -481.92,-133.22 z m -266.44,963.84 481.92,133.22 -133.22,481.92 -481.92,-133.22 z m -266.44,963.84 481.92,133.22 -133.22,481.92 -481.92,-133.22 z m 16662.57,-5789.72 350.74,356.34 -356.34,350.75 -350.74,-356.34 z m -712.68,701.5 350.74,356.34 -356.34,350.75 -350.74,-356.34 z m -712.68,701.5 350.74,356.34 -356.34,350.75 -350.74,-356.34 z m -712.68,701.5 350.74,356.34 -356.34,350.75 -350.74,-356.34 z m -712.68,701.5 350.74,356.34 -356.34,350.75 -350.74,-356.34 z m -712.68,701.5 350.74,356.34 -356.34,350.75 -350.74,-356.34 z m -712.68,701.5 350.74,356.34 -356.34,350.75 -350.74,-356.34 z m -712.67,701.5 350.74,356.34 -356.33,350.75 -350.74,-356.34 z m -712.66,701.5 350.74,356.34 -356.33,350.75 -350.74,-356.34 z m -712.66,701.49 350.74,356.34 -356.33,350.74 -350.74,-356.34 z m -712.66,701.48 350.74,356.34 -356.33,350.74 -350.74,-356.34 z m 14701.94,5696.69 125.58,483.98 -483.97,125.59 -125.58,-483.98 z m -967.94,251.18 125.58,483.98 -483.97,125.59 -125.58,-483.98 z m -967.94,251.18 125.58,483.98 -483.97,125.59 -125.58,-483.98 z m -967.94,251.18 125.58,483.98 -483.97,125.59 -125.58,-483.98 z m -967.94,251.18 125.58,483.98 -483.97,125.59 -125.58,-483.98 z m -967.94,251.18 125.58,483.98 -483.97,125.59 -125.58,-483.98 z m -967.94,251.18 125.58,483.98 -483.97,125.59 -125.58,-483.98 z m -967.94,251.18 125.58,483.98 -483.97,125.59 -125.58,-483.98 z m -967.94,251.18 125.58,483.98 -483.97,125.59 -125.58,-483.98 z m -967.94,251.18 125.58,483.98 -483.97,125.59 -125.58,-483.98 z m -967.94,251.18 125.58,483.98 -483.97,125.59 -125.58,-483.98 z m -967.94,251.18 125.58,483.98 -483.97,125.59 -125.58,-483.98 z m -967.94,251.17 125.58,483.98 -483.97,125.58 -125.58,-483.98 z m -967.94,251.16 125.58,483.98 -483.97,125.58 -125.58,-483.98 z M 58137.67,36681 l -134.7,481.52 -481.52,-134.71 134.7,-481.52 z m -963.04,-269.42 -134.7,481.52 -481.52,-134.71 134.7,-481.52 z m -963.04,-269.42 -134.7,481.52 -481.51,-134.71 134.7,-481.52 z m -963.02,-269.42 -134.7,481.52 -481.51,-134.71 134.7,-481.52 z m -963.02,-269.42 -134.7,481.52 -481.51,-134.71 134.7,-481.52 z m -963.02,-269.42 -134.7,481.52 -481.51,-134.71 134.7,-481.52 z m -963.02,-269.42 -134.7,481.52 -481.51,-134.71 134.7,-481.52 z m -963.02,-269.42 -134.7,481.52 -481.51,-134.71 134.7,-481.52 z m -963.02,-269.42 -134.7,481.52 -481.51,-134.71 134.7,-481.52 z m -963.02,-269.42 -134.7,481.52 -481.51,-134.7 134.7,-481.52 z m -963.02,-269.4 -134.7,481.52 -481.51,-134.7 134.7,-481.52 z m -963.02,-269.4 -134.7,481.52 -481.51,-134.7 134.7,-481.52 z m 2980.24,15734.59 -356.34,350.74 -350.75,-356.34 356.34,-350.74 z m -701.5,-712.68 -356.34,350.74 -350.75,-356.34 356.34,-350.74 z m -701.5,-712.68 -356.34,350.74 -350.75,-356.34 356.34,-350.74 z m -701.5,-712.68 -356.34,350.74 -350.75,-356.34 356.34,-350.74 z m -701.5,-712.68 -356.34,350.74 -350.75,-356.34 356.34,-350.74 z m -701.5,-712.68 -356.34,350.74 -350.75,-356.34 356.34,-350.74 z m -701.5,-712.68 -356.34,350.74 -350.75,-356.34 356.34,-350.74 z m -701.5,-712.68 -356.34,350.74 -350.75,-356.34 356.34,-350.74 z m -701.5,-712.68 -356.34,350.74 -350.75,-356.34 356.34,-350.74 z m -701.5,-712.67 -356.34,350.74 -350.75,-356.33 356.34,-350.74 z m -701.5,-712.66 -356.34,350.74 -350.75,-356.33 356.34,-350.74 z m -701.5,-712.66 -356.34,350.74 -350.74,-356.33 356.34,-350.74 z m -701.48,-712.66 -356.34,350.74 -350.74,-356.33 356.34,-350.74 z m -701.48,-712.66 -356.34,350.74 -350.74,-356.33 356.34,-350.74 z m -3389.73,17045.66 -483.98,125.58 -125.59,-483.97 483.98,-125.58 z m -251.18,-967.94 -483.98,125.58 -125.59,-483.97 483.98,-125.58 z m -251.18,-967.94 -483.98,125.58 -125.59,-483.97 483.98,-125.58 z m -251.18,-967.94 -483.98,125.58 -125.59,-483.97 483.98,-125.58 z m -251.18,-967.94 -483.98,125.58 -125.59,-483.97 483.98,-125.58 z m -251.18,-967.94 -483.98,125.58 -125.59,-483.97 483.98,-125.58 z m -251.18,-967.94 -483.98,125.58 -125.59,-483.97 483.98,-125.58 z m -251.18,-967.94 -483.98,125.58 -125.59,-483.97 483.98,-125.58 z m -251.18,-967.94 -483.98,125.58 -125.59,-483.97 483.98,-125.58 z m -251.18,-967.94 -483.98,125.58 -125.59,-483.97 483.98,-125.58 z m -251.18,-967.94 -483.98,125.58 -125.59,-483.97 483.98,-125.58 z m -251.18,-967.94 -483.98,125.58 -125.59,-483.97 483.98,-125.58 z m -251.17,-967.94 -483.98,125.58 -125.58,-483.97 483.98,-125.58 z m -251.16,-967.94 -483.98,125.58 -125.58,-483.97 483.98,-125.58 z m -11546.39,13385.32 95.6,-345.78 -481.92,-133.22 -95.6,345.78 z m 228.83,-827.71 -481.92,-133.22 133.23,-481.93 481.92,133.22 z m 266.46,-963.86 -481.92,-133.22 133.23,-481.93 481.92,133.22 z m 266.45,-963.86 -481.92,-133.22 133.22,-481.93 481.92,133.22 z m 266.44,-963.86 -481.92,-133.22 133.22,-481.93 481.92,133.22 z m 266.44,-963.86 -481.92,-133.22 133.22,-481.93 481.92,133.22 z m 266.44,-963.86 -481.92,-133.22 133.22,-481.93 481.92,133.22 z m 266.44,-963.86 -481.92,-133.22 133.22,-481.92 481.92,133.22 z m 266.44,-963.84 -481.92,-133.22 133.22,-481.92 481.92,133.22 z m 266.44,-963.84 -481.92,-133.22 133.22,-481.92 481.92,133.22 z m 266.44,-963.84 -481.92,-133.22 133.22,-481.92 481.92,133.22 z m 266.44,-963.84 -481.92,-133.22 133.22,-481.92 481.92,133.22 z m 266.44,-963.84 -481.92,-133.22 133.22,-481.92 481.92,133.22 z m 266.44,-963.84 -481.92,-133.22 133.22,-481.92 481.92,133.22 z m -16331.26,5132.9 -350.74,-356.34 356.34,-350.75 350.74,356.34 z m 712.68,-701.5 -350.74,-356.34 356.34,-350.75 350.74,356.34 z m 712.68,-701.5 -350.74,-356.34 356.34,-350.75 350.74,356.34 z m 712.68,-701.5 -350.74,-356.34 356.34,-350.75 350.74,356.34 z m 712.68,-701.5 -350.74,-356.34 356.34,-350.75 350.74,356.34 z m 712.68,-701.5 -350.74,-356.34 356.34,-350.75 350.74,356.34 z m 712.68,-701.5 -350.74,-356.34 356.34,-350.75 350.74,356.34 z m 712.68,-701.5 -350.74,-356.34 356.34,-350.75 350.74,356.34 z m 712.68,-701.5 -350.74,-356.34 356.33,-350.75 350.74,356.34 z m 712.66,-701.5 -350.74,-356.34 356.33,-350.75 350.74,356.34 z m 712.66,-701.5 -350.74,-356.34 356.33,-350.75 350.74,356.34 z m 712.66,-701.5 -350.74,-356.34 356.33,-350.74 350.74,356.34 z m 712.66,-701.48 -350.74,-356.34 356.33,-350.74 350.74,356.34 z m 712.66,-701.48 -350.74,-356.34 356.33,-350.74 350.74,356.34 z m -17330.17,-3315.9 -125.58,-483.98 483.98,-125.59 125.58,483.98 z m 967.95,-251.18 -125.58,-483.98 483.97,-125.59 125.58,483.98 z m 967.94,-251.18 -125.58,-483.98 483.97,-125.59 125.58,483.98 z m 967.94,-251.18 -125.58,-483.98 483.97,-125.59 125.58,483.98 z m 967.94,-251.18 -125.58,-483.98 483.97,-125.59 125.58,483.98 z m 967.94,-251.18 -125.58,-483.98 483.97,-125.59 125.58,483.98 z m 967.94,-251.18 -125.58,-483.98 483.97,-125.59 125.58,483.98 z m 967.94,-251.18 -125.58,-483.98 483.97,-125.59 125.58,483.98 z m 967.94,-251.18 -125.58,-483.98 483.97,-125.59 125.58,483.98 z m 967.94,-251.18 -125.58,-483.98 483.97,-125.59 125.58,483.98 z m 967.94,-251.18 -125.58,-483.98 483.97,-125.58 125.58,483.98 z m 967.94,-251.16 -125.58,-483.98 483.97,-125.58 125.58,483.98 z M 2130.39,23467.06 l 133.22,-481.92 481.93,133.23 -133.22,481.92 z m 963.86,266.46 133.22,-481.92 481.93,133.23 -133.22,481.92 z m 963.86,266.46 133.22,-481.92 481.93,133.23 -133.22,481.92 z m 963.86,266.45 133.22,-481.92 481.93,133.22 -133.22,481.92 z m 963.86,266.44 133.22,-481.92 481.93,133.22 -133.22,481.92 z m 963.86,266.44 133.22,-481.92 481.93,133.22 -133.22,481.92 z m 963.86,266.44 133.22,-481.92 481.93,133.22 -133.22,481.92 z m 963.85,266.44 133.22,-481.92 481.92,133.22 -133.22,481.92 z m 963.84,266.44 133.22,-481.92 481.92,133.22 -133.22,481.92 z m 963.84,266.44 133.22,-481.92 481.92,133.22 -133.22,481.92 z m 963.84,266.44 133.22,-481.92 481.92,133.22 -133.22,481.92 z m 963.84,266.44 133.22,-481.92 481.92,133.22 -133.22,481.92 z m 963.84,266.44 133.22,-481.92 481.92,133.22 -133.22,481.92 z m 963.84,266.44 133.22,-481.92 481.92,133.22 -133.22,481.92 z M 8976.63,10548 l 356.34,-350.74 350.75,356.34 -356.34,350.74 z m 701.5,712.68 356.34,-350.74 350.75,356.34 -356.34,350.74 z m 701.5,712.68 356.34,-350.74 350.75,356.34 -356.34,350.74 z m 701.5,712.68 356.34,-350.74 350.75,356.34 -356.34,350.74 z m 701.5,712.68 356.34,-350.74 350.75,356.34 -356.34,350.74 z m 701.5,712.68 356.34,-350.74 350.75,356.34 -356.34,350.74 z m 701.5,712.68 356.34,-350.74 350.75,356.34 -356.34,350.74 z m 701.5,712.68 356.34,-350.74 350.75,356.34 -356.34,350.74 z m 701.5,712.68 356.34,-350.74 350.75,356.33 -356.34,350.74 z m 701.5,712.66 356.34,-350.74 350.75,356.33 -356.34,350.74 z m 701.5,712.66 356.34,-350.74 350.75,356.33 -356.34,350.74 z m 701.5,712.66 356.34,-350.74 350.74,356.33 -356.34,350.74 z m 701.48,712.66 356.34,-350.74 350.74,356.33 -356.34,350.74 z m 2145.59,-4597.9 692.82,-400 399.99,692.82 -692.82,400 z m 9150.49,-13254.23 0.03,0.68 799.52,-27.78 -0.03,-0.68 z m 83.37,2399.24 799.52,-27.78 27.78,799.52 -799.52,27.78 z m 111.12,3198.08 799.52,-27.78 27.78,799.52 -799.52,27.78 z m 111.12,3198.07 799.52,-27.78 27.78,799.51 -799.52,27.78 z m 111.12,3198.06 799.52,-27.78 27.77,799.51 -799.52,27.78 z m 14061.63,-8669.96 692.82,400 -400,692.82 -692.82,-400 z m -1600.01,2771.28 692.82,400 -400,692.82 -692.82,-400 z m -1600,2771.28 692.82,400 -400,692.82 -692.82,-400 z m -1600,2771.28 692.82,400 -400,692.81 -692.82,-400 z m 13877.68,2758.44 400,692.82 -692.82,400 -400,-692.82 z m -2771.28,1600 400,692.82 -692.82,400 -400,-692.82 z m -2771.28,1600 400,692.82 -692.82,400 -400,-692.82 z m -2771.28,1599.99 400,692.82 -692.82,399.99 -400,-692.82 z m 14602.92,8246.74 v 800 h -800 v -800 z m -3200,0 v 800 h -800 v -800 z m -3200,0 v 800 h -800 v -800 z m -3200,0 v 800 h -800 v -800 z m -3199.99,0 v 800 h -800 v -800 z m 9047.33,14105.96 -400,692.82 -692.82,-400 400,-692.82 z m -2771.28,-1600 -400,692.82 -692.82,-400 400,-692.82 z m -2771.28,-1600 -400,692.82 -692.82,-400 400,-692.82 z m -2771.28,-1600 -400,692.82 -692.82,-400 400,-692.82 z m -1067.29,16061.55 -692.82,400 -400,-692.82 692.82,-400 z m -1600,-2771.28 -692.82,400 -400,-692.82 692.82,-400 z m -1600,-2771.28 -692.82,400 -400,-692.82 692.82,-400 z m -1600,-2771.28 -692.82,400 -400,-692.82 692.82,-400 z m -1600,-2771.28 -692.82,400 -399.99,-692.82 692.82,-400 z m -7692.87,15775.07 -15.56,-344.65 -799.18,36.06 15.56,344.65 z m -123.77,-2742.22 -799.18,36.06 -36.07,-799.19 799.18,-36.06 z m -144.28,-3196.75 -799.18,36.06 -36.07,-799.18 799.18,-36.06 z m -144.28,-3196.74 -799.18,36.06 -36.07,-799.18 799.18,-36.06 z m -144.28,-3196.74 -799.18,36.06 -36.06,-799.18 799.18,-36.06 z m -13886.33,8952.05 -692.82,-400 400,-692.82 692.82,400 z m 1600,-2771.28 -692.82,-400 400,-692.82 692.82,400 z m 1600,-2771.28 -692.82,-400 400,-692.82 692.82,400 z m 1600,-2771.28 -692.82,-400 400,-692.82 692.82,400 z m 1600,-2771.28 -692.82,-400 400,-692.82 692.82,400 z M 5942.04,45402 l -400,-692.82 692.83,-400 400,692.82 z m 2771.29,-1600 -400,-692.82 692.82,-400 400,692.82 z m 2771.28,-1600 -400,-692.82 692.82,-400 400,692.82 z m 2771.28,-1600 -400,-692.82 692.82,-400 400,692.82 z m 2771.28,-1599.99 -400,-692.82 692.82,-399.99 400,692.82 z M 1809.5,31309.55 v -800 h 800 v 800 z m 3200,0 v -800 h 800 v 800 z m 3200,0 v -800 h 800 v 800 z m 3200,0 v -800 h 800 v 800 z m -7309.18,-14881.24 571.12,330.65 400.82,-692.34 -571.12,-330.65 z m 2648.15,1533.14 400.82,-692.34 692.34,400.82 -400.82,692.34 z m 2769.37,1603.3 400.82,-692.34 692.34,400.82 -400.82,692.34 z m 2769.37,1603.3 400.82,-692.34 692.34,400.82 -400.82,692.34 z m 2769.36,1603.3 400.82,-692.34 692.34,400.82 -400.82,692.34 z m -316.37,-16583.01 692.82,-400 400,692.82 -692.82,400 z m 1600,2771.28 692.82,-400 400,692.82 -692.82,400 z m 1600,2771.28 692.82,-400 400,692.82 -692.82,400 z m 13061.25,6404.98 c -462.13,-575.44 -935.31,-1078.61 -1109.74,-1108.55 -168.64,11.55 -644.92,532.38 -1104.87,1122.13 -485.77,622.87 -907.08,1290.1 -931.17,1539.45 0.14,129.8 183.92,276.35 480.96,408.37 91.27,40.57 191.22,77.56 298.66,110.45 18.07,3.99 36.06,9.32 53.87,15.97 347.38,99.69 767.81,157.65 1224.8,157.65 485.31,0 929.39,-65.38 1288.52,-176.67 12.23,-4.53 24.53,-8.42 36.89,-11.68 89.8,-29.09 174.02,-61.1 251.91,-95.72 297.16,-132.07 480.96,-278.68 480.96,-408.51 0,-221.52 -455.67,-911.46 -970.79,-1552.89 z m -678.71,3031.18 c -133.57,9.41 -270.1,14.29 -408.78,14.29 -143.5,0 -284.67,-5.24 -422.67,-15.3 3.74,54.86 4.32,112.81 1.67,174.23 v 10.94 l -158.75,2158.13 c -15.53,220.05 -206.52,385.84 -426.57,370.31 -169.5,-11.96 -306.77,-128.04 -353.82,-281.3 -769.13,200.78 -1476.35,553.56 -2088.29,1024.4 -591.25,454.92 -1093.34,1019.16 -1476.42,1662.15 l 158.35,26.77 c 217.46,36.24 364.36,241.92 328.12,459.38 -36.24,217.46 -241.92,364.36 -459.38,328.12 l -2656.76,-449.19 -34.39,-13.18 c -71.71,-27.49 -140.05,-57.7 -204.8,-92.22 -32.37,129.72 -69.94,260.93 -112.77,392.77 -44.39,136.63 -92.98,269.36 -145.07,397.51 53.39,13.43 108.76,30.81 166.44,52.34 l 18.75,7.81 2300.07,997.63 c 201.93,87.15 294.97,321.51 207.82,523.44 -68.94,159.75 -230.03,251.32 -394.29,239.47 -1.35,47.77 -2.09,93.57 -2.23,137.35 -2.72,824.91 162.73,1610.18 464.43,2322.64 264.16,623.79 633.77,1192.73 1087.19,1684.36 l 24.35,-33.51 c 129.44,-178.63 379.19,-218.5 557.82,-89.06 178.63,129.44 218.5,379.19 89.06,557.82 l -1530.55,2106.6 c -48,59.34 -97.61,114.67 -150.31,165.35 108.86,68.08 217.55,141.15 325.3,219.01 l 0.15,-0.23 12.53,9.39 c 116.16,84.4 227.33,171.59 333.07,260.72 28.95,-46.15 62.22,-92.95 100.02,-140.65 l -0.2,-0.16 1753.09,-2234.36 c 136.34,-173.45 387.49,-203.52 560.94,-67.18 173.45,136.34 203.52,387.49 67.18,560.94 l -93.13,118.7 c 283.29,117.25 579.12,213.19 885.56,285.72 450.13,106.55 918.01,161.73 1397.02,158.98 446.71,-2.56 882.11,-52.32 1300.86,-145.91 291.96,-65.24 576.63,-152.5 852.16,-260.55 l -46.25,-59.23 c -135.48,-173.45 -104.7,-423.89 68.75,-559.37 173.45,-135.48 423.89,-104.7 559.37,68.75 l 1587.97,2033.73 20.32,28.12 c 41.64,64.04 78.97,128.34 110.93,194.03 102.73,-86.2 210.56,-170.54 323.05,-252.27 l 12.5,-9.37 0.18,0.21 c 111.77,-80.76 224.55,-156.35 337.49,-226.58 -32.12,-38.42 -63.65,-80.47 -94.69,-126.38 l -1386.08,-1907.71 c -129.44,-178.63 -89.57,-428.38 89.06,-557.82 146.17,-105.92 339.96,-98.44 476.48,5.64 487.33,-499.17 886.61,-1084.55 1172.7,-1731.07 321.63,-726.8 500.28,-1531.78 500.28,-2379.3 0,-161.33 -6.16,-318.38 -18.22,-470.99 l -2.61,-32.04 -164.31,53.39 c -209.69,68.17 -434.96,-46.56 -503.13,-256.25 -68.17,-209.69 46.56,-434.96 256.25,-503.13 l 2237.31,-726.96 20.31,-6.25 c 73.72,-19.79 146.29,-35.44 218.48,-45.57 -48.63,-120.53 -94.13,-245.1 -135.98,-373.08 l -0.41,0.15 -3.18,-11.08 c -44.36,-136.56 -83.05,-272.42 -116.2,-406.67 -46.37,18.67 -95.98,35.64 -149.1,50.97 l 0.05,0.17 -2887.93,938.35 c -209.69,68.17 -434.96,-46.56 -503.13,-256.25 -68.17,-209.69 46.56,-434.96 256.25,-503.13 l 787.43,-255.85 c -402.52,-740.84 -960.53,-1386.25 -1630.62,-1892.77 -648.7,-490.34 -1401.55,-849.31 -2218.96,-1037.45 l 18.74,148.41 c 27.61,218.32 -126.99,417.7 -345.31,445.31 -218.32,27.61 -417.7,-126.99 -445.31,-345.31 l -301.15,-2385.33 1.68,-32.26 c 3.96,-76.35 11.52,-150.32 24.22,-222.23 z m -2467.51,-1473.81 c -0.14,1.75 -0.04,0.61 0.1,-0.96 z m -9673.79,5840.96 -0.44,1.4 -0.76,-0.2 c -49.58,180.07 251.5,801.01 630.5,1435.53 428.95,718.13 931.72,1395.39 1141.73,1463.62 122.27,39.72 318.53,-90.65 536.94,-333.54 290.58,-323.14 566.45,-818.87 758.69,-1410.54 150.84,-464.24 225.4,-910.79 228.86,-1290.29 -0.1,-6.16 -0.05,-12.29 0.13,-18.39 0.31,-97.97 -4.19,-191.38 -13.38,-279.33 -33.63,-322.02 -115.08,-541.68 -236.42,-583.62 l -3.81,-1.2 0.25,-0.8 c -220.47,-63.79 -951.87,97.74 -1670.61,339.5 -683.86,230.03 -1312.89,505.91 -1371.68,677.86 z m 4113.72,12481.99 c 8.11,635.56 58.62,1212.95 161.61,1329.73 239.04,69.58 1065.19,-32.71 1869.5,-201.61 729.98,-153.3 1396.37,-346.59 1501.4,-491.15 75.98,-104.58 12.99,-331.51 -150.26,-613.85 -52.69,-91.13 -115.36,-184.59 -187.19,-279.11 -4.43,-5.48 -8.74,-11.12 -12.91,-16.88 -220.95,-286.73 -525.92,-582.49 -894.53,-851.96 l -0.1,0.16 -12.53,-9.39 c -503.89,-366.1 -1018.38,-605.14 -1442.82,-695.64 -319.5,-68.13 -554.89,-58.33 -630.36,45.55 -2.82,3.89 -6.7,11.49 -11.47,22.38 -128.15,292.53 -199.56,1039.73 -190.34,1761.77 z m 13421.08,1187.29 c 723.07,141.57 1420.12,209.72 1605.84,95.11 v -1.13 c 160.88,-116.89 233.37,-762.18 240.84,-1443.51 7.92,-722.15 -69.58,-1432.63 -200.41,-1632.53 l -0.25,0.18 c 2.11,3.56 3.91,6.8 -0.68,0.49 -75.47,-103.88 -310.85,-113.69 -630.35,-45.56 -424.42,90.5 -938.91,329.53 -1442.79,695.61 l -12.5,9.37 -0.14,-0.14 c -497.53,363.72 -879.18,775.34 -1094.65,1147.98 -163.26,282.34 -226.25,509.29 -150.28,613.86 124.65,171.57 891.16,404.79 1685.37,560.27 z m 1645.89,-2982.66 c -4.84,-7.36 -2.17,-3.1 0.13,0.78 l 0.25,-0.18 z m 3752.41,-9186.85 c 455.52,-649.96 839.52,-1298.64 787.9,-1458.22 -65.02,-144.22 -669.12,-407.07 -1352.3,-645.65 -826.54,-288.64 -1708.98,-501.76 -1935.41,-428.2 l -0.14,0.05 c -122.59,39.97 -204.83,260.35 -238.68,584.35 -10.52,100.65 -14.87,208.41 -12.94,322.01 1.43,16.42 1.85,33.1 1.23,49.95 11.74,359.89 84.98,774.75 223.78,1205.14 l 0.35,-0.13 3.18,11.08 c 192.24,591.68 468.12,1087.41 758.7,1410.55 218.42,242.9 414.67,373.27 536.94,333.55 h 0.69 c 219.71,-83.83 752.21,-707.45 1226.7,-1384.48 z m -1225.85,1384.48 c 1.71,-0.55 1.14,-0.37 0,0 z m -705.61,-10470.69 c 26.48,16.06 48.88,31.48 67.23,46.22 281.83,226.3 453.34,898.96 512.12,1557.91 56.96,638.6 12.87,1313.15 -137.41,1560.82 -15.76,25.95 -30.46,47.53 -43.98,64.34 -217.57,270.97 -620.39,357.45 -1095.7,278.24 -79.57,-13.26 -162.23,-31.18 -247.15,-53.58 -106.98,-22.28 -175.09,-23.45 -218.77,-9.3 -22.22,7.2 -44.84,23.95 -68.71,47.32 l -1697.79,2917.08 c -110.45,190.7 -354.61,255.76 -545.31,145.31 -190.7,-110.45 -255.76,-354.61 -145.31,-545.31 l 1721.83,-2958.38 c -20.23,-11.76 -40.43,-23.73 -60.59,-35.9 -56.8,-34.28 -112.27,-69.59 -166.26,-105.76 l -31.73,36.29 -2636.17,2067.61 c -173.45,135.48 -423.89,104.7 -559.37,-68.75 -135.48,-173.45 -104.7,-423.89 68.75,-559.37 l 2538.09,-1990.69 -23.25,-30.9 c -112.35,-124.4 -203.78,-249.45 -270.98,-370.41 -176.18,-317.08 -203.36,-626.9 -48.2,-884 14.54,-24.06 32.45,-49.43 53.84,-76.05 172.46,-214.78 926.63,-638.87 1608.37,-893.99 566.61,-212.02 1132.57,-317.08 1426.45,-138.75 z m -214.41,1672.89 c -41.07,-460.53 -115.87,-896.24 -208.57,-995.58 -75.6,-17.58 -377.38,78.12 -725.35,208.32 -556.87,208.39 -1133.94,504.85 -1256.44,637.73 0.62,8.73 30.12,26 61.19,81.93 39.34,70.82 95.63,146.76 167.05,225.28 6.19,6.28 12.21,12.79 18.04,19.55 70.99,75.83 155.82,153.84 252.87,231.76 104.53,83.94 224.64,167.67 358.58,248.51 268.56,162.1 539.72,278.97 781.52,345.32 8.25,1.93 16.37,4.12 24.38,6.54 60.31,15.82 118.71,28.46 174.66,37.78 176.91,29.48 300.94,36.43 335.99,14.83 57.21,-135.31 58.34,-588.21 16.08,-1061.97 z M 36459,20371.04 c 2.64,10.24 3.99,16.32 2.5,3.64 -0.02,-0.22 -0.88,-1.45 -2.5,-3.64 z M 21820.75,17486.89 c 301.71,-134.04 831.39,-14.4 1364.41,197.79 679.04,270.3 1433.91,708.12 1611.76,900.32 30.95,33.45 57.5,68.13 79.66,103.86 141.42,227.87 134.49,498.91 2.41,781.18 -57.07,121.98 -140.56,249.25 -247.05,376.72 l -6.73,9.2 c -31,41.01 -46.64,62.72 -50.96,70.26 l 2389.79,2073.8 c 166.54,144.11 184.73,395.96 40.62,562.5 -144.11,166.54 -395.96,184.73 -562.5,40.62 l -2432.99,-2111.29 -18.34,-22.11 c -8.86,-10.68 -17.51,-21.41 -25.94,-32.19 -50.09,34.32 -101.58,67.95 -154.38,100.72 h -1.56 c -21.72,13.48 -43.5,26.72 -65.33,39.74 l 1430.97,2879.73 c 97.51,197.61 16.36,436.86 -181.25,534.37 -197.61,97.51 -436.86,16.36 -534.37,-181.25 l -1418.43,-2854.48 c -2.44,-2.01 -4.24,-3.07 -5.48,-3.29 -33.48,-5.92 -93.92,3.73 -174.02,20.56 -98.57,29.77 -194.41,53.6 -286.19,71.22 -463.65,89.01 -864.3,21.03 -1092,-225.06 -45.89,-49.6 -84.39,-110.55 -115.72,-181.09 -122.1,-274.83 -180.85,-909.25 -152.76,-1509.01 29.79,-636.29 164.63,-1278.7 435.49,-1529.33 51.32,-47.48 108.19,-85.64 170.89,-113.49 z m 1070.65,938.41 c -326.2,-129.86 -613.12,-225.03 -721.14,-216.39 -87.04,127.75 -138.99,527.77 -159.01,955.18 -22.07,471.07 5.54,933.92 72.95,1124.7 47.66,15.57 171.17,4.24 340.65,-28.3 66.45,-12.76 136.02,-29.99 207.86,-51.49 9.73,-3.4 19.65,-6.43 29.77,-9.11 229.6,-71.88 480.79,-186.62 726.58,-339.04 l -0.43,-0.7 c 181.78,-112.83 336.82,-230.06 460.71,-344.7 50.1,-46.36 95.28,-92.05 135.2,-136.53 l 3.17,-4.22 c 11.78,-15.61 24.51,-30.08 38,-43.45 58.5,-70.61 102.81,-137.6 131.4,-198.71 13.02,-27.83 41.2,-13.65 43.35,-19.08 -144.51,-137.45 -739.59,-461.48 -1309.06,-688.16 z m -7535.23,14854.32 c -78.05,-343.36 201.61,-887.22 580.77,-1389.5 437.33,-579.37 1040.94,-1160.34 1326.32,-1259.47 361.46,-125.56 753.39,37.23 1094.85,401.89 52.78,56.36 104.94,118.17 156.02,184.86 l 6.37,7.34 c 65.77,77.72 112.72,114.94 148.76,124.93 25.45,7.06 62.98,1.73 109.32,-10.56 l 3321.74,-1375.34 c 203.65,-83.7 436.61,13.54 520.31,217.19 83.7,203.65 -13.54,436.61 -217.19,520.31 l -3360.38,1391.34 -42.19,12.11 c 17.7,45.71 34.76,92.11 51.1,139.16 l -0.46,0.16 0.48,1.45 c 18.85,54.28 36.45,108.43 52.8,162.33 l 33.46,-10.04 3791.07,-405.72 c 219.19,-23.3 415.77,135.5 439.07,354.69 23.3,219.19 -135.5,415.77 -354.69,439.07 l -3729.24,399.11 c -9.02,18.75 -14.08,65.66 -18.25,130.49 4.48,108.7 2.57,212.37 -5.6,309.55 -41.85,497.63 -248.84,868.34 -611,994.14 -21.77,7.57 -44.62,14.06 -68.44,19.47 -293.09,66.62 -1030,-82.04 -1697.98,-316.01 -705.41,-247.07 -1382.11,-614.55 -1508.65,-978.8 v -1.56 c -7.97,-23.04 -14.12,-43.94 -18.37,-62.59 z m 1218.27,-908.24 c -245.63,325.41 -441.61,623.51 -441.34,721.32 64.15,109.03 518.21,303.59 1012.59,476.75 535.3,187.5 1073.49,319.93 1247.31,293.44 32.02,-22.51 56.6,-135.48 70.73,-303.54 23.86,-283.84 -27.14,-650.83 -158.43,-1035.8 l -0.18,0.07 -6.27,-17.24 c -104.62,-301.15 -239.63,-562.53 -384.48,-762.2 l -3.25,-3.82 c -11.61,-13.71 -22.11,-27.99 -31.55,-42.72 -33.88,-43.93 -68.21,-84.49 -102.72,-121.34 -122.12,-130.41 -215.47,-204.9 -251.09,-192.53 -156.38,54.32 -591.52,510.95 -951.32,987.61 z m 12918.21,11399.91 c -364.09,-9.99 -827.38,-399.87 -1223.77,-871.96 -473.16,-563.53 -895.29,-1299.02 -901.8,-1588.67 l -0.02,-2.78 c -6.62,-365.72 272.14,-668.03 729.16,-861.91 71.09,-30.16 147.55,-58.17 228.64,-83.78 l 9.03,-3.44 c 95.08,-34.88 143.94,-62.87 162.1,-87.5 6.68,-9.05 10.32,-27.63 12.28,-52.82 l -342.48,-3277.22 c -22.43,-219.19 137.06,-415.08 356.25,-437.51 219.19,-22.43 415.08,137.06 437.51,356.25 l 348.08,3330.67 -0.18,5 c 42.28,-2.1 84.91,-3.66 127.86,-4.63 l 20.75,-0.39 c 57.86,-1.05 115.21,-1.03 171.94,0.03 l 0.16,-6.35 820.42,-3320 c 52.63,-214.01 268.8,-344.82 482.81,-292.19 214.01,52.63 344.82,268.8 292.19,482.81 l -793.36,3210.51 c 22.43,10.59 57.01,23.64 99.98,38.89 102.93,26 199.33,55.95 287.9,89.37 468.15,176.64 761.87,470.41 770.14,839.39 0.2,9.44 0.19,18.44 -0.03,26.95 v 1.56 c -7.37,268.4 -326.48,892.34 -717.51,1427.76 -411.93,564.02 -937.4,1072.8 -1347.1,1081.99 -10.44,0.22 -20.27,0.21 -29.39,-0.03 z m -611.27,-1384.46 c 266.99,317.97 524.57,579.59 630.07,587.38 126.02,-9.12 429.2,-361.63 715.49,-753.64 303.74,-415.91 551.03,-838.48 563.87,-973.1 -7.94,-10.38 -103.51,-50.15 -253.97,-106.92 -64.82,-24.46 -135.91,-46.44 -212.34,-65.63 l -11.78,-2.94 c -238.62,-58.58 -528.31,-90.09 -842.6,-84.52 l -19.19,0.41 c -314.85,7.07 -602.54,50.41 -836.63,118.87 l -5.41,2.01 c -15.69,5.75 -31.51,10.45 -47.38,14.14 -55.46,17.75 -107.56,36.95 -155.91,57.46 -148.45,62.98 -240.42,106.12 -241.63,114.84 3.23,133.79 339,640.97 717.41,1091.64 z m 1525.79,-2137.71 c -4.6,-2.42 -7.38,-4.12 -3.49,-0.08 z m 14241.33,-5761.4 c -3.75,18.81 -8.43,37.41 -13.95,55.69 -123.76,408.8 -861.23,746.73 -1632.26,955.67 -702.2,190.3 -1471.31,295.88 -1761.59,242.14 h -14.19 l -56.77,-17.19 c -367.06,-111.13 -588.99,-473.83 -650.99,-970.35 -10.47,-83.83 -16.49,-172.59 -17.95,-265.32 -7.86,-91.9 -23.62,-145.37 -46.03,-173.54 -16.22,-20.4 -47.82,-37.65 -89.73,-54.18 l -3529.82,-794.35 c -214.87,-48.32 -349.88,-261.69 -301.56,-476.56 48.32,-214.87 261.69,-349.88 476.56,-301.56 l 3574.44,804.39 45.13,16.39 c 12.57,-47.45 26.08,-95.09 40.54,-142.85 l 0.06,-0.11 c 16.82,-55.62 34.66,-110.41 53.42,-164.27 l -42,-14.72 -3170.71,-1968.65 c -187.25,-116.49 -244.61,-362.75 -128.12,-550 116.49,-187.25 362.75,-244.61 550,-128.12 l 3104.33,1927.43 c 18.81,-10.07 50.6,-45.04 92.05,-94.99 60.21,-89.95 122.69,-172.42 186.49,-246.32 306.46,-354.94 664.4,-534.03 1009.8,-463.15 h 11.04 l 56.78,17.19 c 287.97,87.18 1019.83,726.16 1552.77,1358.21 442.03,524.22 774.7,1086.5 702.26,1449.12 z m -1852.47,239.48 c 527.74,-143.01 1013.31,-306.09 1068.98,-406.07 -0.1,-102.13 -234.64,-418.83 -528.15,-766.91 -451.53,-535.5 -1004.69,-1056.63 -1174.55,-1108.18 l -0.11,-0.03 c -36.27,-10.98 -126.57,67.11 -243.23,202.22 -186.15,215.61 -361.87,549.01 -482.98,949.01 l -0.06,0.11 c -120.67,398.71 -159.02,774.39 -123.42,1059.45 21.24,170.16 51.06,282.69 84.74,300.06 191.18,32.39 799.96,-67.38 1398.78,-229.66 z m -1395.02,232.77 c 6.18,1.87 3.83,1.1 -0.39,-0.31 l -0.05,0.18 z M 30599.9,25170.84 c 628.58,0 1199.15,250.84 1613.48,656.34 415.67,406.84 672.78,968.92 672.78,1589.8 0,620.86 -257.11,1182.96 -672.78,1589.79 -414.33,405.5 -984.9,656.34 -1613.48,656.34 -628.58,0 -1199.15,-250.82 -1613.48,-656.34 -415.67,-406.83 -672.78,-968.91 -672.78,-1589.79 0,-620.88 257.11,-1182.97 672.78,-1589.8 414.33,-405.52 984.9,-656.34 1613.48,-656.34 z m 1054.1,1225.1 c -268.36,-262.64 -640.93,-425.1 -1054.1,-425.1 -413.17,0 -785.75,162.46 -1054.1,425.1 -267,261.32 -432.16,622.33 -432.16,1021.04 0,398.71 165.16,759.71 432.16,1021.03 268.35,262.64 640.93,425.1 1054.1,425.1 413.17,0 785.74,-162.46 1054.1,-425.1 267,-261.32 432.16,-622.33 432.16,-1021.03 0,-398.71 -165.16,-759.71 -432.16,-1021.04 z m -3850.65,3076.65 c 517.55,0 987.61,206.78 1329.17,541.08 342.92,335.61 555.02,799.32 555.02,1311.53 0,512.22 -212.1,975.92 -555.02,1311.52 -341.56,334.3 -811.62,541.08 -1329.17,541.08 -517.55,0 -987.61,-206.78 -1329.17,-541.07 -342.9,-335.61 -555.01,-799.32 -555.01,-1311.53 0,-512.2 212.1,-975.91 555.01,-1311.53 341.57,-334.3 811.62,-541.08 1329.17,-541.08 z m 769.79,1109.84 c -195.58,-191.43 -467.65,-309.84 -769.79,-309.84 -302.14,0 -574.2,118.41 -769.79,309.84 -194.24,190.11 -314.39,452.73 -314.39,742.77 0,290.04 120.15,552.66 314.39,742.77 195.59,191.42 467.65,309.83 769.79,309.83 302.14,0 574.21,-118.41 769.79,-309.84 194.25,-190.1 314.4,-452.73 314.4,-742.76 0,-290.04 -120.16,-552.66 -314.4,-742.77 z m 4041.65,-880.8 c 438.22,0 836.46,175.31 1126.03,458.73 290.92,284.73 470.88,678.16 470.88,1112.73 0,434.58 -179.96,827.99 -470.87,1112.72 -289.58,283.42 -687.82,458.73 -1126.04,458.73 -438.22,0 -836.47,-175.31 -1126.05,-458.73 -290.92,-284.73 -470.88,-678.15 -470.88,-1112.72 0,-434.57 179.96,-827.98 470.88,-1112.73 289.59,-283.42 687.83,-458.73 1126.05,-458.73 z m 566.65,1027.49 c -143.6,-140.55 -343.84,-227.49 -566.65,-227.49 -222.82,0 -423.06,86.94 -566.67,227.49 -142.25,139.23 -230.26,331.57 -230.26,543.97 0,212.4 88,404.73 230.26,543.96 143.6,140.54 343.85,227.49 566.67,227.49 222.81,0 423.06,-86.95 566.66,-227.49 142.25,-139.23 230.25,-331.56 230.25,-543.96 0,-212.4 -88,-404.74 -230.26,-543.97 z"
       id="path6" /></g><text
     x="-1809.5"
     y="58794.828"
     fill="#000000"
     font-size="5px"
     font-weight="bold"
     font-family="'Helvetica Neue', Helvetica, Arial-Unicode, Arial, Sans-serif"
     id="text10">Created by Olena Panasovska</text><text
     x="-1809.5"
     y="58799.828"
     fill="#000000"
     font-size="5px"
     font-weight="bold"
     font-family="'Helvetica Neue', Helvetica, Arial-Unicode, Arial, Sans-serif"
     id="text12">from the Noun Project</text></svg>
