<?xml version="1.0" encoding="UTF-8" standalone="no"?>
<svg
   xmlns:dc="http://purl.org/dc/elements/1.1/"
   xmlns:cc="http://creativecommons.org/ns#"
   xmlns:rdf="http://www.w3.org/1999/02/22-rdf-syntax-ns#"
   xmlns:svg="http://www.w3.org/2000/svg"
   xmlns="http://www.w3.org/2000/svg"
   xmlns:sodipodi="http://sodipodi.sourceforge.net/DTD/sodipodi-0.dtd"
   xmlns:inkscape="http://www.inkscape.org/namespaces/inkscape"
   xml:space="preserve"
   version="1.1"
   style="image-rendering:optimizeQuality;shape-rendering:geometricPrecision;text-rendering:geometricPrecision"
   viewBox="0 0 125 125"
   x="0px"
   y="0px"
   fill-rule="evenodd"
   clip-rule="evenodd"
   id="svg14"
   sodipodi:docname="eye.svg"
   width="125"
   height="125"
   inkscape:version="1.0.2 (1.0.2+r75+1)"><metadata
     id="metadata18"><rdf:RDF><cc:Work
         rdf:about=""><dc:format>image/svg+xml</dc:format><dc:type
           rdf:resource="http://purl.org/dc/dcmitype/StillImage" /><dc:title></dc:title></cc:Work></rdf:RDF></metadata><sodipodi:namedview
     pagecolor="#ffffff"
     bordercolor="#666666"
     borderopacity="1"
     objecttolerance="10"
     gridtolerance="10"
     guidetolerance="10"
     inkscape:pageopacity="0"
     inkscape:pageshadow="2"
     inkscape:window-width="1920"
     inkscape:window-height="980"
     id="namedview16"
     showgrid="false"
     fit-margin-top="0"
     fit-margin-left="0"
     fit-margin-right="0"
     fit-margin-bottom="0"
     inkscape:zoom="0.011013333"
     inkscape:cx="29602.114"
     inkscape:cy="37100.114"
     inkscape:window-x="0"
     inkscape:window-y="27"
     inkscape:window-maximized="1"
     inkscape:current-layer="svg14"
     inkscape:document-rotation="0" /><defs
     id="defs4"><style
       type="text/css"
       id="style2">
   
    .fil0 {fill:black;fill-rule:nonzero}
   
  </style></defs><g
     id="g8"
     transform="matrix(0.0021113,0,0,0.0021113,-0.84005682,-0.84427942)"><path
       class="fil0"
       d="m 14954,30476 -14,-4 c -80,-24 -146,-72 -193,-134 -6,-8 -12,-17 -18,-25 -8,-13 -16,-26 -22,-40 -33,-68 -47,-145 -35,-224 3,-19 7,-38 13,-57 24,-80 72,-146 134,-193 8,-6 17,-12 25,-18 13,-8 26,-16 40,-22 31,-15 65,-27 100,-33 2609,-543 4866,-1829 7123,-3115 1130,-643 2259,-1287 3449,-1847 499,-249 1005,-456 1521,-604 598,-171 1460,-259 2319,-262 857,-3 1721,78 2324,245 532,147 1669,657 2183,912 1196,562 1715,910 2850,1556 2257,1286 4514,2572 7123,3115 35,6 69,18 100,33 14,7 27,14 40,22 9,6 17,12 25,18 62,47 110,114 134,193 6,19 10,38 13,57 11,79 -2,156 -35,224 -7,14 -14,27 -22,40 -6,9 -12,17 -18,25 -47,62 -114,110 -193,134 -7,2 -14,4 -21,6 -391,102 -776,152 -1157,157 -1720,252 -3217,1173 -4797,2146 -1986,1223 -4098,2523 -6987,2784 -504,131 -1033,201 -1578,201 -810,0 -1585,-154 -2295,-435 -2160,-491 -3875,-1546 -5505,-2550 -1625,-1000 -3162,-1946 -4944,-2166 -548,49 -1104,11 -1672,-138 l -7,-2 z m 10479,6695 c -6,14 -13,27 -21,41 l -4986,7774 c -72,112 -220,144 -332,72 -112,-72 -144,-220 -72,-332 l 4963,-7739 c -185,-80 -366,-162 -545,-248 l -6236,6194 c -94,94 -246,93 -340,-1 -94,-94 -93,-246 1,-340 l 6121,-6079 c -231,-119 -459,-243 -682,-368 l -6826,4657 c -110,75 -259,47 -334,-63 -75,-110 -47,-259 63,-334 l 6634,-4527 c -345,-202 -683,-409 -1017,-614 l -7091,3582 c -118,60 -263,12 -323,-106 -60,-118 -12,-263 106,-323 l 6827,-3449 c -1541,-946 -3023,-1804 -4742,-2002 -132,-15 -227,-134 -212,-266 15,-132 134,-227 266,-212 1938,224 3547,1214 5249,2262 1840,1133 3793,2335 6374,2656 31,-3 63,1 94,11 h 1 c 442,51 903,76 1384,71 h 4 c 2232,26 4013,-605 5598,-1427 11,-12 24,-22 37,-32 30,-21 63,-33 97,-39 740,-391 1437,-820 2120,-1240 1702,-1048 3311,-2039 5249,-2262 132,-15 251,80 266,212 15,132 -80,251 -212,266 -153,18 -303,40 -452,68 l 4583,1507 c 126,41 195,177 154,303 -41,126 -177,195 -303,154 l -5308,-1745 c -1124,354 -2170,954 -3240,1607 l 6593,4649 c 109,76 135,226 58,335 -76,109 -226,135 -335,58 l -6763,-4769 -40,25 c -313,193 -630,388 -952,580 l 6017,6058 c 94,94 93,246 -1,340 -94,94 -246,93 -340,-1 l -6104,-6146 c -197,114 -396,225 -598,335 l 4912,7199 c 75,110 47,259 -63,334 -110,75 -259,47 -334,-63 l -4943,-7244 c -268,137 -541,268 -822,391 l 4206,8327 c 60,118 12,263 -106,323 -118,60 -263,12 -323,-106 l -4221,-8356 c -628,251 -1291,461 -2003,608 l 1653,9557 c 22,131 -66,255 -197,278 -131,22 -255,-66 -278,-197 l -1652,-9551 c -287,46 -581,83 -884,107 l -33,9555 c 0,132 -107,240 -240,240 -132,0 -240,-107 -240,-240 l 33,-9526 c -176,7 -355,10 -536,9 l -1743,9232 c -24,130 -150,216 -280,192 -130,-24 -216,-150 -192,-280 l 1727,-9147 c -297,-7 -585,-26 -866,-54 l -3005,9139 c -41,126 -177,195 -303,154 -126,-41 -195,-177 -154,-303 l 2976,-9050 c -921,-134 -1761,-375 -2545,-680 z m 9720,-15939 4356,-6177 c 76,-109 226,-135 335,-58 109,76 135,226 58,335 l -4258,6039 c 457,135 912,286 1365,454 l 4787,-4755 c 94,-94 246,-93 340,1 94,94 93,246 -1,340 l -4634,4603 c 390,155 778,322 1164,502 l 4858,-3315 c 110,-75 259,-47 334,63 75,110 47,259 -63,334 l -4629,3158 c 477,236 951,491 1421,765 l 4681,-2365 c 118,-60 263,-12 323,106 60,118 12,263 -106,323 l -4410,2228 c 1276,784 2524,1708 3732,2774 l 2487,-430 c 131,-22 255,66 278,197 22,131 -66,255 -197,278 l -2113,365 c 174,159 347,322 518,487 153,147 158,390 11,543 -147,153 -390,158 -543,11 -4657,-4481 -9960,-6721 -15257,-6721 -5297,0 -10600,2240 -15257,6721 -76,73 -175,109 -273,107 v 1 c -24,130 -150,216 -280,192 l -1377,-260 c -130,-24 -216,-150 -192,-280 24,-130 150,-216 280,-192 l 1198,226 c -23,-123 14,-255 111,-348 429,-413 864,-807 1303,-1183 l -2551,-839 c -126,-41 -195,-177 -154,-303 41,-126 177,-195 303,-154 l 2836,932 c 1116,-918 2263,-1718 3433,-2401 l -4314,-3042 c -109,-76 -135,-226 -58,-335 76,-109 226,-135 335,-58 l 4499,3172 c 499,-277 1002,-533 1508,-768 l -4270,-4299 c -94,-94 -93,-246 1,-340 94,-94 246,-93 340,1 l 4397,4427 c 354,-154 709,-298 1065,-432 l -3672,-5382 c -75,-110 -47,-259 63,-334 110,-75 259,-47 334,63 l 3742,5484 c 381,-133 763,-255 1147,-365 l -3330,-6593 c -60,-118 -12,-263 106,-323 118,-60 263,-12 323,106 l 3374,6680 c 855,-223 1716,-390 2579,-498 l -1382,-7991 c -22,-131 66,-255 197,-278 131,-22 255,66 278,197 l 1387,8018 c 384,-39 769,-66 1154,-83 l 28,-8046 c 0,-132 107,-240 240,-240 132,0 240,107 240,240 l -27,8032 c 113,-2 226,-3 339,-3 157,0 315,2 472,6 l 1463,-7749 c 24,-130 150,-216 280,-192 130,24 216,150 192,280 l -1450,7678 c 355,17 709,44 1063,81 l 2531,-7698 c 41,-126 177,-195 303,-154 126,41 195,177 154,303 l -2501,7606 c 889,114 1775,290 2656,526 z m 7113,-9244 c -76,109 -226,135 -335,58 -109,-76 -135,-226 -58,-335 l 3991,-5656 c 76,-109 226,-135 335,-58 109,76 135,226 58,335 z m 2349,2853 c -94,94 -246,94 -340,1 -94,-94 -94,-246 -1,-340 l 4086,-4098 c 94,-94 246,-94 340,-1 94,94 94,246 1,340 z m 766,3609 c -109,75 -259,48 -334,-61 -75,-109 -48,-259 61,-334 l 3484,-2397 c 109,-75 259,-48 334,61 75,109 48,259 -61,334 z m 2361,2094 c -121,54 -263,0 -317,-121 -54,-121 0,-263 121,-317 l 9805,-4398 c 121,-54 263,0 317,121 54,121 0,263 -121,317 z m 3669,5394 c -131,22 -255,-66 -278,-197 -22,-131 66,-255 197,-278 l 6822,-1177 c 131,-22 255,66 278,197 22,131 -66,255 -197,278 z m -356,3677 c -132,0 -240,-107 -240,-240 0,-132 107,-240 240,-240 l 5787,-9 c 132,0 240,107 240,240 0,132 -107,240 -240,240 z m -2010,3094 c -130,-24 -217,-149 -193,-279 24,-130 149,-217 279,-193 l 4159,769 c 130,24 217,149 193,279 -24,130 -149,217 -279,193 z m 189,3151 c -124,-47 -187,-186 -139,-310 47,-124 186,-187 310,-139 l 10043,3824 c 124,47 187,186 139,310 -47,124 -186,187 -310,139 z m -1219,6408 c -109,-76 -135,-226 -58,-335 76,-109 226,-135 335,-58 l 5656,3991 c 109,76 135,226 58,335 -76,109 -226,135 -335,58 z m -2853,2349 c -94,-94 -94,-246 -1,-340 94,-94 246,-94 340,-1 l 4098,4086 c 94,94 94,246 1,340 -94,94 -246,94 -340,1 z m -3609,766 c -75,-109 -48,-259 61,-334 109,-75 259,-48 334,61 l 2397,3484 c 75,109 48,259 -61,334 -109,75 -259,48 -334,-61 z m -2094,2361 c -54,-121 0,-263 121,-317 121,-54 263,0 317,121 l 4398,9805 c 54,121 0,263 -121,317 -121,54 -263,0 -317,-121 z m -5394,3669 c -22,-131 66,-255 197,-278 131,-22 255,66 278,197 l 1177,6822 c 22,131 -66,255 -197,278 -131,22 -255,-66 -278,-197 z m -3677,-356 c 0,-132 107,-240 240,-240 132,0 240,107 240,240 l 9,5787 c 0,132 -107,240 -240,240 -132,0 -240,-107 -240,-240 z m -3094,-2010 c 24,-130 149,-217 279,-193 130,24 217,149 193,279 l -769,4159 c -24,130 -149,217 -279,193 -130,-24 -217,-149 -193,-279 z m -3151,189 c 47,-124 186,-187 310,-139 124,47 187,186 139,310 l -3824,10043 c -47,124 -186,187 -310,139 -124,-47 -187,-186 -139,-310 z m -6408,-1219 c 76,-109 226,-135 335,-58 109,76 135,226 58,335 l -3991,5656 c -76,109 -226,135 -335,58 -109,-76 -135,-226 -58,-335 z m -2349,-2853 c 94,-94 246,-94 340,-1 94,94 94,246 1,340 l -4086,4098 c -94,94 -246,94 -340,1 -94,-94 -94,-246 -1,-340 z m -766,-3609 c 109,-75 259,-48 334,61 75,109 48,259 -61,334 l -3484,2397 c -109,75 -259,48 -334,-61 -75,-109 -48,-259 61,-334 z m -2361,-2094 c 121,-54 263,0 317,121 54,121 0,263 -121,317 l -9805,4398 c -121,54 -263,0 -317,-121 -54,-121 0,-263 121,-317 z M 8590,34067 c 131,-22 255,66 278,197 22,131 -66,255 -197,278 l -6822,1177 c -131,22 -255,-66 -278,-197 -22,-131 66,-255 197,-278 z m 356,-3677 c 132,0 240,107 240,240 0,132 -107,240 -240,240 l -5787,9 c -132,0 -240,-107 -240,-240 0,-132 107,-240 240,-240 z m 2010,-3094 c 130,24 217,149 193,279 -24,130 -149,217 -279,193 l -4159,-769 c -130,-24 -217,-149 -193,-279 24,-130 149,-217 279,-193 z m -189,-3151 c 124,47 187,186 139,310 -47,124 -186,187 -310,139 L 553,20770 c -124,-47 -187,-186 -139,-310 47,-124 186,-187 310,-139 z m 1219,-6408 c 109,76 135,226 58,335 -76,109 -226,135 -335,58 L 6053,14139 c -109,-76 -135,-226 -58,-335 76,-109 226,-135 335,-58 z m 2853,-2349 c 94,94 94,246 1,340 -94,94 -246,94 -340,1 l -4098,-4086 c -94,-94 -94,-246 -1,-340 94,-94 246,-94 340,-1 z m 3609,-766 c 75,109 48,259 -61,334 -109,75 -259,48 -334,-61 l -2397,-3484 c -75,-109 -48,-259 61,-334 109,-75 259,-48 334,61 z m 2094,-2361 c 54,121 0,263 -121,317 -121,54 -263,0 -317,-121 L 15706,2652 c -54,-121 0,-263 121,-317 121,-54 263,0 317,121 z m 5394,-3669 c 22,131 -66,255 -197,278 -131,22 -255,-66 -278,-197 L 24284,1851 c -22,-131 66,-255 197,-278 131,-22 255,66 278,197 z m 3677,356 c 0,132 -107,240 -240,240 -132,0 -240,-107 -240,-240 l -9,-5787 c 0,-132 107,-240 240,-240 132,0 240,107 240,240 z m 3094,2010 c -24,130 -149,217 -279,193 -130,-24 -217,-149 -193,-279 l 769,-4159 c 24,-130 149,-217 279,-193 130,24 217,149 193,279 z m 3151,-189 c -47,124 -186,187 -310,139 -124,-47 -187,-186 -139,-310 L 39233,555 c 47,-124 186,-187 310,-139 124,47 187,186 139,310 z m -4488,14731 c -401,-128 -825,-98 -1179,118 v 0 c -353,216 -571,581 -639,996 -70,428 19,907 282,1338 v 0 c 264,430 651,727 1063,858 401,128 825,98 1179,-118 v 0 c 353,-216 571,-581 639,-996 70,-428 -19,-907 -282,-1338 v -1 c -264,-430 -651,-727 -1063,-858 z m 3204,2928 c 12,357 -19,727 -19,1091 0,1430 -580,2724 -1517,3661 -937,937 -2231,1517 -3661,1517 -1430,0 -2724,-580 -3661,-1517 -937,-937 -1808,-2544 -1808,-3974 0,-476 -1,-1037 -9,313 0,1513 613,2882 1604,3873 512,512 1125,923 1806,1201 756,168 1566,262 2446,252 h 6 c 360,4 709,-9 1047,-38 937,-253 1774,-749 2441,-1415 991,-991 1604,-2361 1604,-3873 0,-369 -35,-730 -105,-1078 -147,-735 -196,-621 -176,-13 z m -1096,1528 c -149,911 -689,1755 -1299,2365 -717,717 -1708,1161 -2802,1161 -1094,0 -2085,-444 -2802,-1161 -717,-717 -1473,-1778 -1473,-2872 -4,-352 -135,-362 -132,70 0,1217 493,2319 1291,3116 797,797 1899,1291 3116,1291 1217,0 2319,-493 3116,-1291 715,-715 1301,-1671 1275,-2742 -15,-612 -70,-1292 -291,63 z m -798,-330 c -164,266 -358,512 -577,732 -717,717 -1708,1161 -2802,1161 -1094,0 -2085,-444 -2802,-1161 -73,-73 -144,-150 -211,-229 165,317 378,606 628,857 630,630 1500,1019 2461,1019 961,0 1831,-390 2461,-1019 378,-378 669,-842 842,-1360 z m -75,1197 c -128,180 -271,348 -426,504 -717,717 -1708,1161 -2802,1161 -1094,0 -2085,-444 -2802,-1161 -156,-156 -298,-324 -426,-504 177,437 439,829 767,1157 630,630 1500,1019 2461,1019 961,0 1831,-390 2461,-1019 328,-328 590,-720 767,-1157 z m 2314,-4188 c 68,130 132,264 190,399 332,764 516,1605 516,2485 0,1725 -699,3287 -1830,4418 -100,100 -203,196 -309,289 1509,-531 2807,-1330 4052,-2097 1119,-689 2198,-1353 3360,-1795 -1546,-510 -3038,-1590 -4547,-2682 -475,-344 -953,-690 -1432,-1017 z m -10206,7042 c -985,-1105 -1584,-2561 -1584,-4158 0,-834 164,-1630 461,-2358 58,-142 121,-281 189,-418 -426,294 -850,601 -1273,908 -1400,1013 -2786,2017 -4214,2563 1289,436 2465,1160 3690,1914 868,534 1761,1084 2733,1548 z M 22547,23607 c 126,-42 261,27 303,152 42,126 -27,261 -152,303 -819,272 -1360,669 -1921,1079 -535,391 -1086,795 -1913,1133 -123,50 -262,-9 -312,-132 -50,-123 9,-262 132,-312 768,-314 1297,-701 1810,-1076 590,-432 1161,-850 2054,-1147 z m 3192,17 c 130,-24 256,62 280,192 24,130 -62,256 -192,280 -1590,301 -2828,1060 -4232,1922 -1327,815 -2800,1718 -4860,2428 -126,43 -263,-24 -306,-150 -43,-126 24,-263 150,-306 2013,-694 3461,-1583 4766,-2383 1443,-886 2716,-1667 4393,-1984 z m 11236,438 c -126,-42 -194,-177 -152,-303 42,-126 177,-194 303,-152 894,297 1464,715 2054,1147 513,376 1042,763 1810,1076 123,50 182,190 132,312 -50,123 -190,182 -312,132 -827,-338 -1379,-742 -1913,-1133 -561,-410 -1102,-807 -1921,-1079 z m -3130,34 c -130,-24 -216,-150 -192,-280 24,-130 150,-216 280,-192 1677,317 2950,1098 4393,1984 1305,801 2753,1689 4766,2383 126,43 193,180 150,306 -43,126 -180,193 -306,150 -2060,-710 -3533,-1614 -4860,-2428 -1404,-862 -2642,-1621 -4232,-1922 z"
       id="path6" /></g><text
     x="-397.88605"
     y="59615.113"
     fill="#000000"
     font-size="5px"
     font-weight="bold"
     font-family="'Helvetica Neue', Helvetica, Arial-Unicode, Arial, Sans-serif"
     id="text10">Created by Olena Panasovska</text><text
     x="-397.88605"
     y="59620.113"
     fill="#000000"
     font-size="5px"
     font-weight="bold"
     font-family="'Helvetica Neue', Helvetica, Arial-Unicode, Arial, Sans-serif"
     id="text12">from the Noun Project</text></svg>
