<?xml version="1.0" encoding="UTF-8" standalone="no"?>
<svg
   xmlns:dc="http://purl.org/dc/elements/1.1/"
   xmlns:cc="http://creativecommons.org/ns#"
   xmlns:rdf="http://www.w3.org/1999/02/22-rdf-syntax-ns#"
   xmlns:svg="http://www.w3.org/2000/svg"
   xmlns="http://www.w3.org/2000/svg"
   xmlns:sodipodi="http://sodipodi.sourceforge.net/DTD/sodipodi-0.dtd"
   xmlns:inkscape="http://www.inkscape.org/namespaces/inkscape"
   xml:space="preserve"
   version="1.1"
   style="image-rendering:optimizeQuality;shape-rendering:geometricPrecision;text-rendering:geometricPrecision"
   viewBox="0 0 124.99996 152.51692"
   x="0px"
   y="0px"
   fill-rule="evenodd"
   clip-rule="evenodd"
   id="svg14"
   sodipodi:docname="horoscope.svg"
   width="124.99996"
   height="152.51692"
   inkscape:version="1.0.2 (1.0.2+r75+1)"><metadata
     id="metadata18"><rdf:RDF><cc:Work
         rdf:about=""><dc:format>image/svg+xml</dc:format><dc:type
           rdf:resource="http://purl.org/dc/dcmitype/StillImage" /><dc:title></dc:title></cc:Work></rdf:RDF></metadata><sodipodi:namedview
     pagecolor="#ffffff"
     bordercolor="#666666"
     borderopacity="1"
     objecttolerance="10"
     gridtolerance="10"
     guidetolerance="10"
     inkscape:pageopacity="0"
     inkscape:pageshadow="2"
     inkscape:window-width="1920"
     inkscape:window-height="980"
     id="namedview16"
     showgrid="false"
     fit-margin-top="0"
     fit-margin-left="0"
     fit-margin-right="0"
     fit-margin-bottom="0"
     inkscape:zoom="0.011013333"
     inkscape:cx="23494.235"
     inkscape:cy="36166.235"
     inkscape:window-x="0"
     inkscape:window-y="27"
     inkscape:window-maximized="1"
     inkscape:current-layer="svg14" /><defs
     id="defs4"><style
       type="text/css"
       id="style2">
   
    .fil0 {fill:black;fill-rule:nonzero}
   
  </style></defs><g
     id="g8"
     transform="matrix(0.00266027,0,0,0.00266027,-17.307092,-3.5481751)"><path
       class="fil0"
       d="m 16876,1581 1836,4432 4434,-1836 c 204,-84 437,14 520,217 42,101 38,209 0,303 l -1836,4434 4432,1836 c 204,84 301,317 217,520 -42,103 -122,178 -217,217 l -4432,1836 1836,4434 c 84,204 -14,437 -217,520 -101,42 -209,38 -303,0 l -4434,-1836 -1836,4432 c -84,204 -317,301 -520,217 -103,-42 -178,-122 -217,-217 l -1836,-4432 -4434,1836 c -204,84 -437,-14 -520,-217 -42,-101 -38,-209 0,-303 l 1836,-4434 -4432,-1836 c -204,-84 -301,-317 -217,-520 42,-103 122,-178 217,-217 L 11185,9131 9349,4697 c -84,-204 14,-437 217,-520 101,-42 209,-38 303,0 l 4434,1836 1836,-4432 c 84,-204 317,-301 520,-217 103,42 178,122 217,217 z m 18672,53067 c -126,-57 -182,-204 -125,-330 57,-126 204,-182 330,-125 1021,461 1582,1172 2140,1881 749,951 1494,1896 3444,2094 137,13 237,135 224,272 -13,137 -135,237 -272,224 -2163,-220 -2973,-1248 -3788,-2281 -521,-661 -1043,-1324 -1953,-1734 z m -25123,-28573 421,685 789,-188 c 215,-51 430,82 481,297 15,65 14,130 -2,191 l -187,782 690,425 c 188,116 247,362 131,550 -35,57 -83,103 -137,135 l -685,421 188,789 c 51,215 -82,430 -297,481 -65,15 -130,14 -191,-2 l -782,-187 -425,690 c -116,188 -362,247 -550,131 -57,-35 -103,-83 -135,-137 l -421,-685 -789,188 c -215,51 -430,-82 -481,-297 -15,-65 -14,-130 2,-191 l 187,-782 -690,-425 c -188,-116 -247,-362 -131,-550 35,-57 83,-103 137,-135 l 685,-421 -188,-789 c -51,-215 82,-430 297,-481 65,-15 130,-14 191,2 l 782,187 425,-690 c 116,-188 362,-247 550,-131 57,35 103,83 135,137 z m -108,1351 -236,-383 -231,376 c -86,148 -262,228 -437,187 l -438,-105 102,429 c 43,166 -24,347 -178,442 l -383,236 376,231 c 148,86 228,262 187,437 l -105,438 429,-102 c 166,-43 347,24 442,178 l 236,383 231,-376 c 86,-148 262,-228 437,-187 l 438,105 -102,-429 c -43,-166 24,-347 178,-442 l 383,-236 -376,-231 c -148,-86 -228,-262 -187,-437 l 105,-438 -429,102 c -166,43 -347,-24 -442,-178 z m 27413,4153 421,685 789,-188 c 215,-51 430,82 481,297 15,65 14,130 -2,191 l -187,782 690,425 c 188,116 247,362 131,550 -35,57 -83,103 -137,135 l -685,421 188,789 c 51,215 -82,430 -297,481 -65,15 -130,14 -191,-2 l -782,-187 -425,690 c -116,188 -362,247 -550,131 -57,-35 -103,-83 -135,-137 l -421,-685 -789,188 c -215,51 -430,-82 -481,-297 -15,-65 -14,-130 2,-191 l 187,-782 -690,-425 c -188,-116 -247,-362 -131,-550 35,-57 83,-103 137,-135 l 685,-421 -188,-789 c -51,-215 82,-430 297,-481 65,-15 130,-14 191,2 l 782,187 425,-690 c 116,-188 362,-247 550,-131 57,35 103,83 135,137 z m -108,1351 -236,-383 -231,376 c -86,148 -262,228 -437,187 l -438,-105 102,429 c 43,166 -24,347 -178,442 l -383,236 376,231 c 148,86 228,262 187,437 l -105,438 429,-102 c 166,-43 347,24 442,178 l 236,383 231,-376 c 86,-148 262,-228 437,-187 l 438,105 -102,-429 c -43,-166 24,-347 178,-442 l 383,-236 -376,-231 c -148,-86 -228,-262 -187,-437 l 105,-438 -429,102 c -166,43 -347,-24 -442,-178 z m 13489,-11587 421,685 789,-188 c 215,-51 430,82 481,297 15,65 14,130 -2,191 l -187,782 690,425 c 188,116 247,362 131,550 -35,57 -83,103 -137,135 l -685,421 188,789 c 51,215 -82,430 -297,481 -65,15 -130,14 -191,-2 l -782,-187 -425,690 c -116,188 -362,247 -550,131 -57,-35 -103,-83 -135,-137 l -421,-685 -789,188 c -215,51 -430,-82 -481,-297 -15,-65 -14,-130 2,-191 l 187,-782 -690,-425 c -188,-116 -247,-362 -131,-550 35,-57 83,-103 137,-135 l 685,-421 -188,-789 c -51,-215 82,-430 297,-481 65,-15 130,-14 191,2 l 782,187 425,-690 c 116,-188 362,-247 550,-131 57,35 103,83 135,137 z m -108,1351 -236,-383 -231,376 c -86,148 -262,228 -437,187 l -438,-105 102,429 c 43,166 -24,347 -178,442 l -383,236 376,231 c 148,86 228,262 187,437 l -105,438 429,-102 c 166,-43 347,24 442,178 l 236,383 231,-376 c 86,-148 262,-228 437,-187 l 438,105 -102,-429 c -43,-166 24,-347 178,-442 l 383,-236 -376,-231 c -148,-86 -228,-262 -187,-437 l 105,-438 -429,102 c -166,43 -347,-24 -442,-178 z m -11533,-4102 421,685 789,-188 c 215,-51 430,82 481,297 15,65 14,130 -2,191 l -187,782 690,425 c 188,116 247,362 131,550 -35,57 -83,103 -137,135 l -685,421 188,789 c 51,215 -82,430 -297,481 -65,15 -130,14 -191,-2 l -782,-187 -425,690 c -116,188 -362,247 -550,131 -57,-35 -103,-83 -135,-137 l -421,-685 -789,188 c -215,51 -430,-82 -481,-297 -15,-65 -14,-130 2,-191 l 187,-782 -690,-425 c -188,-116 -247,-362 -131,-550 35,-57 83,-103 137,-135 l 685,-421 -188,-789 c -51,-215 82,-430 297,-481 65,-15 130,-14 191,2 l 782,187 425,-690 c 116,-188 362,-247 550,-131 57,35 103,83 135,137 z m -108,1351 -236,-383 -231,376 c -86,148 -262,228 -437,187 l -438,-105 102,429 c 43,166 -24,347 -178,442 l -383,236 376,231 c 148,86 228,262 187,437 l -105,438 429,-102 c 166,-43 347,24 442,178 l 236,383 231,-376 c 86,-148 262,-228 437,-187 l 438,105 -102,-429 c -43,-166 24,-347 178,-442 l 383,-236 -376,-231 c -148,-86 -228,-262 -187,-437 l 105,-438 -429,102 c -166,43 -347,-24 -442,-178 z m 6504,-11693 421,685 789,-188 c 215,-51 430,82 481,297 15,65 14,130 -2,191 l -187,782 690,425 c 188,116 247,362 131,550 -35,57 -83,103 -137,135 l -685,421 188,789 c 51,215 -82,430 -297,481 -65,15 -130,14 -191,-2 l -782,-187 -425,690 c -116,188 -362,247 -550,131 -57,-35 -103,-83 -135,-137 l -421,-685 -789,188 c -215,51 -430,-82 -481,-297 -15,-65 -14,-130 2,-191 l 187,-782 -690,-425 c -188,-116 -247,-362 -131,-550 35,-57 83,-103 137,-135 l 685,-421 -188,-789 c -51,-215 82,-430 297,-481 65,-15 130,-14 191,2 l 782,187 425,-690 c 116,-188 362,-247 550,-131 57,35 103,83 135,137 z m -108,1351 -236,-383 -231,376 c -86,148 -262,228 -437,187 l -438,-105 102,429 c 43,166 -24,347 -178,442 l -383,236 376,231 c 148,86 228,262 187,437 l -105,438 429,-102 c 166,-43 347,24 442,178 l 236,383 231,-376 c 86,-148 262,-228 437,-187 l 438,105 -102,-429 c -43,-166 24,-347 178,-442 l 383,-236 -376,-231 c -148,-86 -228,-262 -187,-437 l 105,-438 -429,102 c -166,43 -347,-24 -442,-178 z m -2678,46716 c 215,50 348,265 298,480 -50,215 -265,348 -480,298 -284,-67 -541,-101 -791,-135 -1061,-142 -2019,-269 -3715,-2150 -530,-588 -914,-1011 -1348,-1323 -430,-310 -936,-534 -1729,-741 -3095,-809 -5418,-2594 -6783,-3643 -362,-278 -654,-503 -853,-627 -117,-73 -243,-136 -375,-178 -102,-32 -203,-49 -300,-44 -472,22 -919,144 -1365,266 -237,65 -474,130 -718,182 l 418,944 c 218,51 436,175 605,361 171,188 295,442 322,747 12,137 5,282 -27,433 -13,61 -38,115 -73,161 l -1356,1779 c -33,44 -74,79 -119,104 v 0 c -669,384 -1219,480 -1572,400 -195,-44 -347,-139 -452,-273 -115,-147 -164,-325 -139,-522 36,-289 251,-633 674,-952 506,-381 297,-791 67,-1243 -19,-38 -39,-76 -93,-186 h -1 l -482,-966 c 3,516 40,1023 175,1391 111,304 121,595 73,841 -66,342 -253,615 -446,739 -11,7 -23,14 -35,20 l -2441,1433 c -376,249 -728,233 -993,83 -115,-66 -210,-155 -281,-260 -69,-102 -116,-220 -138,-344 -54,-310 51,-657 376,-890 l 1406,-1161 -275,-3153 -7040,-2675 c -71,5 -128,17 -171,37 -102,47 -150,174 -158,356 -12,282 69,654 215,1073 372,1071 1143,2385 1880,3366 149,198 280,355 397,494 518,616 793,942 759,2167 -21,765 -493,1699 -1262,2567 -707,797 -1674,1554 -2773,2076 -199,94 -437,9 -531,-191 -94,-199 -9,-437 191,-531 1000,-475 1877,-1161 2517,-1882 649,-732 1046,-1483 1062,-2060 26,-923 -181,-1169 -571,-1633 -127,-151 -270,-322 -426,-528 -779,-1037 -1597,-2434 -1996,-3581 -177,-510 -275,-982 -258,-1370 22,-488 212,-857 624,-1046 162,-74 350,-114 567,-114 v 1 c 47,0 94,8 141,26 l 6757,2567 -414,-4741 -1847,2083 c -22,24 -45,45 -71,63 l 1,1 c -248,173 -482,243 -692,241 -217,-2 -399,-78 -543,-202 -133,-114 -229,-267 -285,-436 -77,-231 -80,-499 0,-736 12,-35 28,-66 47,-95 l 820,-1368 -517,169 c -210,68 -435,-47 -503,-256 -68,-210 47,-435 256,-503 l 1907,-621 1178,-1677 c 130,-631 79,-1319 29,-2008 -113,-1548 -225,-3096 1410,-4408 -36,-291 -202,-500 -366,-708 -148,-188 -296,-374 -400,-615 -79,-182 -126,-358 -137,-540 -2,-19 -3,-37 -2,-56 -3,-133 14,-264 52,-396 147,-1090 267,-2230 349,-3321 90,-1190 135,-2309 125,-3227 v 0 l -79,-1976 c -73,-494 45,-885 252,-1127 115,-134 257,-226 413,-271 160,-46 331,-40 501,21 286,103 562,372 732,831 9,24 15,48 19,73 l 298,1539 c 183,-208 383,-369 578,-490 187,-116 434,-59 550,128 116,187 59,434 -128,550 -190,118 -385,287 -543,523 -127,189 -230,424 -290,712 l -158,4101 c 207,-13 410,-8 605,13 636,-348 1291,-246 1839,117 349,230 649,571 865,967 214,391 346,841 360,1293 27,902 -402,1802 -1562,2280 -194,80 -442,20 -722,-46 -169,-40 -293,-269 -355,-255 -13,22 -26,44 -40,65 -67,171 -125,316 -175,438 904,994 754,2419 604,3844 -69,654 -138,1308 -93,1885 996,1461 695,3267 394,5074 -139,836 -279,1672 -278,2439 l 565,1276 c 285,-52 562,-128 839,-204 491,-134 981,-269 1540,-294 197,-9 389,21 572,79 196,61 385,156 559,265 245,154 546,385 918,671 1317,1012 3559,2735 6496,3503 897,234 1482,497 1994,866 508,367 916,815 1476,1436 1500,1664 2318,1773 3224,1894 279,37 565,75 869,147 z M 20716,35443 c 18,-220 211,-384 431,-366 220,18 384,211 366,431 l -186,2241 c -7,81 -37,154 -84,214 l -2465,3509 c -52,74 -124,124 -204,150 l -360,117 -1276,2127 c -15,66 -12,136 9,198 12,35 28,63 47,80 8,7 18,11 30,12 46,0 110,-23 196,-78 l 1894,-2136 446,-596 c 27,-71 73,-133 134,-179 l 1955,-2613 456,-2502 c 39,-217 246,-361 463,-322 217,39 361,246 322,463 l -473,2595 c -12,66 -39,125 -77,174 l -1991,2661 860,9858 h -1 c 11,126 -39,256 -144,342 l -1568,1295 c -13,12 -28,24 -43,35 -44,31 -60,72 -54,106 2,11 6,22 13,31 5,7 9,12 12,13 24,14 77,1 163,-57 v 0 c 7,-4 13,-9 20,-13 l 2453,-1440 6,-4 c 32,-21 70,-98 93,-217 23,-120 18,-264 -39,-419 -267,-729 -232,-1753 -203,-2588 8,-220 15,-427 15,-603 l -172,-344 c -23,-46 -36,-95 -41,-144 v 0 l -330,-3810 c -19,-220 144,-414 364,-433 220,-19 414,144 433,364 l 323,3735 118,237 c 45,51 77,114 92,184 l 1173,2348 h -1 l 1,1 c 6,12 48,95 90,177 390,765 743,1458 -301,2243 -180,135 -288,251 -334,339 181,16 477,-64 879,-285 l 1245,-1634 c 5,-43 5,-83 2,-120 -10,-115 -56,-209 -119,-278 -60,-66 -131,-108 -198,-122 -14,-3 -27,-5 -38,-5 -170,21 -342,-70 -414,-236 l -1442,-3254 h 1 c -21,-48 -33,-100 -34,-156 -12,-868 137,-1766 287,-2663 279,-1674 558,-3348 -304,-4551 -47,-58 -79,-130 -87,-211 -70,-683 7,-1415 84,-2147 113,-1076 227,-2152 -178,-2905 -3,12 -6,25 -10,39 -53,214 -269,345 -483,292 -214,-53 -345,-269 -292,-483 79,-320 81,-324 149,-426 20,-30 55,-83 156,-318 6,-17 13,-33 21,-49 63,-149 150,-362 269,-668 3,-8 6,-16 10,-24 25,-59 55,-110 89,-153 596,-1041 128,-2379 -78,-2969 -22,-64 -43,-124 -61,-180 -368,0 -755,74 -1103,253 -380,195 -717,521 -935,1022 -6,14 -11,27 -16,40 -11,83 -23,167 -35,250 8,75 34,159 74,253 66,154 178,295 291,437 288,364 580,733 543,1414 -6,127 -72,238 -169,306 -1447,1076 -1347,2455 -1246,3834 20,273 40,545 49,818 l 284,-405 177,-2134 z m 1268,-11251 -487,-2516 c -77,-197 -164,-301 -240,-329 -6,-2 -10,-3 -13,-2 -7,2 -15,9 -25,21 -71,83 -106,252 -68,501 3,18 5,36 6,54 l 79,1998 v 0 12 c 11,958 -34,2104 -125,3305 -47,626 -107,1271 -177,1914 128,-96 261,-179 399,-250 146,-75 295,-136 447,-185 l 166,-4318 c 1,-21 3,-42 7,-62 h -1 c 9,-48 20,-95 31,-141 z m 1545,5112 53,-18 c 20,-11 33,-16 35,-12 211,603 653,1868 261,3076 93,19 187,41 277,63 147,35 192,102 234,84 792,-326 1086,-925 1068,-1520 -10,-322 -106,-647 -263,-933 -154,-282 -365,-523 -606,-683 -317,-210 -696,-266 -1059,-56 z m -131,88 c -170,131 87,-54 184,-107 l -53,18 c -10,6 -19,11 -29,17 -7,5 -14,10 -22,14 -27,17 -53,36 -80,57 z m -4378,-22640 608,1468 1468,608 1468,-3543 -3543,1468 z m 1039,2510 428,1034 303,-731 z m -523,821 -519,-1253 -2507,-1039 -2507,1039 -1039,2507 1039,2507 2507,1039 2507,-1039 1039,-2507 -520,-1255 z m -950,-2294 -303,-731 -731,303 z m -608,-1468 -1468,-3543 -1468,3543 1468,608 z m 2941,5017 608,1468 3543,-1468 -3543,-1468 z m 1644,6053 -1468,-3543 -1468,608 -608,1468 3543,1468 z m -1773,-4280 -303,-731 -428,1034 z m -2812,3244 -1468,-608 -1468,608 1468,3543 z m -2510,-1039 -1034,-428 303,731 z m 2084,0 731,303 303,-731 z m -4159,-860 -1468,-608 -1468,3543 3543,-1468 -608,-1468 z m -5443,-3117 3543,1468 608,-1468 -608,-1468 z m 4280,1773 731,303 -428,-1034 z m -305,-4282 1468,-608 608,-1468 -3543,-1468 1468,3543 z m 2510,-1039 1034,-428 -731,-303 z m -1473,1473 -731,303 303,731 z"
       id="path6" /></g><text
     x="-6505.7651"
     y="58681.234"
     fill="#000000"
     font-size="5px"
     font-weight="bold"
     font-family="'Helvetica Neue', Helvetica, Arial-Unicode, Arial, Sans-serif"
     id="text10">Created by Olena Panasovska</text><text
     x="-6505.7651"
     y="58686.234"
     fill="#000000"
     font-size="5px"
     font-weight="bold"
     font-family="'Helvetica Neue', Helvetica, Arial-Unicode, Arial, Sans-serif"
     id="text12">from the Noun Project</text></svg>
