<?xml version="1.0" encoding="UTF-8" standalone="no"?>
<svg
   xmlns:dc="http://purl.org/dc/elements/1.1/"
   xmlns:cc="http://creativecommons.org/ns#"
   xmlns:rdf="http://www.w3.org/1999/02/22-rdf-syntax-ns#"
   xmlns:svg="http://www.w3.org/2000/svg"
   xmlns="http://www.w3.org/2000/svg"
   xmlns:sodipodi="http://sodipodi.sourceforge.net/DTD/sodipodi-0.dtd"
   xmlns:inkscape="http://www.inkscape.org/namespaces/inkscape"
   xml:space="preserve"
   version="1.1"
   style="image-rendering:optimizeQuality;shape-rendering:geometricPrecision;text-rendering:geometricPrecision"
   viewBox="0 0 48.766983 124.99977"
   x="0px"
   y="0px"
   fill-rule="evenodd"
   clip-rule="evenodd"
   id="svg14"
   sodipodi:docname="mailing_list.svg"
   width="48.766983"
   height="124.99977"
   inkscape:version="1.0.2 (1.0.2+r75+1)"><metadata
     id="metadata18"><rdf:RDF><cc:Work
         rdf:about=""><dc:format>image/svg+xml</dc:format><dc:type
           rdf:resource="http://purl.org/dc/dcmitype/StillImage" /><dc:title></dc:title></cc:Work></rdf:RDF></metadata><sodipodi:namedview
     pagecolor="#ffffff"
     bordercolor="#666666"
     borderopacity="1"
     objecttolerance="10"
     gridtolerance="10"
     guidetolerance="10"
     inkscape:pageopacity="0"
     inkscape:pageshadow="2"
     inkscape:window-width="1920"
     inkscape:window-height="980"
     id="namedview16"
     showgrid="false"
     inkscape:zoom="0.01"
     inkscape:cx="-38769.628"
     inkscape:cy="-5538.9299"
     inkscape:window-x="0"
     inkscape:window-y="27"
     inkscape:window-maximized="1"
     inkscape:current-layer="svg14"
     fit-margin-top="0"
     fit-margin-left="0"
     fit-margin-right="0"
     fit-margin-bottom="0" /><defs
     id="defs4"><style
       type="text/css"
       id="style2">
   
    .fil0 {fill:black;fill-rule:nonzero}
   
  </style></defs><g
     id="g8"
     transform="matrix(0.00212182,0,0,0.00212182,-39.271119,-1.1547157)"><path
       class="fil0"
       d="m 29881.89,41485.74 c -117.36,186.39 -363.61,242.36 -550,125 -186.39,-117.36 -242.36,-363.61 -125,-550 123.87,-196.74 253.27,-383.57 380.37,-567.08 115.25,-166.4 228.41,-329.79 331.4,-493.66 -98.1,-240.67 -194.46,-490.92 -291.14,-741.98 -229.32,-595.56 -460.55,-1196.04 -754.63,-1746.45 -6.14,-10.26 -11.83,-20.84 -17.06,-31.7 -223.74,-413.83 -483.89,-798.57 -806.71,-1130.55 l -116.63,-119.67 c -914.79,-937.62 -1640.57,-1681.54 -1567.25,-3186.65 26.02,-534.15 60.7,-1049.29 95.4,-1564.75 78.64,-1168.25 157.37,-2338.32 117.69,-3281.44 -35.33,-0.24 -71.23,-5.19 -106.87,-15.33 -212.28,-60.4 -335.4,-281.48 -275,-493.76 31.7,-110.97 105.02,-309.98 179.63,-512.47 75.77,-205.67 153,-415.28 174.98,-497.74 105.09,-394.24 192.61,-777.94 236.86,-1161.44 42.93,-372.06 45.18,-744.74 -17.31,-1128.56 -73.12,-449.09 -216.28,-823.63 -418.87,-1097.56 -37.53,-50.75 -77.16,-97.97 -118.78,-141.49 47.03,738.47 48.68,1288.95 -67.29,1716.95 -140.49,518.5 -432.04,843.87 -977.51,1059.6 l -849.15,3303.6 -0.51,2.86 c -496.32,2580.93 -240.99,3689.55 220.99,5695.3 111.9,485.84 235.8,1023.75 370.52,1678.08 2.89,11.21 5.34,22.63 7.28,34.26 46.23,277.45 56.91,538.5 1.56,831.09 -53.59,283.27 -167.37,584.03 -369.45,943.95 -107.86,192.43 -351.32,260.99 -543.75,153.13 -192.43,-107.86 -260.99,-351.32 -153.13,-543.75 158.27,-281.88 244.84,-504.03 281.95,-700.21 35.35,-186.89 27.14,-362 -4.68,-552.95 l -0.67,-4.33 c -125.39,-608.85 -252.73,-1161.76 -367.75,-1661.15 l -3.55,-15.42 c -320.73,596.69 -594.94,1179.57 -782.24,1715.75 -247.12,707.43 -340.41,1316.34 -176.94,1731.84 640.18,1627.17 1198.6,2963.39 1678.48,4111.7 2097.73,5019.71 2716.56,6500.52 2257.44,13160.45 -20.71,300.55 -42.94,1672.02 -67.24,3171.49 l -1.34,82.85 c -3.45,220.05 -184.64,395.64 -404.69,392.19 -220.05,-3.45 -395.64,-184.64 -392.19,-404.69 l 1.34,-82.85 c 24.75,-1527.21 47.4,-2924.06 67.24,-3212.11 446.27,-6473.41 -156.11,-7914.84 -2198.06,-12801.07 -480.72,-1150.33 -1040.12,-2488.89 -1684.74,-4127.34 -240.84,-612.16 -139.51,-1405.87 167.58,-2284.96 285.1,-816.14 750.55,-1720.02 1276.53,-2618.04 -299.84,-1464.65 -386.53,-2650.52 35.13,-4843.21 3.41,-17.81 7.97,-35.11 13.55,-51.86 l 1008.25,-3922.58 222.17,-2221.92 -0.69,-0.08 c 2.9,-25.44 7.76,-52.98 14.47,-82.35 1.9,-8.3 4.08,-16.46 6.46,-24.52 49.47,-185.57 174.31,-373.83 326.96,-508.82 179.67,-158.89 412.53,-260.62 640.66,-234.62 21.39,2.43 44.78,6.53 70.1,12.3 460.63,105.19 844.13,372.85 1136.31,767.93 278.84,377.04 472.22,869.99 565.75,1444.44 75.84,465.77 74.07,909.63 23.57,1347.3 -49.18,426.25 -144.55,845.59 -258.74,1273.94 -14.15,53.09 -36.63,122.68 -63.87,201.61 1.86,7.41 3.54,14.9 4.99,22.5 91.59,474.64 124.31,1045.58 123.17,1671.67 21.56,-13.91 43.17,-27.69 64.82,-41.34 204.94,-129.23 412.9,-248.07 621.7,-360.73 1007.75,-543.77 2061.99,-1016.09 3154.33,-1358.91 1098.13,-344.64 2236,-558.03 3405.73,-581.41 256.56,-5.11 483.11,58.21 652.87,178.54 97.99,69.47 177.05,157.05 233.46,261.28 55.82,103.11 86.97,220.05 89.54,349.05 4.13,206.62 -69.52,438.59 -241.87,681.7 -765.82,1080.28 -1441.21,1141.46 -2458.45,1233.59 -128.32,11.62 -263.67,23.88 -468.71,47.28 -540.53,61.68 -1077.27,395.46 -1660.98,758.43 -591.11,367.59 -1225.55,762.07 -2008.82,990.29 -12.48,161.81 -33.64,327.04 -60.79,494.29 34.77,-20.32 70.7,-41.16 108.13,-62.87 77.2,-44.78 -149.63,86.77 120.25,-70.83 931.57,-544.14 1907.92,-1017.39 2922.38,-1362.04 1019.84,-346.47 2076.89,-561.01 3163.98,-584.53 225.62,-4.88 426.69,48.52 583.63,151.29 105.03,68.79 190.56,159.44 252.14,270.06 59.99,107.72 93.74,230.51 96.65,366.05 4.38,202.46 -62.41,430.62 -219.62,670.67 -714.13,1090.5 -1347.28,1152.6 -2300.91,1246.09 -113.15,11.09 -232.47,22.8 -430.7,47.28 -11.1,1.37 -22.21,2.93 -33.31,4.58 6.76,-0.13 13.5,-0.23 20.22,-0.26 445.88,-2.18 787.32,207.87 1042,542.42 218.53,287.07 366.23,668.19 456.63,1074.01 152.84,686.14 143.26,1470.57 35.78,1959.85 -29.73,341.99 -84.65,669.63 -153.47,987.18 386.38,-75.82 736.8,-193.46 995.97,-280.45 378.25,-126.98 630.96,-211.76 843.96,-45.41 178.99,139.82 338.04,302.08 409.53,522.76 82.32,254.2 42.89,527.45 -211.75,825.27 -313.05,366.15 -625.42,700.86 -1054.85,999.32 -421.2,292.72 -945.37,543.82 -1676.27,743.8 -57.61,400.15 -69.88,801.49 -2.86,1212.03 3.97,24.42 5.63,48.69 5.14,72.57 28.95,1140.12 428.37,1955.95 828.15,2772.34 379.43,774.86 759.14,1550.26 877.62,2604.57 125.29,1114.96 -219.87,1790.82 -651.89,2636.74 -614.23,1202.7 -1424.63,2789.5 -1068.32,6840.61 14.62,166.26 66.59,556.98 143.17,1092.61 83.52,584.08 205.41,1400.29 344.87,2317.24 32.79,218.32 -117.61,421.9 -335.93,454.69 -218.32,32.79 -421.9,-117.61 -454.69,-335.93 -130.21,-856.14 -250.84,-1665.95 -344.87,-2323.5 -80.51,-563.08 -134.82,-970.16 -149.43,-1136.35 -375.82,-4272.85 495.45,-5978.83 1155.82,-7271.87 370.53,-725.52 666.57,-1305.2 567.51,-2186.74 -103.47,-920.73 -451.6,-1631.65 -799.48,-2342.07 -436.82,-892.03 -873.23,-1783.48 -908.99,-3091.11 -171.87,-1091.7 104.61,-2051.41 395.44,-3060.64 190.44,-660.83 387.51,-1344.66 450.36,-2091.91 l 1.42,0.12 c 1.65,-19.75 4.79,-39.63 9.52,-59.5 93.29,-390.08 102.02,-1053.53 -29.58,-1644.34 -66.82,-299.96 -168.88,-572.33 -312.89,-761.51 -107.86,-141.69 -241.87,-230.71 -404.5,-229.92 -118.6,0.57 -262.74,41.7 -436.24,133.36 -668.96,353.44 -1025.23,1339.9 -1212.29,2417.96 -200.4,1155 -199.51,2399.79 -176.77,3165.04 28.23,950.08 -433.32,1616.49 -927.21,2329.58 -121.47,175.38 -245.12,353.91 -361.63,538.96 z m -1775.45,16319.7 c -2.15,137.52 -115.41,247.26 -252.93,245.11 -137.52,-2.15 -247.26,-115.41 -245.11,-252.93 l 1.34,-82.85 c 24.67,-1522.01 47.24,-2914.1 67.24,-3204.49 9.16,-137.52 128.1,-241.58 265.62,-232.42 137.52,9.16 241.58,128.1 232.42,265.62 -20.54,298.2 -42.86,1674.43 -67.24,3179.11 z m 4432.61,-50416.1 c -95.72,168.7 26.91,375.3 220.56,374.02 89.53,-1.79 168.73,-48.47 213.58,-126 l 1240.13,-2170.72 c 95.72,-168.7 -26.91,-375.3 -220.56,-374.02 -89.53,1.79 -168.72,48.47 -213.58,126 z M 24727.44,1932.48 c -101.85,-172.65 -353.01,-162.92 -441.14,17.35 -36.16,75.65 -32.73,162.03 9.26,234.61 l 69.71,119.48 c 101.85,172.65 353.01,162.92 441.14,-17.35 36.16,-75.65 32.73,-162.03 -9.26,-234.61 z m 825.62,1415.1 c -101.85,-172.65 -353.01,-162.92 -441.14,17.35 -36.16,75.65 -32.73,162.03 9.26,234.61 l 251.96,431.87 c 101.85,172.65 353.01,162.92 441.14,-17.35 36.16,-75.65 32.73,-162.03 -9.26,-234.61 z m 1007.86,1727.48 c -101.85,-172.65 -353.01,-162.92 -441.14,17.35 -36.16,75.65 -32.73,162.03 9.26,234.61 l 1259.83,2159.35 c 101.85,172.65 353.01,162.92 441.14,-17.35 36.16,-75.65 32.73,-162.03 -9.26,-234.61 z M 18757.28,11523 c -196.09,1.21 -314.47,216.8 -210.49,383.17 46.95,73.61 125.4,116.83 212.77,116.83 l 138.34,-0.64 c 196.09,-1.21 314.47,-216.8 210.49,-383.17 -46.95,-73.61 -125.4,-116.83 -212.77,-116.83 z m 1638.33,-7.47 c -196.09,1.21 -314.47,216.8 -210.49,383.17 46.95,73.61 125.4,116.83 212.77,116.83 l 499.99,-2.27 c 196.09,-1.21 314.47,-216.8 210.49,-383.17 -46.95,-73.61 -125.4,-116.83 -212.77,-116.83 z m 1999.97,-9.09 c -196.09,1.21 -314.47,216.8 -210.49,383.17 46.95,73.61 125.4,116.83 212.77,116.83 l 2499.97,-11.37 c 196.09,-1.21 314.47,-216.8 210.49,-383.17 -46.95,-73.61 -125.4,-116.83 -212.77,-116.83 z m 1682.27,9982.13 c -95.72,168.7 26.91,375.3 220.56,374.02 89.53,-1.79 168.73,-48.47 213.58,-126 l 68.63,-120.12 c 95.72,-168.7 -26.91,-375.3 -220.56,-374.02 -89.53,1.79 -168.72,48.47 -213.58,126 z M 24890.57,20066 c -95.72,168.7 26.91,375.3 220.56,374.02 89.53,-1.79 168.73,-48.47 213.58,-126 l 248.02,-434.14 c 95.72,-168.7 -26.91,-375.3 -220.56,-374.02 -89.53,1.79 -168.72,48.47 -213.58,126 z m 992.1,-1736.57 c -95.72,168.7 26.91,375.3 220.56,374.02 89.53,-1.79 168.73,-48.47 213.58,-126 l 1240.14,-2170.72 c 95.72,-168.7 -26.91,-375.3 -220.56,-374.02 -89.53,1.79 -168.72,48.47 -213.58,126 z m 7652.41,391.58 c 101.85,172.65 353.01,162.92 441.14,-17.35 36.16,-75.65 32.73,-162.03 -9.26,-234.61 L 32707.12,16309.7 c -101.85,-172.65 -353.01,-162.92 -441.14,17.35 -36.16,75.65 -32.73,162.03 9.26,234.61 z m 7707.65,-6562.25 c 196.09,-1.21 314.47,-216.8 210.49,-383.17 -46.95,-73.61 -125.4,-116.83 -212.77,-116.83 l -138.34,0.63 c -196.09,1.21 -314.47,216.8 -210.49,383.17 46.95,73.61 125.4,116.83 212.77,116.83 z m -1638.33,7.46 c 196.09,-1.21 314.47,-216.8 210.49,-383.17 -46.95,-73.61 -125.4,-116.83 -212.77,-116.83 l -499.99,2.27 c -196.09,1.21 -314.47,216.8 -210.49,383.17 46.95,73.61 125.4,116.83 212.77,116.83 z m -1999.97,9.09 c 196.09,-1.21 314.47,-216.8 210.49,-383.17 -46.95,-73.61 -125.4,-116.83 -212.77,-116.83 l -2499.97,11.37 c -196.09,1.21 -314.47,216.8 -210.49,383.17 46.95,73.61 125.4,116.83 212.77,116.83 z M 36018.14,2307.5 c 95.72,-168.7 -26.91,-375.3 -220.56,-374.02 -89.53,1.79 -168.72,48.47 -213.58,126 l -68.63,120.12 c -95.72,168.7 26.91,375.3 220.56,374.02 89.53,-1.79 168.73,-48.47 213.58,-126 z m -812.72,1422.57 c 95.72,-168.7 -26.91,-375.3 -220.56,-374.02 -89.53,1.79 -168.72,48.47 -213.58,126 l -248.02,434.14 c -95.72,168.7 26.91,375.3 220.56,374.02 89.53,-1.79 168.73,-48.47 213.58,-126 z M 34037.27,9876.4 c -119.19,69.03 -271.79,28.37 -340.82,-90.82 -69.03,-119.19 -28.37,-271.79 90.82,-340.82 l 5315.95,-3069.17 c 119.19,-69.03 271.79,-28.37 340.82,90.82 69.03,119.19 28.37,271.79 -90.82,340.82 z m -450.71,5003.45 c -119.19,-68.49 -160.29,-220.65 -91.8,-339.84 68.49,-119.19 220.65,-160.29 339.84,-91.8 l 5315.95,3069.16 c 119.19,68.49 160.29,220.65 91.8,339.84 -68.49,119.19 -220.65,160.29 -339.84,91.8 z m -4649.39,2353.81 c 0,-138.07 111.93,-250 250,-250 138.07,0 250,111.93 250,250 v 3421.94 c 0,138.07 -111.93,250 -250,250 -138.07,0 -250,-111.93 -250,-250 z M 24689.85,14289.8 c 119.19,-69.03 271.79,-28.37 340.82,90.82 69.03,119.19 28.37,271.79 -90.82,340.82 l -5315.95,3069.17 c -119.19,69.03 -271.79,28.37 -340.82,-90.82 -69.03,-119.19 -28.37,-271.79 90.82,-340.82 z m 425.41,-5150.56 c 119.19,68.49 160.29,220.65 91.8,339.84 -68.49,119.19 -220.65,160.29 -339.84,91.8 L 19551.27,6501.72 c -119.19,-68.49 -160.29,-220.65 -91.8,-339.84 68.49,-119.19 220.65,-160.29 339.84,-91.8 z m 4674.69,-2206.7 c 0,138.07 -111.93,250 -250,250 -138.07,0 -250,-111.93 -250,-250 V 794.21 c 0,-138.07 111.93,-250 250,-250 138.07,0 250,111.93 250,250 z m 585.67,1660.98 c 99.11,77.59 167.02,170.56 208.79,270.7 52.92,126.87 61.97,260.58 38.29,386 -21.85,115.72 -73.09,225.88 -143.63,315.96 -71.32,91.11 -163.82,164.8 -268.9,208.63 -321.25,134.01 -593.94,360.76 -784.46,646.67 -184.91,277.49 -292.7,611.53 -292.7,971.49 0,483.82 196.09,921.83 513.1,1238.84 317.01,317.01 755.02,513.1 1238.84,513.1 349.18,0 672.94,-100.44 943.83,-273.69 280.28,-179.26 506.47,-437.28 648.01,-743.44 102.4,-221.51 216.3,-353.84 333.19,-416.73 263.91,-142.01 467.01,-66.69 615.16,171.65 53.24,85.65 88.52,198.71 107.44,327.5 49.38,336.03 4.54,933.29 -118.13,1292.87 -264.71,775.98 -764.27,1439.39 -1413.01,1905.57 -634.63,456.04 -1409.72,723.47 -2245.38,723.47 -1065.1,0 -2029.41,-431.75 -2727.43,-1129.79 -698.04,-698.02 -1129.79,-1662.34 -1129.79,-2727.43 0,-930.7 331.05,-1785.32 882.08,-2452.76 560.62,-679.05 1348.35,-1163.01 2246.22,-1334.89 141.1,-27.01 362.34,-65.37 590,-74.51 278.11,-11.17 561.89,26.85 758.48,180.79 z m -1615.53,1387.34 c 206.05,-309.22 477.64,-570.88 794.82,-765.15 -139.3,12.21 -280.16,37.22 -377.77,55.91 -712.65,136.43 -1337.06,519.54 -1780.6,1056.77 -435.85,527.92 -697.7,1206.02 -697.7,1946.5 0,844.26 342.18,1608.59 895.41,2161.81 553.22,553.23 1317.54,895.41 2161.81,895.41 665.27,0 1279.45,-210.83 1779.76,-570.35 514.91,-370.01 911.71,-897.42 1122.37,-1514.95 3.36,-9.84 6.62,-19.95 9.81,-30.27 -125.15,122.2 -262.89,231.76 -411.1,326.56 -397.7,254.35 -868.59,401.81 -1371.95,401.81 -704.65,0 -1342.65,-285.67 -1804.46,-747.48 -461.83,-461.83 -747.48,-1099.81 -747.48,-1804.46 0,-521.57 157.27,-1007.22 427.08,-1412.11 z m 3740.48,23657.98 c 66.34,-120.81 218.06,-164.97 338.87,-98.63 120.81,66.34 164.97,218.06 98.63,338.87 -200.33,363.76 -356.94,720.5 -363.98,997.19 -5.34,209.46 99.62,377.52 392.9,462.38 132.13,38.29 208.21,176.47 169.92,308.6 -38.29,132.13 -176.47,208.21 -308.6,169.92 -562.78,-162.84 -763.51,-511.14 -752.26,-952.62 9.53,-374.27 191.82,-803.17 424.52,-1225.71 z M 25710.24,22832.28 c -4.78,-1.24 -9.57,-2.46 -14.37,-3.63 -6.63,2.11 -1.04,18.63 -22.45,37.57 -40.87,36.14 -72.12,76.05 -81.79,107.01 l -0.52,2.41 -0.19,-0.02 -0.6,2.3 -0.26,2.62 1.05,-4.9 -1.06,4.92 -223.11,2232.11 -0.45,-0.04 c -1.43,14.4 -3.67,28.85 -6.73,43.31 162.67,-134 264.77,-302.67 323.5,-519.43 114.47,-422.44 91.61,-1036.02 26.98,-1904.23 z m 8450.67,14676.47 c -37.46,133.74 -75.65,266.25 -113.59,397.91 -61.34,212.88 -121.99,423.33 -177.19,632.5 428.96,-147.48 758.04,-317.28 1030.32,-506.51 324.72,-225.68 577.04,-484.83 824.44,-768.62 84.54,-96.95 -3.81,-153.73 -101.95,-120.8 -358.76,120.42 -876.48,294.21 -1462.03,365.52 z m -4720.5,-617.95 c 179.39,-7.48 418.13,-10.81 771.74,-15.72 l 179.16,-2.53 c 27.59,-504.06 78.95,-1037.56 168.69,-1554.77 174.05,-1003.1 495.13,-1952.98 1068.2,-2559 -45.08,30.18 -90.46,60.72 -136.15,91.48 -545.95,367.51 -1131.77,761.82 -1859.02,992.34 -56.87,833.45 -283.85,1920.47 -438.34,2657.39 86.81,127.42 168.43,257.88 245.72,390.81 z m 924.55,779.14 -143.43,2.02 c -145.82,2.03 -270.64,3.77 -378.86,5.66 187.5,412.32 351.78,836.83 514.53,1259.44 13.68,-96.93 19.68,-196.06 16.65,-297.98 -8.1,-272.63 -13.53,-603.47 -8.89,-969.14 z m -1898.1,-5099.53 -11.36,47.48 c -34.08,142.39 -67.91,283.65 -110.83,473.57 -48.32,214.87 -261.69,349.88 -476.56,301.56 -214.87,-48.32 -349.88,-261.69 -301.56,-476.56 28.09,-124.28 70.88,-303.02 113.95,-482.95 179.62,-750.3 365.71,-1527.69 286.67,-2105 -29.34,-218.32 123.86,-419.1 342.18,-448.44 178.76,-24.02 345.75,74.36 416.5,230.64 604.94,-206.33 1135.09,-535.97 1631.95,-844.94 663.57,-412.63 1273.75,-792.08 1992.24,-874.07 132.63,-15.13 314.95,-31.65 487.45,-47.28 796.77,-72.16 1325.79,-120.08 1880.33,-902.33 58.65,-82.73 88.16,-144.55 93.94,-186.98 -33.5,-17.13 -89.06,-25.67 -162.32,-24.21 -1085.13,21.69 -2149.78,222.5 -3183.85,547.03 -1039.83,326.34 -2047.62,778.24 -3013.71,1299.53 -199.18,107.47 -392.78,217.82 -574.82,332.61 -183.83,115.92 -357.22,235.98 -514.68,361.59 -24.79,570.27 -64.84,1165.22 -104.86,1759.71 -36.07,535.92 -72.13,1071.48 -95.4,1549.13 -56.47,1159.24 562.32,1793.49 1342.25,2592.89 l 38.06,39.05 c 176.27,-877.84 361.7,-1940.3 294.34,-2472.88 -27.61,-218.32 126.99,-417.7 345.31,-445.31 173.32,-21.92 334.69,71.01 407.67,219.48 536.71,-205.46 1012.22,-525.51 1458.54,-825.97 618,-416.01 1186.29,-798.56 1860.83,-881.88 113.72,-14.04 287.84,-31.13 452.58,-47.28 722.13,-70.8 1201.58,-117.82 1707.15,-889.83 59.75,-91.22 88.11,-159.6 91.23,-206.53 -26.09,-12.27 -66.81,-18.3 -119.65,-17.16 -995.9,21.55 -1973.49,221.21 -2923.34,543.91 -955.21,324.52 -1883.68,775.47 -2775.52,1296.4 -184.72,107.87 31.36,-18.92 -123.37,70.83 -285.4,165.57 -472.42,274.07 -729.67,496.74 -7.07,6.12 -14.31,11.91 -21.67,17.45 z"
       id="path6" /></g><text
     x="-18508.223"
     y="59470.789"
     fill="#000000"
     font-size="5px"
     font-weight="bold"
     font-family="'Helvetica Neue', Helvetica, Arial-Unicode, Arial, Sans-serif"
     id="text10">Created by Olena Panasovska</text><text
     x="-18508.223"
     y="59475.789"
     fill="#000000"
     font-size="5px"
     font-weight="bold"
     font-family="'Helvetica Neue', Helvetica, Arial-Unicode, Arial, Sans-serif"
     id="text12">from the Noun Project</text></svg>
