<?xml version="1.0" encoding="UTF-8" standalone="no"?>
<svg
   xmlns:dc="http://purl.org/dc/elements/1.1/"
   xmlns:cc="http://creativecommons.org/ns#"
   xmlns:rdf="http://www.w3.org/1999/02/22-rdf-syntax-ns#"
   xmlns:svg="http://www.w3.org/2000/svg"
   xmlns="http://www.w3.org/2000/svg"
   xmlns:sodipodi="http://sodipodi.sourceforge.net/DTD/sodipodi-0.dtd"
   xmlns:inkscape="http://www.inkscape.org/namespaces/inkscape"
   xml:space="preserve"
   version="1.1"
   style="image-rendering:optimizeQuality;shape-rendering:geometricPrecision;text-rendering:geometricPrecision"
   viewBox="0 0 125.46565 125.00004"
   x="0px"
   y="0px"
   fill-rule="evenodd"
   clip-rule="evenodd"
   id="svg14"
   sodipodi:docname="noun_Idea_2310949.svg"
   width="125.46565"
   height="125.00004"
   inkscape:version="1.0.1 (1.0.1+r74)"><metadata
     id="metadata18"><rdf:RDF><cc:Work
         rdf:about=""><dc:format>image/svg+xml</dc:format><dc:type
           rdf:resource="http://purl.org/dc/dcmitype/StillImage" /><dc:title></dc:title></cc:Work></rdf:RDF></metadata><sodipodi:namedview
     pagecolor="#ffffff"
     bordercolor="#666666"
     borderopacity="1"
     objecttolerance="10"
     gridtolerance="10"
     guidetolerance="10"
     inkscape:pageopacity="0"
     inkscape:pageshadow="2"
     inkscape:window-width="1920"
     inkscape:window-height="980"
     id="namedview16"
     showgrid="false"
     fit-margin-top="0"
     fit-margin-left="0"
     fit-margin-right="0"
     fit-margin-bottom="0"
     inkscape:zoom="0.011013333"
     inkscape:cx="29686.037"
     inkscape:cy="37074.632"
     inkscape:window-x="0"
     inkscape:window-y="27"
     inkscape:window-maximized="1"
     inkscape:current-layer="svg14" /><defs
     id="defs4"><style
       type="text/css"
       id="style2">
   
    .fil0 {fill:black;fill-rule:nonzero}
   
  </style></defs><g
     id="g8"
     transform="matrix(0.00211318,0,0,0.00211318,-0.66346091,-0.89887921)"><path
       class="fil0"
       d="m 18082,41072 c -5,14 -11,28 -18,41 -305,705 -668,1404 -1005,2053 -228,440 -444,856 -627,1250 -93,200 -331,287 -531,194 -200,-93 -287,-331 -194,-531 154,-332 351,-714 561,-1119 -250,60 -519,60 -823,13 -808,-126 -1609,-546 -2509,-1017 -63,-33 -128,-67 -376,-195 -450,-233 -922,-509 -1406,-792 -2901,-1698 -6298,-3685 -10117,1706 -127,179 -375,222 -555,95 -179,-127 -222,-375 -95,-555 4242,-5988 7979,-3802 11170,-1934 466,273 919,538 1368,770 l 380,199 c 839,439 1585,830 2263,936 348,55 610,12 850,-168 286,-216 573,-621 936,-1265 357,-829 621,-1647 633,-2350 4,-250 -27,-463 -108,-639 -76,-164 -202,-305 -396,-428 -484,-307 -1183,-533 -1882,-758 -860,-278 -1719,-555 -2303,-1011 -898,-700 -1140,-1694 166,-3380 17,-25 37,-49 61,-70 67,-61 100,-132 114,-205 19,-98 11,-215 -3,-332 l -14,-116 c -27,-199 -54,-399 -26,-587 64,-426 298,-700 944,-603 147,22 336,65 532,109 77,17 155,35 232,51 l -74,-54 c -248,-181 -491,-359 -662,-547 -45,-49 -85,-102 -121,-158 -100,-159 -151,-333 -140,-508 12,-192 92,-372 256,-521 39,-35 83,-69 135,-101 73,-46 144,-81 214,-116 156,-78 222,-65 138,-193 -85,-131 -182,-221 -325,-387 -407,-471 -814,-943 -674,-1510 55,-223 175,-405 328,-549 166,-156 372,-265 569,-326 555,-171 1122,-234 1672,-295 744,-82 1452,-161 1914,-503 207,-153 389,-330 529,-522 122,-169 210,-346 250,-526 83,-369 195,-696 334,-987 143,-300 312,-562 503,-794 1442,-1742 3280,-2581 5222,-2717 1804,-127 3693,359 5429,1291 1724,925 3300,2293 4492,3940 1730,2389 2658,5367 2071,8441 -176,1367 -677,2718 -1523,3933 v 0 c -1116,1601 -2764,2608 -4525,2941 -1764,334 -3641,-8 -5214,-1104 h -1 c -1574,-1097 -2545,-2740 -2843,-4511 -297,-1767 77,-3661 1192,-5262 v 0 c 852,-1223 2111,-1992 3458,-2247 1348,-255 2784,6 3986,844 1203,838 1946,2095 2173,3449 227,1350 -59,2797 -911,4020 -589,845 -1459,1377 -2390,1553 -933,176 -1926,-4 -2758,-584 -833,-580 -1347,-1450 -1504,-2387 -157,-933 40,-1933 629,-2778 325,-467 807,-761 1322,-858 511,-97 1055,0 1513,313 11,7 22,15 33,23 452,322 732,799 818,1313 86,510 -20,1056 -336,1519 -16,25 -35,49 -57,71 -156,156 -409,156 -566,0 -143,-143 -155,-366 -37,-523 195,-287 261,-623 208,-936 -53,-314 -225,-605 -504,-800 v 0 c -279,-195 -613,-255 -927,-196 -316,60 -612,241 -813,530 -465,668 -621,1456 -498,2190 123,731 524,1409 1173,1862 650,453 1426,594 2155,456 731,-138 1416,-557 1881,-1225 729,-1046 973,-2281 780,-3432 -193,-1148 -822,-2213 -1842,-2924 -1020,-711 -2238,-933 -3383,-716 -1147,217 -2220,874 -2948,1919 -992,1424 -1325,3106 -1061,4674 263,1565 1121,3017 2511,3986 1391,969 3051,1271 4611,976 1562,-295 3024,-1190 4016,-2613 1256,-1802 1677,-3931 1343,-5916 -333,-1982 -1420,-3821 -3181,-5048 -1761,-1227 -3864,-1610 -5839,-1236 -1977,374 -3828,1506 -5084,3308 v 0 c -1519,2180 -2029,4756 -1625,7158 403,2399 1719,4625 3850,6111 v 0 c 1569,1093 3360,1633 5158,1655 1849,22 3707,-501 5344,-1532 9,-6 18,-11 27,-15 v 0 c 795,-421 2080,-1410 3121,-2513 773,-820 1400,-1688 1559,-2397 66,-295 200,-572 382,-823 187,-258 428,-492 700,-694 650,-481 1514,-613 2410,-749 580,-88 1174,-179 1689,-368 147,-218 -143,-563 -434,-909 -194,-231 -388,-462 -519,-704 -230,-427 -16,-636 230,-875 l 4,-4 c 4,-4 9,-8 13,-12 v 0 c 109,-97 230,-157 351,-217 53,-26 106,-52 142,-75 4,-3 9,-6 13,-9 -3,-6 -7,-13 -13,-22 -9,-13 -21,-29 -36,-46 -118,-130 -329,-284 -543,-441 -341,-249 -689,-504 -867,-801 -52,-86 -67,-185 -50,-277 l 2,-11 c 64,-324 288,-457 591,-485 l 1576,-428 c -2,-106 4,-215 26,-327 43,-219 141,-430 334,-617 924,-1197 829,-1844 300,-2257 -471,-367 -1264,-623 -2057,-879 -751,-243 -1503,-485 -2066,-843 -329,-209 -552,-464 -693,-768 -135,-292 -186,-618 -180,-986 15,-829 308,-1747 699,-2658 5,-14 11,-28 18,-41 305,-705 668,-1404 1005,-2053 228,-440 444,-856 627,-1250 93,-200 331,-287 531,-194 200,93 287,331 194,531 -154,332 -351,714 -561,1119 250,-60 519,-60 823,-13 808,126 1609,546 2509,1017 64,33 129,68 376,196 450,233 922,509 1406,792 2915,1706 6331,3704 10175,-1788 126,-180 374,-224 555,-98 180,126 224,374 98,555 -4266,6094 -8023,3896 -11231,2019 -466,-273 -919,-538 -1368,-770 l -380,-199 c -839,-439 -1585,-830 -2263,-936 -348,-55 -610,-12 -850,168 -286,216 -573,621 -936,1265 -357,829 -621,1647 -633,2350 -4,250 27,463 108,639 76,164 202,305 396,428 484,307 1183,533 1882,758 860,278 1719,555 2303,1011 898,700 1140,1694 -166,3380 -17,25 -37,49 -61,70 -67,61 -100,132 -114,205 -19,98 -11,215 3,332 l 14,116 c 27,199 54,399 26,587 -64,426 -298,700 -944,603 -147,-22 -336,-65 -532,-109 -77,-17 -155,-35 -232,-51 l 74,54 c 248,181 491,359 662,547 45,49 85,102 121,158 100,159 151,333 140,508 -12,192 -92,372 -256,521 -39,35 -83,69 -135,101 -73,46 -144,81 -214,116 -203,101 -213,87 -84,260 77,103 135,172 262,324 553,658 1106,1316 346,2036 -39,42 -88,76 -145,98 -617,244 -1291,347 -1947,446 -798,121 -1567,238 -2054,599 -207,153 -389,330 -529,522 -122,169 -210,346 -250,526 -194,868 -897,1862 -1756,2772 -1095,1161 -2462,2210 -3320,2667 -1764,1106 -3767,1668 -5763,1644 -1180,-14 -2357,-233 -3478,-665 l -916,2560 c -896,2502 417,3277 2162,4305 63,37 130,77 346,205 407,243 887,495 1379,755 3013,1588 6500,3426 4792,9039 -64,211 -286,329 -497,266 -211,-64 -329,-286 -266,-497 1516,-4982 -1658,-6656 -4401,-8101 -482,-254 -951,-501 -1413,-776 l -343,-202 c -2070,-1220 -3629,-2139 -2512,-5261 l 934,-2609 c -472,-227 -932,-494 -1376,-802 -11,-7 -22,-15 -32,-23 -2305,-1613 -3728,-4025 -4165,-6624 -436,-2595 111,-5376 1745,-7729 7,-11 15,-22 23,-33 1379,-1970 3410,-3209 5581,-3619 2179,-412 4499,10 6443,1365 672,468 1255,1017 1745,1625 -265,-505 -567,-991 -902,-1453 -1122,-1550 -2604,-2836 -4223,-3706 -1607,-863 -3346,-1313 -4997,-1197 -1730,121 -3370,871 -4660,2430 -152,184 -285,391 -397,625 -116,243 -209,515 -277,818 -66,295 -200,572 -382,823 -187,258 -428,492 -700,694 -638,472 -1449,562 -2302,657 -514,57 -1046,116 -1525,264 -91,28 -184,77 -256,144 -48,45 -85,99 -100,158 -41,168 230,483 502,798 199,231 398,461 533,706 235,427 19,638 -227,877 -108,106 -114,116 -56,189 l 860,1259 c 50,59 95,119 132,180 52,86 67,185 50,277 l -2,11 c -105,531 -638,548 -1247,436 -158,-29 -318,-65 -472,-100 -169,-38 -331,-75 -476,-97 -34,-5 -29,-106 -34,-69 -12,82 7,222 26,362 11,79 14,94 17,125 23,184 34,379 -6,582 -43,219 -141,430 -334,617 -924,1197 -829,1844 -300,2257 471,367 1264,623 2057,879 751,243 1503,485 2066,843 329,209 552,464 693,768 135,292 186,618 180,986 -15,829 -308,1747 -699,2658 z M 34237,17859 c -74,208 -303,316 -511,242 -208,-74 -316,-303 -242,-511 l 1057,-2953 c 896,-2502 -418,-3277 -2162,-4305 -62,-37 -124,-73 -346,-205 -407,-243 -887,-495 -1379,-755 -2940,-1550 -6331,-3337 -4905,-8650 57,-213 276,-340 489,-283 213,57 340,276 283,489 -1262,4699 1827,6326 4505,7738 482,254 951,501 1413,776 l 343,202 c 2070,1220 3629,2139 2512,5261 l -1057,2953 z"
       id="path6" /></g><text
     x="-313.96326"
     y="59589.633"
     fill="#000000"
     font-size="5px"
     font-weight="bold"
     font-family="'Helvetica Neue', Helvetica, Arial-Unicode, Arial, Sans-serif"
     id="text10">Created by Olena Panasovska</text><text
     x="-313.96326"
     y="59594.633"
     fill="#000000"
     font-size="5px"
     font-weight="bold"
     font-family="'Helvetica Neue', Helvetica, Arial-Unicode, Arial, Sans-serif"
     id="text12">from the Noun Project</text></svg>
