<?xml version="1.0" encoding="UTF-8" standalone="no"?>
<svg
   xmlns:dc="http://purl.org/dc/elements/1.1/"
   xmlns:cc="http://creativecommons.org/ns#"
   xmlns:rdf="http://www.w3.org/1999/02/22-rdf-syntax-ns#"
   xmlns:svg="http://www.w3.org/2000/svg"
   xmlns="http://www.w3.org/2000/svg"
   xmlns:sodipodi="http://sodipodi.sourceforge.net/DTD/sodipodi-0.dtd"
   xmlns:inkscape="http://www.inkscape.org/namespaces/inkscape"
   xml:space="preserve"
   version="1.1"
   style="image-rendering:optimizeQuality;shape-rendering:geometricPrecision;text-rendering:geometricPrecision"
   viewBox="0 0 125.00013 142.21202"
   x="0px"
   y="0px"
   fill-rule="evenodd"
   clip-rule="evenodd"
   id="svg14"
   sodipodi:docname="reading.svg"
   width="125.00013"
   height="142.21202"
   inkscape:version="1.0.2 (1.0.2+r75+1)"><metadata
     id="metadata18"><rdf:RDF><cc:Work
         rdf:about=""><dc:format>image/svg+xml</dc:format><dc:type
           rdf:resource="http://purl.org/dc/dcmitype/StillImage" /><dc:title></dc:title></cc:Work></rdf:RDF></metadata><sodipodi:namedview
     pagecolor="#ffffff"
     bordercolor="#666666"
     borderopacity="1"
     objecttolerance="10"
     gridtolerance="10"
     guidetolerance="10"
     inkscape:pageopacity="0"
     inkscape:pageshadow="2"
     inkscape:window-width="1920"
     inkscape:window-height="980"
     id="namedview16"
     showgrid="false"
     fit-margin-top="0"
     fit-margin-left="0"
     fit-margin-right="0"
     fit-margin-bottom="0"
     inkscape:zoom="0.011013333"
     inkscape:cx="24954.602"
     inkscape:cy="35894"
     inkscape:window-x="0"
     inkscape:window-y="27"
     inkscape:window-maximized="1"
     inkscape:current-layer="svg14"
     inkscape:document-rotation="0" /><defs
     id="defs4"><style
       type="text/css"
       id="style2">
   
    .fil0 {fill:black;fill-rule:nonzero}
   
  </style></defs><g
     id="g8"
     transform="matrix(0.00250435,0,0,0.00250435,-12.635444,-4.0219861)"><path
       class="fil0"
       d="m 27432,31852 c 631,592 1318,934 2034,1026 -9,-10 -18,-20 -26,-31 -2412,-3182 -5258,-5662 -8839,-7250 -3491,-1548 -7688,-2252 -12872,-1936 l 87,540 c 4342,-5 7908,683 10919,1851 3545,1376 6313,3413 8663,5767 12,10 23,21 33,32 z M 18668,6395 c 461,0 879,187 1181,489 302,302 489,720 489,1181 0,461 -187,879 -489,1181 -51,51 -105,98 -162,142 l 599,1134 c 915,-640 1925,-1205 3004,-1671 l -913,-2317 c -96,17 -195,26 -297,26 -461,0 -879,-187 -1181,-489 -302,-302 -489,-720 -489,-1181 0,-461 187,-879 489,-1181 302,-302 720,-489 1181,-489 461,0 879,187 1181,489 302,302 489,720 489,1181 0,461 -187,879 -489,1181 -49,49 -100,94 -155,137 l 923,2343 c 973,-369 1995,-659 3050,-853 l -398,-2777 c -344,-61 -651,-227 -887,-463 -302,-302 -489,-720 -489,-1181 0,-461 187,-879 489,-1181 302,-302 720,-489 1181,-489 461,0 879,187 1181,489 302,302 489,720 489,1181 0,461 -187,879 -489,1181 -187,187 -417,329 -675,411 l 387,2702 c 106,-15 213,-28 319,-41 1290,-151 2619,-158 3958,8 l 383,-2670 c -258,-82 -488,-224 -675,-411 -302,-302 -489,-720 -489,-1181 0,-461 187,-879 489,-1181 302,-302 720,-489 1181,-489 461,0 879,187 1181,489 302,302 489,720 489,1181 0,461 -187,879 -489,1181 -237,237 -544,403 -887,463 l -392,2735 c 1022,178 2046,459 3060,855 l 907,-2303 c -54,-42 -106,-88 -155,-137 -302,-302 -489,-720 -489,-1181 0,-461 187,-879 489,-1181 302,-302 720,-489 1181,-489 461,0 879,187 1181,489 302,302 489,720 489,1181 0,461 -187,879 -489,1181 -302,302 -720,489 -1181,489 -101,0 -200,-9 -297,-26 l -900,2285 c 741,332 1475,728 2197,1192 262,169 523,346 782,533 l 611,-1156 c -57,-44 -111,-92 -162,-142 -302,-302 -489,-720 -489,-1181 0,-461 187,-879 489,-1181 302,-302 720,-489 1181,-489 461,0 879,187 1181,489 302,302 489,720 489,1181 0,461 -187,879 -489,1181 -302,302 -720,489 -1181,489 -98,0 -193,-8 -286,-25 l -699,1322 c 989,783 1946,1708 2858,2786 142,168 121,420 -47,563 -168,142 -420,121 -563,-47 -1291,-1527 -2674,-2731 -4107,-3651 -1933,-1242 -3957,-1970 -5967,-2284 -34,4 -69,4 -105,-1 -37,-5 -73,-16 -106,-30 -1367,-194 -2726,-198 -4042,-44 -3322,390 -6373,1787 -8616,3683 -972,822 -1791,1736 -2411,2702 -119,186 -366,239 -552,120 -186,-119 -239,-366 -120,-552 664,-1032 1535,-2007 2567,-2880 159,-135 322,-267 489,-396 l -682,-1290 c -93,16 -189,25 -286,25 -461,0 -879,-187 -1181,-489 -302,-302 -489,-720 -489,-1181 0,-461 187,-879 489,-1181 302,-302 720,-489 1181,-489 z m 615,1055 c -157,-157 -375,-255 -615,-255 -240,0 -458,97 -615,255 -157,157 -255,375 -255,615 0,240 97,458 255,615 157,157 375,255 615,255 240,0 458,-97 615,-255 157,-157 255,-375 255,-615 0,-240 -97,-458 -255,-615 z m 3413,-3175 c -157,-157 -375,-255 -615,-255 -240,0 -458,97 -615,255 -157,157 -255,375 -255,615 0,240 97,458 255,615 157,157 375,255 615,255 240,0 458,-97 615,-255 157,-157 255,-375 255,-615 0,-240 -97,-458 -255,-615 z m 4895,-1614 c -157,-157 -375,-255 -615,-255 -240,0 -458,97 -615,255 -157,157 -255,375 -255,615 0,240 97,458 255,615 157,157 375,255 615,255 240,0 458,-97 615,-255 157,-157 255,-375 255,-615 0,-240 -97,-458 -255,-615 z m 5444,-255 c -240,0 -458,97 -615,255 -157,157 -255,375 -255,615 0,240 97,458 255,615 157,157 375,255 615,255 240,0 458,-97 615,-255 157,-157 255,-375 255,-615 0,-240 -97,-458 -255,-615 -157,-157 -375,-255 -615,-255 z m 4895,1614 c -240,0 -458,97 -615,255 -157,157 -255,375 -255,615 0,240 97,458 255,615 157,157 375,255 615,255 240,0 458,-97 615,-255 157,-157 255,-375 255,-615 0,-240 -97,-458 -255,-615 -157,-157 -375,-255 -615,-255 z m 3413,3175 c -240,0 -458,97 -615,255 -157,157 -255,375 -255,615 0,240 97,458 255,615 157,157 375,255 615,255 240,0 458,-97 615,-255 157,-157 255,-375 255,-615 0,-240 -97,-458 -255,-615 -157,-157 -375,-255 -615,-255 z m -11350,4994 c 641,0 1221,260 1641,680 420,420 680,1000 680,1641 0,641 -260,1221 -680,1641 -420,420 -1000,680 -1641,680 -641,0 -1221,-260 -1641,-680 -420,-420 -680,-1000 -680,-1641 0,-641 260,-1221 680,-1641 420,-420 1000,-680 1641,-680 z m 12018,2280 c 153,160 153,400 0,559 -819,830 -1654,1558 -2497,2190 -618,464 -1241,875 -1865,1238 l 499,1007 c 98,198 16,437 -181,534 -198,98 -437,16 -534,-181 l -483,-974 c -955,499 -1912,887 -2863,1173 l 400,1774 c 48,215 -87,428 -302,477 -215,48 -428,-87 -477,-302 l -392,-1738 c -987,243 -1964,379 -2922,420 l 5,2347 c 0,220 -178,398 -398,398 -220,0 -398,-178 -398,-398 l -5,-2333 c -451,-5 -897,-30 -1337,-75 -543,-55 -1077,-140 -1599,-252 l -368,1632 c -48,215 -262,350 -477,302 -215,-48 -350,-262 -302,-477 l 371,-1644 c -1029,-278 -2007,-661 -2920,-1128 l -396,799 c -98,198 -337,279 -534,181 -198,-98 -279,-337 -181,-534 l 411,-828 c -1081,-627 -2056,-1373 -2894,-2200 -464,-458 -888,-943 -1267,-1447 l -179,-239 179,-239 c 378,-504 802,-989 1267,-1447 2203,-2173 5348,-3789 8890,-4150 3538,-360 7470,530 11252,3366 843,632 1678,1360 2497,2190 z m -849,280 c -702,-688 -1412,-1297 -2126,-1833 -1876,-1407 -3789,-2312 -5664,-2807 192,147 374,307 544,478 1004,1004 1625,2391 1625,3924 0,1532 -621,2920 -1625,3924 -536,536 -1181,963 -1899,1244 2302,-377 4688,-1349 7019,-3097 714,-535 1424,-1144 2126,-1833 z M 26844,9941 c -2736,582 -5144,1946 -6912,3690 -364,359 -699,732 -1004,1118 305,385 641,759 1004,1118 870,858 1896,1625 3039,2251 9,5 18,10 27,15 1565,853 3350,1444 5260,1650 -835,-274 -1582,-741 -2189,-1349 -1004,-1004 -1625,-2391 -1625,-3924 0,-1532 621,-2920 1625,-3924 238,-238 497,-454 774,-646 z m 6507,1211 c -859,-859 -2047,-1391 -3358,-1391 -1311,0 -2499,532 -3358,1391 -859,859 -1391,2047 -1391,3358 0,1311 532,2499 1391,3358 859,859 2047,1391 3358,1391 1311,0 2499,-532 3358,-1391 859,-859 1391,-2047 1391,-3358 0,-1311 -532,-2499 -1391,-3358 z m -3466,19151 c 37,-12 77,-18 118,-19 4,0 8,0 12,0 1506,-3331 3668,-5873 6659,-7762 3237,-2045 7434,-3316 12810,-3991 219,-27 419,129 445,348 2,16 3,32 3,48 v 0 1964 c 385,-13 775,-21 1172,-25 220,-2 400,175 402,395 0,20 -1,39 -4,58 h 1 l -207,1492 c 481,18 970,44 1468,79 220,16 386,207 370,427 -1,21 -4,41 -9,60 l -134,830 c 519,11 1049,31 1590,61 220,12 389,200 377,420 v 6 l -529,29793 c -3,220 -185,396 -405,392 -15,0 -30,-1 -45,-3 v 0 c -3657,-487 -6985,-686 -10352,-330 -3351,354 -6751,1262 -10571,2988 -768,522 -1907,858 -3091,858 -1030,0 -2105,-253 -3014,-856 -3821,-1727 -7223,-2635 -10574,-2989 -3368,-356 -6695,-157 -10352,330 v 0 c -15,2 -30,3 -45,3 -220,3 -401,-172 -405,-392 L 5046,24695 v -6 c -12,-220 157,-408 377,-420 541,-30 1071,-50 1590,-61 l -134,-830 c -4,-20 -7,-40 -9,-60 -16,-220 150,-411 370,-427 498,-35 987,-62 1468,-79 l -207,-1493 h 1 c -3,-19 -4,-38 -4,-58 2,-220 182,-397 402,-395 397,4 787,12 1172,24 v -1964 0 c 0,-16 1,-32 3,-48 27,-219 226,-375 445,-348 5374,674 9489,1826 12648,3753 3062,1868 5212,4452 6720,8019 z M 26738,56570 V 32287 C 24480,30045 21827,28107 18448,26796 15085,25491 10994,24803 5847,25048 l 514,28982 c 3543,-452 6795,-625 10095,-276 3279,347 6597,1206 10282,2815 z M 27921,28181 C 26605,25991 24916,24288 22749,22966 19784,21157 15911,20051 10868,19383 v 1541 c 4510,220 8170,1054 11180,2561 2317,1161 4245,2717 5872,4695 z m 961,2709 C 27025,27915 24701,25705 21692,24198 18464,22581 14439,21765 9353,21671 l 156,1121 c 4492,-71 8231,661 11414,2073 3137,1391 5727,3439 7959,6025 z m 1622,1949 c 681,-132 1385,-471 2094,-1016 2351,-2356 5119,-4394 8666,-5770 3011,-1168 6577,-1856 10919,-1851 l 87,-540 c -5185,-316 -9392,381 -12892,1923 -3591,1582 -6447,4055 -8859,7237 -5,6 -10,13 -15,19 z m 2758,-552 v 24283 c 3685,-1609 7003,-2469 10282,-2815 3300,-349 6552,-176 10095,276 l 514,-28982 c -5147,-245 -9237,443 -12601,1748 -3379,1311 -6031,3249 -8290,5491 z m 3836,-9090 c -2226,1406 -3973,3195 -5317,5428 1678,-2115 3686,-3790 6117,-5035 3033,-1554 6716,-2434 11234,-2664 v -1543 c -5045,673 -8991,1892 -12033,3814 z m 1162,1103 c -2825,1447 -5056,3504 -6853,6192 2160,-2409 4658,-4321 7650,-5639 3192,-1406 6940,-2133 11434,-2060 l 156,-1121 c -5086,97 -9135,962 -12387,2629 z m -8399,9402 c -815,0 -1597,-248 -2323,-743 v 24009 c 733,440 1593,626 2426,626 954,0 1861,-242 2499,-625 V 32887 c -875,543 -1751,815 -2601,815 z"
       id="path6" /></g><text
     x="-5045.3984"
     y="58409"
     fill="#000000"
     font-size="5px"
     font-weight="bold"
     font-family="'Helvetica Neue', Helvetica, Arial-Unicode, Arial, Sans-serif"
     id="text10">Created by Olena Panasovska</text><text
     x="-5045.3984"
     y="58414"
     fill="#000000"
     font-size="5px"
     font-weight="bold"
     font-family="'Helvetica Neue', Helvetica, Arial-Unicode, Arial, Sans-serif"
     id="text12">from the Noun Project</text></svg>
