<?xml version="1.0" encoding="UTF-8" standalone="no"?>
<svg
   xmlns:dc="http://purl.org/dc/elements/1.1/"
   xmlns:cc="http://creativecommons.org/ns#"
   xmlns:rdf="http://www.w3.org/1999/02/22-rdf-syntax-ns#"
   xmlns:svg="http://www.w3.org/2000/svg"
   xmlns="http://www.w3.org/2000/svg"
   xmlns:sodipodi="http://sodipodi.sourceforge.net/DTD/sodipodi-0.dtd"
   xmlns:inkscape="http://www.inkscape.org/namespaces/inkscape"
   xml:space="preserve"
   version="1.1"
   style="image-rendering:optimizeQuality;shape-rendering:geometricPrecision;text-rendering:geometricPrecision"
   viewBox="0 0 114.62189 125.00003"
   x="0px"
   y="0px"
   fill-rule="evenodd"
   clip-rule="evenodd"
   id="svg14"
   sodipodi:docname="noun_sprout_2465329.svg"
   width="114.62189"
   height="125.00003"
   inkscape:version="1.0.1 (3bc2e813f5, 2020-09-07)"><metadata
     id="metadata18"><rdf:RDF><cc:Work
         rdf:about=""><dc:format>image/svg+xml</dc:format><dc:type
           rdf:resource="http://purl.org/dc/dcmitype/StillImage" /><dc:title></dc:title></cc:Work></rdf:RDF></metadata><sodipodi:namedview
     pagecolor="#ffffff"
     bordercolor="#666666"
     borderopacity="1"
     objecttolerance="10"
     gridtolerance="10"
     guidetolerance="10"
     inkscape:pageopacity="0"
     inkscape:pageshadow="2"
     inkscape:window-width="1920"
     inkscape:window-height="1017"
     id="namedview16"
     showgrid="false"
     fit-margin-top="0"
     fit-margin-left="0"
     fit-margin-right="0"
     fit-margin-bottom="0"
     inkscape:zoom="0.011333333"
     inkscape:cx="25211.633"
     inkscape:cy="34995.178"
     inkscape:window-x="-8"
     inkscape:window-y="-8"
     inkscape:window-maximized="1"
     inkscape:current-layer="svg14" /><defs
     id="defs4"><style
       type="text/css"
       id="style2">
   
    .fil0 {fill:black;fill-rule:nonzero}
   
  </style></defs><g
     id="g8"
     transform="matrix(0.00227309,0,0,0.00227309,-10.884388,-5.6936849)"><path
       class="fil0"
       d="m 18884,29951 c 1164,-394 2479,-508 3738,-333 311,43 619,104 921,183 1502,-3099 1456,-5820 678,-8094 -209,-283 -407,-477 -597,-608 -181,-125 -354,-189 -522,-215 -674,-106 -1289,-115 -1871,-123 -1807,-26 -3324,-48 -5518,-2576 -901,-1038 -1805,-2374 -2601,-3728 -932,-1585 -1719,-3203 -2181,-4399 -23,-51 -35,-108 -34,-167 3,-220 185,-396 405,-392 2397,42 6589,384 9722,1751 2138,933 3796,2343 4124,4458 158,1018 40,2022 -78,3026 -107,913 -214,1825 -100,2695 837,2431 904,5330 -660,8617 55,21 110,42 164,65 554,-1336 1286,-2637 2160,-3907 6,-10 12,-19 19,-29 l 34,-48 c 57,-83 115,-165 173,-248 469,-684 834,-1327 1124,-1941 330,-700 562,-1362 741,-2008 l 18,-64 c 1269,-4585 2646,-9558 5406,-13541 1558,-2249 2675,-2263 4866,-2291 2241,-29 5697,-73 12258,-2915 1282,-555 2390,-705 3055,-565 291,61 521,180 674,349 187,207 255,462 185,756 -86,360 -412,785 -1036,1237 -1947,1411 -4107,2871 -6356,4392 -7371,4984 -15703,10618 -20268,17029 -64,94 -131,189 -199,284 -868,1254 -1591,2538 -2132,3852 v 1 c 264,146 516,309 754,490 677,516 1238,1140 1690,1850 1429,2248 1759,5361 1181,8625 -573,3230 -2037,6622 -4205,9467 -1355,1779 -2986,3346 -4847,4529 -1654,1051 -3779,1811 -5872,2022 -1878,189 -3738,-63 -5228,-939 -1758,-1034 -2856,-2460 -3420,-4125 -599,-1770 -587,-3800 -119,-5907 463,-2079 1372,-4236 2576,-6284 2761,-4696 7095,-8849 11179,-10232 z m -752,-11939 -55,497 -497,-55 55,-497 z m 3976,438 -55,497 -497,-55 55,-497 z m -1988,-219 -55,497 -497,-55 55,-497 z m 1566,-755 c -12,-7 -24,-16 -34,-26 -404,-360 -900,-584 -1402,-709 -644,-161 -1295,-160 -1778,-77 -478,83 -940,215 -1383,396 -312,127 -613,278 -902,451 43,51 87,102 130,152 1960,2258 3313,2278 4925,2301 610,9 1254,18 1983,133 112,18 226,45 340,84 -528,-1015 -1186,-1919 -1878,-2705 z m -5819,-355 c 331,-203 676,-378 1034,-524 475,-194 973,-336 1487,-425 539,-93 1265,-94 1981,84 60,15 119,31 179,48 -1218,-1138 -2382,-1903 -2992,-2250 -192,-109 -259,-352 -150,-544 109,-192 352,-259 544,-150 1188,675 4374,2861 6222,6263 29,-327 67,-654 106,-980 112,-955 224,-1910 84,-2813 -278,-1793 -1750,-3017 -3655,-3848 -2768,-1208 -6428,-1584 -8812,-1669 458,1082 1129,2420 1906,3742 640,1088 1349,2162 2068,3067 z M 49536,4689 c 206,635 262,1303 -2,2022 -79,215 -186,433 -328,654 1575,-1070 3084,-2109 4474,-3117 456,-331 683,-591 726,-774 5,-21 6,-34 2,-37 -37,-41 -121,-76 -246,-102 -527,-111 -1455,29 -2577,515 -719,312 -1402,590 -2051,840 z m -2154,3842 c 947,-717 1457,-1376 1683,-1992 215,-585 170,-1140 3,-1673 -560,208 -1095,394 -1605,560 311,652 506,1283 374,1999 -64,351 -208,716 -456,1106 z m -2092,1487 c 13,-18 28,-34 46,-49 1318,-1079 1878,-1906 2012,-2634 111,-603 -76,-1163 -363,-1756 -3858,1199 -6253,1230 -7961,1251 -927,12 -1634,21 -2267,243 884,1347 1777,2864 2037,4484 181,1128 55,2296 -591,3473 2320,-1740 4730,-3409 7088,-5012 z m -12036,1369 c 556,795 1305,2354 1197,4305 -52,933 -298,1957 -854,3028 54,-47 109,-94 163,-141 8,-12 17,-24 28,-35 1560,-1656 1986,-3250 1807,-4753 -160,-1345 -802,-2631 -1553,-3828 -278,464 -539,939 -787,1424 z m -1087,8609 c 2,-3 5,-7 7,-10 1231,-1550 1706,-3030 1778,-4321 91,-1645 -469,-2983 -955,-3763 -1559,3213 -2553,6801 -3487,10176 l -18,64 c -71,257 -150,516 -239,778 902,-995 1879,-1970 2914,-2924 z m 4650,-3908 c 1395,-1516 1713,-3021 1484,-4452 -248,-1550 -1136,-3035 -2005,-4354 -496,280 -967,739 -1492,1496 -162,234 -319,472 -472,713 840,1307 1579,2728 1759,4242 134,1124 -39,2290 -700,3486 469,-381 945,-758 1427,-1132 z M 11701,51711 c -13,137 -135,238 -271,225 -137,-13 -238,-135 -225,-271 80,-846 359,-1622 764,-2287 443,-728 1036,-1324 1681,-1733 116,-74 271,-39 345,77 74,116 39,271 -77,345 -584,370 -1121,910 -1523,1571 -367,604 -621,1308 -693,2074 z m 3269,-4428 c -117,72 -271,36 -343,-81 -72,-117 -36,-271 81,-343 52,-32 72,-41 101,-54 19,-8 43,-19 97,-49 121,-66 273,-22 339,99 66,121 22,273 -99,339 -71,39 -106,55 -132,67 -16,7 -27,12 -44,23 z m 8442,-12424 c 129,-48 272,18 320,146 48,129 -18,272 -146,320 -764,286 -1330,790 -1736,1411 -487,745 -746,1660 -842,2575 -14,137 -136,237 -273,223 -137,-14 -237,-136 -223,-273 103,-986 387,-1979 920,-2796 461,-706 1107,-1280 1980,-1607 z m -2954,5929 c -8,-138 97,-256 234,-264 138,-8 256,97 264,234 2,25 4,36 6,50 6,29 13,67 21,146 15,137 -84,260 -221,275 -137,15 -260,-84 -275,-221 -7,-64 -12,-89 -16,-109 -6,-33 -11,-57 -14,-113 z m -7604,12778 c -30,247 -254,422 -501,392 -247,-30 -422,-254 -392,-501 203,-1656 646,-2764 1220,-3574 579,-816 1275,-1310 1992,-1753 3144,-1942 3314,-4877 3469,-7564 60,-1030 117,-2026 328,-2946 246,-1074 874,-2200 1719,-3060 780,-794 1753,-1368 2795,-1481 247,-26 468,152 494,399 26,247 -152,468 -399,494 -820,89 -1605,562 -2250,1218 -731,743 -1273,1712 -1483,2631 -194,848 -250,1805 -307,2795 -168,2910 -352,6090 -3894,8278 -632,391 -1244,822 -1732,1511 -493,695 -876,1670 -1059,3162 z m 9658,-23157 c -1139,-159 -2325,-56 -3373,299 -3907,1323 -8075,5334 -10748,9879 -1164,1980 -2042,4058 -2485,6053 -438,1968 -453,3854 97,5479 504,1489 1489,2766 3067,3694 1332,783 3024,1006 4747,832 1967,-198 3965,-913 5522,-1903 1780,-1132 3341,-2633 4641,-4338 2089,-2742 3500,-6009 4051,-9121 545,-3077 249,-5988 -1068,-8060 -403,-633 -901,-1188 -1499,-1644 -828,-631 -1866,-1019 -2951,-1170 z"
       id="path6" /></g><text
     x="-4788.3667"
     y="57510.18"
     fill="#000000"
     font-size="5px"
     font-weight="bold"
     font-family="'Helvetica Neue', Helvetica, Arial-Unicode, Arial, Sans-serif"
     id="text10">Created by Olena Panasovska</text><text
     x="-4788.3667"
     y="57515.18"
     fill="#000000"
     font-size="5px"
     font-weight="bold"
     font-family="'Helvetica Neue', Helvetica, Arial-Unicode, Arial, Sans-serif"
     id="text12">from the Noun Project</text></svg>
