<?xml version="1.0" encoding="UTF-8" standalone="no"?>
<svg
   xmlns:dc="http://purl.org/dc/elements/1.1/"
   xmlns:cc="http://creativecommons.org/ns#"
   xmlns:rdf="http://www.w3.org/1999/02/22-rdf-syntax-ns#"
   xmlns:svg="http://www.w3.org/2000/svg"
   xmlns="http://www.w3.org/2000/svg"
   xmlns:sodipodi="http://sodipodi.sourceforge.net/DTD/sodipodi-0.dtd"
   xmlns:inkscape="http://www.inkscape.org/namespaces/inkscape"
   xml:space="preserve"
   version="1.1"
   style="image-rendering:optimizeQuality;shape-rendering:geometricPrecision;text-rendering:geometricPrecision"
   viewBox="0 0 98.640808 125.00003"
   x="0px"
   y="0px"
   fill-rule="evenodd"
   clip-rule="evenodd"
   id="svg14"
   sodipodi:docname="crying_mask.svg"
   width="98.640808"
   height="125.00003"
   inkscape:version="1.0.2 (1.0.2+r75+1)"><metadata
     id="metadata18"><rdf:RDF><cc:Work
         rdf:about=""><dc:format>image/svg+xml</dc:format><dc:type
           rdf:resource="http://purl.org/dc/dcmitype/StillImage" /><dc:title></dc:title></cc:Work></rdf:RDF></metadata><sodipodi:namedview
     pagecolor="#ffffff"
     bordercolor="#666666"
     borderopacity="1"
     objecttolerance="10"
     gridtolerance="10"
     guidetolerance="10"
     inkscape:pageopacity="0"
     inkscape:pageshadow="2"
     inkscape:window-width="1920"
     inkscape:window-height="980"
     id="namedview16"
     showgrid="false"
     fit-margin-top="0"
     fit-margin-left="0"
     fit-margin-right="0"
     fit-margin-bottom="0"
     inkscape:zoom="2.8194132"
     inkscape:cx="16.977446"
     inkscape:cy="62.581317"
     inkscape:window-x="0"
     inkscape:window-y="27"
     inkscape:window-maximized="1"
     inkscape:current-layer="svg14"
     inkscape:document-rotation="0" /><defs
     id="defs4"><style
       type="text/css"
       id="style2">
   
    .fil0 {fill:black;fill-rule:nonzero}
   
  </style></defs><g
     id="g8"
     transform="matrix(0.0022243,0,0,0.0022243,-17.408579,-4.2289727)"><path
       class="fil0"
       d="m 29215.08,8173.63 c -92.57,301.25 -166.53,570.98 -163.94,790.1 1.99,169.43 56.86,322.47 204.56,461.5 95.31,89.71 351.46,225.49 657.12,357.86 314.94,136.38 671.42,260.79 958.07,323.49 1540.88,337.06 3482.26,1317.6 5375.54,2652.69 1836.82,1295.28 3639.99,2932.09 4994.89,4643.18 1595.7,2015.19 1773.57,3287.76 1987.35,4817.34 100.98,722.49 210.48,1505.96 499.14,2463.46 287.45,953.49 727.28,1665.17 1355.22,2076.91 624.07,409.2 1457.87,535.01 2541.29,322.56 1344.55,-263.66 2287.62,299.64 2971.6,1301.17 629.28,921.44 1019.72,2220.12 1302.65,3557.32 752.42,3556.03 -112.61,6972.58 -1710.12,10170.29 -1577.51,3157.71 -3869.93,6097.99 -6011.77,8743.83 -8916.72,11014.92 -13928.62,7689.62 -22924.32,1721.15 l -170.71,-113.26 C 15580.9,48814.03 11982.24,43608.75 9940.87,37909.45 8044.14,32613.96 7493.21,26889.22 8010.84,21592.42 8529.4,16286.13 10121.56,11403.81 12509.02,7804.99 14294.59,5113.44 16527.57,3132.2 19095.24,2212.51 c 1277.22,-457.46 2632.1,-376.33 3923.05,20.37 1470.24,451.79 2858.68,1316.71 3944.81,2253.56 1100.59,949.33 1903.29,1988.06 2180.84,2763 123.67,345.27 152.25,660.21 71.14,924.19 z M 18786.34,31195.12 c 203.44,488.33 448.88,983.35 693.9,1477.52 446.65,900.86 892.02,1799.1 1106.47,2685.81 65.79,272.03 98.94,541.78 98.94,800.42 0,524.43 -131.67,1022.24 -398.88,1426.6 -275.86,417.46 -690.35,729.16 -1247.11,863.82 -194.93,47.13 -402.46,72.3 -622.07,72.3 -219.62,0 -427.14,-25.17 -622.07,-72.3 -556.75,-134.66 -971.24,-446.35 -1247.12,-863.82 -267.2,-404.37 -398.87,-902.18 -398.87,-1426.59 0,-258.64 33.15,-528.4 98.94,-800.43 214.45,-886.7 659.81,-1784.93 1106.46,-2685.76 245.02,-494.19 490.47,-989.22 693.91,-1477.57 84.57,-203.65 318.23,-300.19 521.88,-215.62 101.59,42.19 176.51,121.48 215.62,215.62 z m -21.72,1830.64 c -117,-235.98 -234.1,-472.14 -347.03,-707.96 -112.94,235.84 -230.04,472.02 -347.04,708.01 -427.76,862.73 -854.28,1722.97 -1047.08,2520.14 -49.16,203.28 -73.94,409.88 -73.94,612.93 0,373.22 87.31,717.84 264.49,985.97 168.53,255.04 423.95,445.99 769,529.44 127.52,30.83 272.14,47.3 434.57,47.3 162.44,0 307.05,-16.47 434.57,-47.3 345.05,-83.45 600.47,-274.41 768.99,-529.44 177.19,-268.14 264.5,-612.75 264.5,-985.98 0,-203.04 -24.78,-409.64 -73.94,-612.92 -192.8,-797.19 -619.33,-1657.44 -1047.09,-2520.19 z m 5154.63,-8498.14 c 261.66,628.09 577.17,1264.44 892.15,1899.7 569.61,1148.85 1137.58,2294.37 1409.3,3417.86 81.96,338.86 123.26,675.6 123.26,999.18 0,650.65 -162.46,1266.92 -492.16,1765.86 -338.37,512.04 -847.06,894.42 -1530.64,1059.75 -240.28,58.11 -497.32,89.12 -770.66,89.12 -273.34,0 -530.38,-31.01 -770.66,-89.12 -683.58,-165.33 -1192.27,-547.71 -1530.63,-1059.75 -329.7,-498.93 -492.17,-1115.2 -492.17,-1765.86 0,-323.58 41.3,-660.32 123.26,-999.18 271.72,-1123.49 839.69,-2269.01 1409.3,-3417.86 314.98,-635.26 630.49,-1271.61 892.15,-1899.7 84.57,-203.65 318.23,-300.19 521.88,-215.62 101.59,42.19 176.51,121.46 215.62,215.62 z m 176.53,2252.82 c -185.03,-373.18 -370.23,-746.71 -545.28,-1119.26 -175.05,372.55 -360.25,746.08 -545.28,1119.26 -550.72,1110.74 -1099.85,2218.27 -1349.92,3252.24 -65.33,270.14 -98.26,543.71 -98.26,811.68 0,499.46 118.11,962.53 357.79,1325.24 231.02,349.61 580.65,611.25 1052.51,725.37 172.87,41.8 367,64.12 583.16,64.12 216.16,0 410.29,-22.32 583.16,-64.12 471.87,-114.12 821.49,-375.77 1052.52,-725.37 239.68,-362.71 357.78,-825.78 357.78,-1325.24 0,-267.97 -32.93,-541.54 -98.26,-811.68 -250.07,-1033.97 -799.2,-2141.5 -1349.92,-3252.24 z m 15032.2,20507.91 c 106.06,-40.03 171.34,-144.79 161.09,-257.58 -16.14,-164.63 -181.84,-267.61 -336.81,-210.52 -151.5,56.61 -303.53,108.1 -458.36,154.89 -180.23,54.65 -237.45,282.76 -104.16,416.05 66.81,65.57 159.57,89.06 249.44,62.39 165.06,-49.88 327.28,-104.86 488.8,-165.23 z m -4444.91,-279.6 c -112.92,-29.68 -230.16,21.81 -285.02,124.77 -74.71,143.19 1.15,316.61 157.08,358.59 166.22,44.11 332.94,83.6 501.52,117.66 190.09,37.06 348.15,-143.86 285.28,-327.35 -29.55,-83.93 -99.72,-145.22 -186.98,-162.89 -158.58,-31.96 -315.54,-69.29 -471.88,-110.78 z m 1910.93,253.72 c -197.43,2.44 -315.11,220.03 -207.76,386.29 47.25,71.72 125.4,114.22 211.46,113.69 172.44,-0.87 345.6,-8.09 517.51,-21.69 90.41,-7.3 168.27,-61.86 206.83,-143.8 80.2,-174.41 -55.6,-368.86 -246.65,-354.62 -159.81,12.73 -321.08,19.32 -481.39,20.13 z m -1114.71,-4919.11 c -1134.59,632.12 -2339.96,1115.27 -3520.48,1231.77 -198.79,19.62 -396.61,28.96 -593,27.07 263.93,189.5 525.44,364.99 784.55,526.71 622.54,388.56 1230.1,697.07 1823.15,929.53 914.31,358.39 1794.04,537.17 2641.24,551.22 845.06,14.02 1662.8,-135.01 2454.78,-432.32 507.49,-190.51 1281.11,-607.93 2050.48,-1086.07 388.48,-241.43 772.49,-496.3 1117.49,-743.37 -1156.55,-180.73 -2347.67,-623.4 -3147.84,-1028.86 -108.4,54.53 -219.46,104.67 -332.09,150.12 -510.97,206.2 -1063.09,318.65 -1551.86,310.76 -492.7,-7.95 -978.36,-123.82 -1444.51,-312.59 -94.64,-38.33 -188.65,-79.76 -281.91,-123.97 z m -7312.84,109.51 c -291.73,-52.49 -620.39,-162.76 -1028.55,-332.71 -203.65,-84.57 -300.19,-318.23 -215.62,-521.88 84.57,-203.65 318.23,-300.19 521.88,-215.62 1207.27,502.69 1529.83,304.85 2920.74,-548.27 57.5,-35.27 119.09,-73.05 425.27,-258.97 126.37,-76.74 377.56,-233.2 625.32,-387.51 1446.33,-900.87 2764.35,-1721.81 4228.69,-1538.35 195.34,24.47 393.57,64.34 595.2,121.02 195.88,55.06 394.91,127.05 597.6,217.37 271.14,120.83 502.03,168.3 730.18,162.06 h 1.56 c 238.02,-6.51 493.18,-72.32 796.96,-175.65 245.23,-83.4 497.01,-127.15 769.79,-122.42 264.84,4.6 543.76,55.76 849.57,161.91 1180.15,409.63 1820.91,1246.42 2444.05,2060.19 107.38,140.22 214.42,280.01 275.08,356.6 254.14,320.9 645.18,664.03 1068.17,843.13 284.8,120.59 579.85,162.1 839.43,53.99 184.26,-86.21 407.27,-19.42 512.21,159.56 111.31,189.84 47.65,434 -142.19,545.31 -437.4,257.48 -969.25,376.25 -1542.03,396.62 -501.97,419.51 -1197.18,904.68 -1897.87,1340.14 -805.35,500.5 -1631.25,943.49 -2194.24,1154.83 -883.76,331.77 -1798.25,498.03 -2745.4,482.32 -945.01,-15.68 -1917.64,-211.69 -2919.36,-604.34 -639.39,-250.62 -1290.76,-580.95 -1954.41,-995.17 -266.86,-166.56 -1683.1,-1129.47 -2565.28,-1774.98 -380.68,-278.55 -555.58,-499.81 -996.75,-579.18 z m 1305.7,-190.72 c 746.16,465.34 1565.94,602.38 2408.54,519.22 914.29,-90.24 1862.18,-435.35 2780.01,-904.79 -127.09,-84.43 -251.79,-172.76 -373.72,-264.04 -176.04,-132.02 -211.71,-381.77 -79.69,-557.81 132.02,-176.04 381.77,-211.71 557.81,-79.69 403.76,302.27 841.89,567.73 1296.1,751.67 382.97,155.08 773.15,250.13 1157.01,256.33 382.51,6.18 824.72,-85.91 1242.48,-254.5 394.06,-159.02 758.42,-383.75 1019.64,-655.02 152.73,-158.78 405.28,-163.67 564.06,-10.94 158.78,152.73 163.67,405.28 10.94,564.06 -59.1,61.37 -121.81,120.75 -187.67,178.03 729.02,323.59 1672.2,637.3 2582.84,767.71 113.45,16.25 226.15,29.63 337.53,39.81 -279.22,-210.03 -523.71,-454.01 -708.86,-687.79 -127.37,-160.83 -205.67,-263.1 -284.46,-365.98 -551.88,-720.72 -1119.38,-1461.82 -2069.05,-1791.45 -223.79,-77.68 -421.36,-115 -602.69,-118.15 -173.4,-3 -337.6,26.22 -501.03,81.8 -370.59,126.06 -695.27,206.77 -1032.9,216.22 -348.03,9.58 -689.36,-58 -1077.06,-230.77 -162.08,-72.23 -324.78,-130.79 -488.22,-176.73 -157.68,-44.33 -316.48,-75.98 -476.46,-96.02 -1187.03,-148.71 -2389.92,600.52 -3709.93,1422.71 -166.32,103.59 -334.75,208.5 -634.7,390.65 l -422.15,258.97 c -543.42,333.31 -951.14,583.35 -1308.37,746.5 z M 32791.73,15721.4 c 107.25,233.75 203.97,470.46 293.63,711.47 l 750.14,-277.98 c -96.03,-259.58 -201.25,-515.56 -316.67,-767.13 z m -16255.94,-2151.95 47.47,-28.69 52.37,-31.39 52.83,-31.39 53.26,-31.38 53.71,-31.38 54.16,-31.38 54.54,-31.33 54.98,-31.32 55.41,-31.3 55.8,-31.24 56.22,-31.21 87.45,-48 -382,-702.9 -92.47,50.74 -58.78,32.63 -58.38,32.7 -57.93,32.72 -57.54,32.76 -57.12,32.83 -56.64,32.82 -56.25,32.86 -55.8,32.88 -55.39,32.91 -54.95,32.93 -47.47,28.69 z m 2806.06,-1382.34 49.85,-19.52 68.71,-26.59 68.96,-26.39 69.19,-26.16 69.48,-25.94 69.73,-25.72 69.95,-25.49 70.23,-25.26 70.43,-25.02 70.68,-24.77 58.25,-20.16 -259.96,-756.58 -61.35,21.22 -73.8,25.87 -73.55,26.12 -73.25,26.36 -73.01,26.59 -72.73,26.84 -72.46,27.06 -72.23,27.3 -71.9,27.51 -71.63,27.73 -49.85,19.52 z m 2995.56,-880.84 44.46,-8.58 76.27,-14.31 76.4,-13.93 76.46,-13.54 76.56,-13.13 76.64,-12.73 76.73,-12.32 76.81,-11.9 76.92,-11.49 76.99,-11.08 33.69,-4.66 -107.28,-792.78 -38.13,5.28 -81.33,11.7 -81.22,12.13 -81.11,12.58 -81.01,13 -80.86,13.43 -80.74,13.85 -80.6,14.26 -80.44,14.67 -80.33,15.07 -44.46,8.58 z m 3085.94,-237.65 51.27,2.65 77.4,4.57 77.35,5.12 77.28,5.68 77.24,6.25 77.17,6.82 77.14,7.38 77.04,7.96 76.97,8.55 76.91,9.13 21.44,2.71 103.42,-793.28 -27.52,-3.49 -82.97,-9.85 -83.01,-9.21 -83.04,-8.58 -83.04,-7.96 -83.07,-7.34 -83.1,-6.71 -83.1,-6.12 -83.11,-5.5 -83.12,-4.91 -51.27,-2.65 z m 2993.53,625.68 82.55,32.92 72.88,29.95 72.71,30.67 72.51,31.39 72.37,32.13 72.18,32.86 71.96,33.58 71.79,34.34 71.61,35.09 35.43,17.78 362.22,-713.3 -42.23,-21.2 -78.41,-38.41 -78.63,-37.62 -78.86,-36.8 -79,-35.96 -79.19,-35.17 -79.41,-34.37 -79.57,-33.55 -79.74,-32.77 -89.39,-35.66 z m 2580.62,1601.58 60.89,55.27 64.6,59.77 64.3,60.66 64.01,61.56 63.73,62.48 63.44,63.4 63.17,64.34 62.85,65.25 42.76,45.25 584,-546.76 -47.96,-50.75 -68.13,-70.73 -68.49,-69.76 -68.84,-68.8 -69.21,-67.86 -69.57,-66.9 -69.9,-65.94 -70.24,-64.99 -60.89,-55.27 z m -54.04,5686.79 c 170.86,-138.93 422.01,-113.04 560.94,57.82 138.93,170.86 113.04,422.01 -57.82,560.94 -1679.18,1366.28 -3524.79,1861.8 -5387.45,1812.9 -1836.73,-48.22 -3679.01,-627.08 -5386.23,-1418.41 -200.2,-92.33 -287.64,-329.49 -195.31,-529.69 92.33,-200.2 329.49,-287.64 529.69,-195.31 1622.2,751.92 3360.65,1301.64 5070.61,1346.53 1684.03,44.21 3351.21,-402.6 4865.57,-1634.78 z m 1689.95,-683.28 c 150.15,160.51 141.76,412.36 -18.75,562.51 -160.51,150.15 -412.36,141.76 -562.51,-18.75 -1805.8,-1928.76 -3886.05,-2554.39 -5981.12,-2442.29 -2132.8,114.11 -4296.44,987.6 -6214.82,2038.62 l -114.63,63 c -823.57,453.39 -1605.8,884.01 -2686.5,573.93 -781.3,-224.18 -1748,-736.33 -2698.74,-1280.74 -1.58,-0.88 -3.17,-1.66 -4.75,-2.54 -4.94,-2.75 -9.77,-5.6 -14.55,-8.52 -280.75,-160.93 -560,-324.52 -832.55,-484.18 -171.14,-100.26 -338.85,-198.52 -616.59,-358.91 -190.7,-110.45 -255.76,-354.61 -145.31,-545.31 110.45,-190.7 354.61,-255.76 545.31,-145.31 122.62,70.81 368.81,215.05 619.71,362.03 270.56,158.5 547.98,321.03 826.11,480.42 l 5.37,2.9 c 472.75,263.02 1262.57,-281.31 1910.76,-728.04 205.94,-141.92 399.65,-275.44 585.3,-384.53 2249.62,-1321.93 5583.55,-2604.69 8900.63,-2502.1 2466.63,76.3 4921.01,912.02 6920.94,3048.13 1641.47,1753.23 2143.15,4142.3 2627.58,6449.31 129.39,616.19 257.51,1226.28 413.11,1838.65 54.36,214.01 -75.05,431.58 -289.06,485.94 -214.01,54.36 -431.58,-75.05 -485.94,-289.06 -150.07,-590.61 -284.06,-1228.64 -419.37,-1873.03 -462.14,-2200.85 -940.73,-4479.97 -2427.58,-6068.05 -1833.52,-1958.36 -4090.46,-2724.76 -6361.56,-2795.01 -3146.42,-97.32 -6325.25,1129.11 -8475.63,2392.72 -153.93,90.45 -338.8,217.87 -535.3,353.29 -366.49,252.59 -768.25,529.44 -1180.45,717.18 490.33,248.45 953.39,451.82 1351.32,566 766.32,219.87 1407.89,-133.31 2083.36,-505.17 l 114.63,-63 c 2006.62,-1099.37 4283.01,-2013.76 6558.58,-2135.5 2313.34,-123.77 4609.97,566.68 6603,2695.41 z m -865.5,10318.37 c 132.89,-175.17 382.65,-209.45 557.82,-76.56 175.17,132.89 209.45,382.65 76.56,557.82 -871.99,1149.03 -1480.2,2139.29 -1529.45,3116.07 -48.33,958.61 447.17,1963.13 1773.59,3188.17 162.23,149.28 172.72,401.83 23.44,564.06 -149.28,162.23 -401.83,172.72 -564.06,23.44 -1523.75,-1407.29 -2090.29,-2614.42 -2029.85,-3813.17 59.52,-1180.58 730.92,-2293.48 1691.95,-3559.83 z m 2609.85,716.25 c -101.93,-92.76 -109.36,-250.61 -16.6,-352.54 92.76,-101.93 250.61,-109.36 352.54,-16.6 l 1746.25,1587.5 c 101.93,92.76 109.36,250.61 16.6,352.54 -92.76,101.93 -250.61,109.36 -352.54,16.6 z m -5.86,-1540.45 c -98.69,-96 -100.88,-253.85 -4.88,-352.54 96,-98.69 253.85,-100.88 352.54,-4.88 l 1905,1852.09 c 98.69,96 100.88,253.85 4.88,352.54 -96,98.69 -253.85,100.88 -352.54,4.88 z m 3726.3,-12333.74 c -4.54,-64.35 6.45,-126.2 29.74,-181.91 -748.36,-671.61 -1540.79,-1301.31 -2340.89,-1865.52 -1810.5,-1276.72 -3648.02,-2210.24 -5084.92,-2524.55 -329.3,-72.03 -740.57,-215.71 -1104.93,-373.49 -385.02,-166.74 -728.23,-357.12 -888.38,-507.86 -328.16,-308.89 -450.06,-651.92 -454.56,-1033.38 -3.92,-331.75 85.84,-667.83 198.32,-1033.86 27.79,-90.45 4.8,-235.22 -61.76,-421.05 -235.09,-656.39 -952.01,-1568.16 -1949.6,-2428.64 -1012.05,-872.95 -2300.44,-1677.23 -3657.31,-2094.18 -1136.24,-349.16 -2319.42,-423.91 -3419.91,-29.75 -2398.45,859.08 -4497.86,2730.23 -6189.36,5279.98 -2317.43,3493.27 -3864.25,8246.13 -4370.04,13421.81 -506.72,5185.18 32.61,10789.32 1889.39,15973.27 1987.36,5548.5 5485.62,10612.6 10828.28,14156.91 l 170.71,113.26 c 8608.05,5711.27 13403.97,8893.27 21864.94,-1558.65 2111.23,-2608.02 4369.98,-5504.48 5914.91,-8596.97 1524.95,-3052.47 2353.71,-6299.66 1644.48,-9651.53 -264.24,-1248.83 -621.35,-2450.66 -1180.77,-3269.82 -504.73,-739.06 -1191.61,-1156.51 -2159.1,-966.79 -1302.44,255.4 -2331.89,86.39 -3131.91,-438.18 -796.14,-522.03 -1341.34,-1383.13 -1683.34,-2517.55 -304.33,-1009.47 -418.69,-1827.67 -524.14,-2582.2 -197.55,-1413.44 -361.91,-2589.37 -1821.73,-4432.96 -498.73,-629.83 -1061.99,-1250.14 -1667.16,-1846.41 418.49,4373.35 1808.53,7634.78 3198.57,10896.15 511.23,1199.49 1022.5,2399.03 1479.1,3630.36 149.57,403.37 264.83,795.14 341.68,1172.24 164.11,805.21 141.15,1521.68 -109.51,2116.77 -261.32,620.45 -754.22,1091.82 -1519.83,1375.72 -188.13,69.76 -398.74,128.79 -632.7,176.47 -397.07,80.93 -805.1,93.15 -1207.27,32.87 -252.11,-37.77 -502.66,-103.68 -747.6,-198.61 -12.79,-4.3 -25.47,-9.3 -38.01,-14.98 -114.58,-45.93 -227.88,-98.24 -339.48,-157.04 -325.97,-137.83 -587.59,-206.53 -800.94,-227.96 -244.34,-24.53 -419.23,14.05 -554.63,77.44 -113.52,53.15 -219.49,109.63 -320.16,167.58 -102.76,59.16 -203.45,121.9 -302.06,184.89 -526.78,336.53 -1006.8,571.38 -1490.02,682.13 -506.89,116.18 -1006.47,96.39 -1548.29,-84.44 -669.11,-223.31 -1178.55,-549.73 -1480.6,-915.56 -206.83,-250.51 -322.74,-523.75 -336.28,-804.27 -14.14,-292.95 81.39,-578.04 298.79,-837.51 252.13,-300.93 676.72,-566.8 1294.73,-760.52 301.86,-94.61 630.05,-154.43 962.66,-168.93 315.01,-13.73 632.41,13.14 933.72,89.37 598.74,151.49 1242.2,513.77 2226.62,1068 421.43,237.25 906.53,510.37 1454.83,805.45 106.16,45.3 216.8,96.33 332.17,153.56 187.04,71.95 378.1,122 570.17,150.78 314.1,47.07 629.13,38.27 932.27,-23.51 182.57,-37.21 353.78,-85.82 513.96,-145.21 545.24,-202.18 889.59,-522.02 1063.57,-935.1 184.66,-438.41 195.15,-997.82 62.63,-1648.01 -66.3,-325.32 -171.12,-677.84 -310.42,-1053.5 -463.07,-1248.79 -963.29,-2422.39 -1463.48,-3595.98 C 39929.17,23776.2 38444.96,20293.9 38098.2,15459.82 Z m -352.37,18718.81 c -861.38,-484.67 -1437.15,-802.39 -1908.56,-921.66 -227.59,-57.58 -467.45,-77.87 -705.58,-67.49 -259.26,11.31 -518.37,58.96 -759.54,134.55 -462.42,144.95 -761.76,321.97 -919.73,510.52 -82.21,98.12 -118.84,195.55 -114.41,287.51 5.03,104.4 58.49,218.6 155.02,335.51 209.58,253.83 593.11,490.35 1118.1,665.56 392.95,131.14 753.29,145.95 1117.05,62.58 387.44,-88.8 788.93,-287.72 1240.02,-575.89 105.38,-67.32 215.04,-135.55 333.3,-203.63 120.36,-69.28 246.19,-136.41 379.54,-198.84 21.16,-9.91 42.76,-19.49 64.79,-28.72 z"
       id="path6" /></g><text
     x="-7826.5425"
     y="58113.738"
     fill="#000000"
     font-size="5px"
     font-weight="bold"
     font-family="'Helvetica Neue', Helvetica, Arial-Unicode, Arial, Sans-serif"
     id="text10">Created by Olena Panasovska</text><text
     x="-7826.5425"
     y="58118.738"
     fill="#000000"
     font-size="5px"
     font-weight="bold"
     font-family="'Helvetica Neue', Helvetica, Arial-Unicode, Arial, Sans-serif"
     id="text12">from the Noun Project</text></svg>
