<?xml version="1.0" encoding="UTF-8" standalone="no"?>
<svg
   xml:space="preserve"
   version="1.1"
   style="image-rendering:optimizeQuality;shape-rendering:geometricPrecision;text-rendering:geometricPrecision"
   viewBox="0 0 57823.32 59212.23"
   x="0px"
   y="0px"
   fill-rule="evenodd"
   clip-rule="evenodd"
   id="svg14"
   sodipodi:docname="dev.svg"
   width="57823.32"
   height="59212.23"
   inkscape:version="1.1.1 (3bf5ae0d25, 2021-09-20)"
   xmlns:inkscape="http://www.inkscape.org/namespaces/inkscape"
   xmlns:sodipodi="http://sodipodi.sourceforge.net/DTD/sodipodi-0.dtd"
   xmlns="http://www.w3.org/2000/svg"
   xmlns:svg="http://www.w3.org/2000/svg"><sodipodi:namedview
     id="namedview16"
     pagecolor="#505050"
     bordercolor="#ffffff"
     borderopacity="1"
     inkscape:pageshadow="0"
     inkscape:pageopacity="0"
     inkscape:pagecheckerboard="1"
     showgrid="false"
     fit-margin-top="0"
     fit-margin-left="0"
     fit-margin-right="0"
     fit-margin-bottom="0"
     inkscape:zoom="0.01076"
     inkscape:cx="28996.283"
     inkscape:cy="37081.784"
     inkscape:window-width="1920"
     inkscape:window-height="979"
     inkscape:window-x="0"
     inkscape:window-y="27"
     inkscape:window-maximized="1"
     inkscape:current-layer="svg14" /><defs
     id="defs4"><style
       type="text/css"
       id="style2">
   
    .fil0 {fill:#623e9b;fill-rule:nonzero}
   
  </style></defs><g
     id="g8"
     transform="translate(-1066.95,-415.27)"><path
       class="fil0"
       d="m 13759.39,13953.78 h 6058.93 V 8693.02 c 0,-220.91 179.09,-400 400,-400 220.91,0 400,179.09 400,400 v 5260.76 h 4080.14 V 2061.33 c 0,-220.91 179.09,-400 400,-400 220.91,0 400,179.09 400,400 v 11892.45 h 4080.15 V 8215.7 c 0,-298.33 1829.3,-2259.41 3595.4,-4152.76 l 61.06,-65.46 V 815.27 c 0,-220.91 179.09,-400 400,-400 h 3373.7 c 220.91,0 400,179.09 400,400 v 3373.7 c 0,220.91 -179.09,400 -400,400 h -3233.84 l -16.54,17.73 c -1660.18,1779.8 -3379.78,3594.71 -3379.78,3609 v 5738.08 h 4080.16 V 8693.02 c 0,-220.91 179.09,-400 400,-400 220.91,0 400,179.09 400,400 v 5260.76 h 4080.16 V 8693.02 c 0,-220.91 179.09,-400 400,-400 220.91,0 400,179.09 400,400 v 5260.76 h 6058.91 c 220.91,0 400,179.09 400,400 v 6058.92 h 4970.07 v -1531.29 c 0,-220.91 179.09,-400 400,-400 h 3373.7 c 220.91,0 400,179.09 400,400 v 3373.7 c 0,220.91 -179.09,400 -400,400 h -3373.7 c -220.91,0 -400,-179.09 -400,-400 V 21212.7 h -4970.07 v 4080.15 h 11892.43 c 220.91,0 400,179.09 400,400 0,220.91 -179.09,400 -400,400 H 46597.84 V 30173 h 5738.06 c 298.25,0 2258.24,1828.2 4151.07,3593.81 l 463.34,432.11 c 161.37,150.15 170.46,402.7 20.31,564.07 -150.15,161.37 -402.7,170.46 -564.07,20.31 l -463.34,-432.11 C 54163.94,32691.51 52350.2,30973 52335.9,30973 h -5738.06 v 4080.17 h 5260.75 c 220.91,0 400,179.09 400,400 0,220.91 -179.09,400 -400,400 h -5260.75 v 4080.14 h 5260.75 c 220.91,0 400,179.09 400,400 0,220.91 -179.09,400 -400,400 h -5260.75 v 6058.91 c 0,220.91 -179.09,400 -400,400 h -6059.45 c -1.21,627.04 -4.34,1821.82 -7.46,3016.66 -2.21,845.97 -4.43,1694.8 -4.81,2995.08 h 1286.79 c 220.91,0 400,179.09 400,400 v 3373.71 c 0,220.91 -179.09,400 -400,400 h -3373.7 c -220.91,0 -400,-179.09 -400,-400 v -3373.71 c 0,-220.91 179.09,-400 400,-400 h 1287.41 c 1.24,-633.07 4.33,-1813 7.43,-2995.08 2.21,-850.42 4.45,-1700.95 4.81,-3016.66 h -4080.11 v 11892.44 c 0,220.91 -179.09,400 -400,400 -220.91,0 -400,-179.09 -400,-400 V 47192.22 H 30378.6 v 5738.08 c 0,298.31 -1828.86,2258.93 -3594.76,4152.08 -825.33,884.8 -1636.41,1754.31 -2236.98,2414.58 -148.42,163.09 -400.97,174.98 -564.06,26.56 -163.09,-148.42 -174.98,-400.97 -26.56,-564.06 584.85,-642.99 1406.83,-1524.18 2243.22,-2420.84 1659.98,-1779.6 3379.14,-3594 3379.14,-3608.32 v -5738.08 h -4080.16 v 2364.83 h 1286.85 c 220.91,0 400,179.09 400,400 v 3373.71 c 0,220.91 -179.09,400 -400,400 h -3373.71 c -220.91,0 -400,-179.09 -400,-400 v -3373.71 c 0,-220.91 179.09,-400 400,-400 h 1286.86 v -2364.83 h -4080.16 v 5260.75 c 0,220.91 -179.09,400 -400,400 -220.91,0 -400,-179.09 -400,-400 v -5260.75 h -6058.89 c -220.91,0 -400,-179.09 -400,-400 V 40733.3 H 8443.06 v 1307.69 c 0,220.91 -179.09,400 -400,400 H 4669.35 c -220.91,0 -400,-179.09 -400,-400 v -3373.71 c 0,-220.91 179.09,-400 400,-400 h 3373.71 c 220.91,0 400,179.09 400,400 v 1266.02 h 4916.33 V 35853.14 H 1466.95 c -220.91,0 -400,-179.09 -400,-400 0,-220.91 179.09,-400 400,-400 H 13359.39 V 30972.99 H 7621.32 c -298.36,0 -2259.96,-1829.79 -4153.54,-3596.11 l -302.8,-282.43 c -161.37,-150.15 -170.46,-402.7 -20.31,-564.07 150.15,-161.37 402.7,-170.46 564.07,-20.31 l 302.8,282.43 c 1780.04,1660.41 3595.5,3380.49 3609.78,3380.49 h 5738.07 V 26092.83 H 8098.63 c -220.91,0 -400,-179.09 -400,-400 0,-220.91 179.09,-400 400,-400 h 5260.76 V 21212.68 H 8098.63 c -220.91,0 -400,-179.09 -400,-400 0,-220.91 179.09,-400 400,-400 h 5260.76 v -6058.9 c 0,-220.91 179.09,-400 400,-400 z M 1806.3,29313.02 c -162.23,-149.28 -172.72,-401.83 -23.44,-564.06 149.28,-162.23 401.83,-172.72 564.06,-23.44 l 2919.33,2690.63 c 162.23,149.28 172.72,401.83 23.44,564.06 -149.28,162.23 -401.83,172.72 -564.06,23.44 z M 31238.6,2400.7 c 149.28,-162.23 401.83,-172.72 564.06,-23.44 162.23,149.28 172.72,401.83 23.44,564.06 l -2690.64,2919.32 c -149.28,162.23 -401.83,172.72 -564.06,23.44 -162.23,-149.28 -172.72,-401.83 -23.44,-564.06 z m 26912.32,29432.29 c 162.23,149.28 172.72,401.83 23.44,564.06 -149.28,162.23 -401.83,172.72 -564.06,23.44 l -2919.33,-2690.64 c -162.23,-149.28 -172.72,-401.83 -23.44,-564.06 149.28,-162.23 401.83,-172.72 564.06,-23.44 z m -29432.3,26912.32 c -149.28,162.23 -401.83,172.72 -564.06,23.44 -162.23,-149.28 -172.72,-401.83 -23.44,-564.06 l 2690.64,-2919.33 c 149.28,-162.23 401.83,-172.72 564.06,-23.44 162.23,149.28 172.72,401.83 23.44,564.06 z m 12294.29,-4741.35 h -1286.85 -1286.85 v 2573.71 h 2573.7 z M 26385.29,50357.05 h -2573.71 v 2573.71 h 2573.71 z M 7643.06,39067.28 H 5069.35 v 2573.71 H 7643.06 Z M 36608.77,1215.27 h -2573.7 v 2573.7 h 2573.7 z m 18332.84,18066.14 h -2573.7 v 2573.7 h 2573.7 z M 36491.49,38367.14 c -97.08,97.62 -254.92,98.06 -352.54,0.98 -97.62,-97.08 -98.06,-254.92 -0.98,-352.54 l 1823.57,-1830.15 c 97.08,-97.62 254.92,-98.06 352.54,-0.98 97.62,97.08 98.06,254.92 0.98,352.54 z m 455.65,1647.48 c -97.08,97.62 -254.92,98.06 -352.54,0.98 -97.62,-97.08 -98.06,-254.92 -0.98,-352.54 l 2910.04,-2920.53 c 97.08,-97.62 254.92,-98.06 352.54,-0.98 97.62,97.08 98.06,254.92 0.98,352.54 z m 455.64,1647.47 c -97.08,97.62 -254.92,98.06 -352.54,0.98 -97.62,-97.08 -98.06,-254.92 -0.98,-352.54 l 3996.53,-4010.93 c 97.08,-97.62 254.92,-98.06 352.54,-0.98 97.62,97.08 98.06,254.92 0.98,352.54 z m 455.65,1647.5 c -97.08,97.62 -254.92,98.06 -352.54,0.98 -97.62,-97.08 -98.06,-254.92 -0.98,-352.54 l 5083.01,-5101.32 c 97.08,-97.62 254.92,-98.06 352.54,-0.98 97.62,97.08 98.06,254.92 0.98,352.54 z m 1141.05,1345.69 H 16146.32 c -138.07,0 -250,-111.93 -250,-250 V 16740.7 c 0,-138.07 111.93,-250 250,-250 h 27664.59 c 138.07,0 250,111.93 250,250 0,7.44 -0.34,14.8 -0.98,22.08 l -1.49,22816.34 c 0,68.51 -27.68,130.56 -72.46,175.58 l 0.2,0.2 -4809.94,4826.16 c -48.72,48.99 -112.73,73.49 -176.76,73.5 z m -22603.16,-500 h 22500.37 l 4663.72,-4679.44 1.46,-22485.14 H 16396.32 Z M 45797.84,14753.78 H 14159.39 v 31638.44 h 31638.45 z"
       id="path6" /></g><text
     x="-1066.95"
     y="59599.73"
     fill="#000000"
     font-size="5px"
     font-weight="bold"
     font-family="'Helvetica Neue', Helvetica, Arial-Unicode, Arial, Sans-serif"
     id="text10">Created by Olena Panasovska</text><text
     x="-1066.95"
     y="59604.73"
     fill="#000000"
     font-size="5px"
     font-weight="bold"
     font-family="'Helvetica Neue', Helvetica, Arial-Unicode, Arial, Sans-serif"
     id="text12">from the Noun Project</text></svg>
