<?xml version="1.0" encoding="UTF-8" standalone="no"?>
<svg
   xml:space="preserve"
   version="1.1"
   style="image-rendering:optimizeQuality;shape-rendering:geometricPrecision;text-rendering:geometricPrecision"
   viewBox="0 0 42806.09 41568.98"
   x="0px"
   y="0px"
   fill-rule="evenodd"
   clip-rule="evenodd"
   id="svg14"
   sodipodi:docname="qa.svg"
   width="42806.09"
   height="41568.98"
   inkscape:version="1.1.1 (3bf5ae0d25, 2021-09-20)"
   xmlns:inkscape="http://www.inkscape.org/namespaces/inkscape"
   xmlns:sodipodi="http://sodipodi.sourceforge.net/DTD/sodipodi-0.dtd"
   xmlns="http://www.w3.org/2000/svg"
   xmlns:svg="http://www.w3.org/2000/svg"><sodipodi:namedview
     id="namedview16"
     pagecolor="#505050"
     bordercolor="#ffffff"
     borderopacity="1"
     inkscape:pageshadow="0"
     inkscape:pageopacity="0"
     inkscape:pagecheckerboard="1"
     showgrid="false"
     fit-margin-top="0"
     fit-margin-left="0"
     fit-margin-right="0"
     fit-margin-bottom="0"
     inkscape:zoom="0.01076"
     inkscape:cx="21468.401"
     inkscape:cy="28252.788"
     inkscape:window-width="1920"
     inkscape:window-height="979"
     inkscape:window-x="0"
     inkscape:window-y="27"
     inkscape:window-maximized="1"
     inkscape:current-layer="svg14" /><defs
     id="defs4"><style
       type="text/css"
       id="style2">
   
    .fil0 {fill:#623e9b;fill-rule:nonzero}
   
  </style></defs><g
     id="g8"
     transform="translate(-8575.57,-9236.9054)"><path
       class="fil0"
       d="m 33332.77,33801.21 364.32,-342.46 342.45,364.31 -364.32,342.46 z m 6666.97,13550.27 -1152.23,3190.33 c -74.21,207.1 -302.28,314.83 -509.38,240.62 -207.1,-74.21 -314.83,-302.28 -240.62,-509.38 l 1534.66,-4249.19 c -396.23,-266.43 -867.07,-489.6 -1364.38,-653.04 -528.08,-173.55 -1080.5,-278.2 -1600.18,-294.45 l -1675.19,2598.15 c -119.08,185.53 -366.04,239.39 -551.57,120.31 -185.53,-119.08 -239.39,-366.04 -120.31,-551.57 l 918.98,-1425.31 c -105.74,-123.83 -178.36,-243.12 -221.74,-357.01 -77.44,-203.26 -72.26,-391.02 0.84,-561.42 502.16,-1584.77 436.82,-2288.52 312.95,-3620.3 -30.2,-324.77 -63.48,-682.39 -87.23,-998.88 l -0.79,-14.52 c -49.82,-173.28 -94.11,-345.65 -132.31,-515.7 -165.13,-735.03 -219.19,-1435.41 -124,-1994.31 18.29,-107.43 47.62,-210.54 86.71,-308.04 118.04,-294.35 325.25,-534.91 588.72,-688.46 118.25,-68.91 247.18,-119.98 383.78,-150.26 l 127.8,-5250.72 c -7.91,-325.52 33.31,-734.2 233.48,-1082.88 220.9,-384.8 608.51,-681.56 1275.8,-707.94 672.31,-26.57 1082.23,219.2 1335.5,581.82 233.19,333.89 305.31,744.03 328.93,1115.43 1.15,18.4 1.01,36.57 -0.29,54.46 l -28.39,2600.49 c 262.71,-34.77 558.78,-7.09 838.67,80.57 260.41,81.55 514.38,216.6 723.1,403.31 190.32,170.26 341.83,382.36 427.22,635.4 62.37,-32.71 125.6,-61.06 189.4,-85.13 322.08,-121.53 654.92,-132.84 963.96,-51.82 307.14,80.51 588.25,250.99 809.19,493.77 198.68,218.31 349.61,494.91 427.19,816.15 95.71,-1.48 196.54,5.78 298.72,22.58 241.84,39.76 510.64,130.36 747.13,281.21 254.23,162.16 471.67,392.65 587.38,703.58 112.98,303.6 125.13,670.05 -27.56,1102.97 -190.03,538.77 -416.76,1128.46 -673.61,1718.66 -6.32,28.75 -15.93,57.25 -29.02,85 -20.25,42.62 -41.08,83.32 -62.4,122.23 -277.17,619.46 -586.77,1232.98 -921.25,1782.13 -192.19,315.56 -393.62,610.83 -603.25,875.72 l -7.19,10.29 c -743.89,1023.1 -118.81,162.76 -2.48,1.96 l -3.88,4.84 -119.1,163.44 c -940.15,1291.17 -1545.2,2122.22 -1858.99,3592.48 -4.77,37.42 -12.68,74.61 -23.89,111.49 -1.96,6.45 -4.02,12.86 -6.16,19.23 l -0.45,1.34 c -57.04,168.76 -176.3,308.09 -369.64,405.15 -150.47,75.55 -355.08,124.1 -622.63,135.22 z m 1657.47,-8388.51 c 100.23,-65.33 207.47,-183.38 306.65,-388.67 74.84,-344.56 176.23,-707.7 312.9,-1042.02 163.94,-401.03 380.6,-762.91 666.67,-1016.27 -33.58,-237.38 -129.46,-435.72 -263.23,-582.7 -117.4,-129.01 -262.79,-218.56 -418.57,-259.39 -153.88,-40.34 -320.51,-34.38 -482.7,26.82 -201.33,75.96 -400.27,238.75 -569.87,505.48 l -1.16,1.79 c -3.41,8.24 -7.08,16.43 -11.09,24.55 -160.41,324.96 -271.14,725.52 -349.59,1113.18 -79.72,393.99 -127.33,789.18 -159.67,1078.61 l -0.44,-0.05 c -12.6,136.82 34.03,250.04 117.32,338.17 124.1,131.31 324.09,222.23 550.14,268.9 47.15,9.73 166.84,20.14 302.64,-68.4 z m 142.02,810.06 c -265.48,87.68 -495.09,62.1 -604.04,39.6 -379.06,-78.26 -730.23,-247.44 -972.02,-503.28 -237.49,-251.3 -369.25,-575.25 -329.38,-967.81 l 0.52,-4.63 -0.52,-0.06 c 33.12,-296.42 82.64,-704.89 172.17,-1147.37 90.82,-448.81 221.53,-917.63 415.23,-1310.04 5.55,-11.24 11.57,-22.08 18,-32.55 7.86,-20.11 17.46,-39.83 28.84,-58.96 7.66,-14.35 14.17,-25.79 19.86,-35.32 44.84,-156.83 48.26,-291.53 21.05,-405.24 -32.89,-137.53 -112.92,-254.99 -219.15,-350.02 -118.15,-105.69 -269.5,-184.52 -429.34,-234.57 -203.49,-63.73 -408.51,-78.34 -566.57,-40.54 -14.5,3.45 -29,6.03 -43.45,7.83 l -32.99,3018.57 c 373.6,198.28 514.25,564.78 497.9,959.46 -7.17,173.35 -46.07,350.22 -108.64,514.78 -62.2,163.61 -149.41,320.1 -253.51,453.36 -261.5,334.74 -631.14,529.62 -1026.77,405.76 -7.67,-2.39 -15.2,-5.01 -22.62,-7.81 l -979.91,-297.48 c -210.55,-63.86 -329.48,-286.33 -265.62,-496.88 63.86,-210.55 286.33,-329.48 496.88,-265.62 l 979.73,297.42 c 9.7,2.25 19.38,4.86 29.04,7.87 31.52,9.86 94.87,-49.04 161.15,-133.88 53.86,-68.94 100.24,-153.2 134.75,-244 34.16,-89.84 55.18,-181.13 58.64,-264.78 4.46,-107.84 -21.22,-200.79 -93.03,-232.75 L 36607.8,37430.21 c -52.83,-21.16 -105.88,-35.99 -158.49,-44.95 l 0.04,-0.25 c -145.11,-24.37 -278.42,1.83 -386.68,64.92 -109.48,63.8 -196.79,166.77 -248.1,294.72 -17.77,44.33 -31.25,92 -39.83,142.42 -77.73,456.39 -28.59,1050.57 114.62,1688.05 153.28,682.3 412.16,1404.43 738.68,2058.93 3.64,6.34 7.15,12.81 10.48,19.42 l 1.53,3.02 c 217.93,429.2 1187.81,940.2 2234.09,1296.77 1033.25,352.13 2097.76,539.43 2540.27,333.61 4.49,-2.48 9.02,-4.91 13.63,-7.24 l 3.01,-1.52 c 310.51,-157.68 619.17,-444.51 918.34,-815.84 l 10.69,-14.7 c 9.82,-13.56 20.35,-26.3 31.47,-38.24 185.98,-236.43 368.12,-504.9 544.59,-794.63 109.68,-180.07 216.7,-367.94 320.76,-561.18 -62.35,-3.76 -113.95,-11.83 -151.33,-19.55 -379.05,-78.27 -730.23,-247.44 -972.02,-503.29 -193.69,-204.93 -317.04,-458.23 -334.32,-757.65 z m -4827.87,-8405.41 -128.96,5298.39 c 20.75,7.4 41.58,15.28 62.47,23.66 9.37,3.75 18.51,7.83 27.42,12.2 l 1552.12,690.92 66.41,-6082.07 c -16.46,-254.72 -58.97,-524.81 -184.91,-705.13 -106.53,-152.52 -301.88,-255 -651.12,-241.2 -335.04,13.25 -517.99,141.92 -613.3,307.94 -113.74,198.13 -135.82,460.15 -130.19,674.21 l 0.06,2.32 c 0.13,6.22 0.15,12.47 0,18.76 z m 6596.23,8816.69 c 83.37,-54.35 171.6,-145.18 256,-292.35 278.68,-625.96 524.05,-1259.96 726.97,-1835.28 84.32,-239.09 84.88,-421.95 33.8,-559.23 -48.71,-130.9 -148.9,-233.45 -268.62,-309.82 -137.48,-87.7 -299.05,-141.25 -447.13,-165.59 -134.56,-22.12 -223.99,-31.55 -232.64,-25.08 l -0.84,-1.13 c -12.59,9.37 -25.84,18.12 -39.78,26.13 -241.59,139.09 -432.38,446.53 -581.09,810.32 -245.5,600.54 -363.37,1339.45 -416.33,1813.41 l -0.44,-0.05 c -12.6,136.82 34.03,250.03 117.32,338.16 124.1,131.31 324.1,222.24 550.14,268.91 47.15,9.73 166.84,20.14 302.64,-68.4 z m -2381.87,3956.96 c -694.36,60.14 -1659.29,-122.11 -2567.84,-431.75 -970.75,-330.82 -1905.28,-816.36 -2403.3,-1315.7 21.23,606.51 -20.37,1169.2 -201.54,1915.77 109.74,-15.89 225.51,-25.89 345.42,-29.94 694.58,-23.44 1449.05,99.38 2156.21,331.79 713.17,234.38 1386.12,582.43 1909.81,1006.79 16.35,13.24 32.45,26.63 48.33,40.14 186.31,-562.23 422.66,-1040.88 712.91,-1517.1 z m -28376.39,-8330 h -2298.44 c -532.62,0 -1016.55,-217.61 -1367.13,-568.19 -350.57,-350.58 -568.19,-834.52 -568.19,-1367.13 V 14092.42 c 0,-532.61 217.62,-1016.55 568.19,-1367.13 350.58,-350.58 834.51,-568.19 1367.13,-568.19 h 26866.27 c 220.91,0 400,179.09 400,400 0,220.91 -179.09,400 -400,400 H 10510.89 c -311.78,0 -595.55,127.85 -801.51,333.81 -205.96,205.96 -333.81,489.73 -333.81,801.51 v 19783.53 c 0,311.78 127.85,595.55 333.81,801.51 205.96,205.96 489.73,333.81 801.51,333.81 h 2298.44 v -12442.6 c 0,-415.92 169.87,-793.76 443.53,-1067.42 273.66,-273.66 651.49,-443.53 1067.41,-443.53 h 22020.7 c 220.91,0 400,179.09 400,400 0,220.91 -179.09,400 -400,400 H 22791.96 l 288.98,307.42 -364.32,342.46 -342.46,-364.31 303.8,-285.57 h -8357.69 c -195.09,0 -372.75,80.11 -501.79,209.15 -129.04,129.04 -209.15,306.71 -209.15,501.8 v 14315.25 c 0,195.01 80.06,372.52 209.03,501.49 130.08,130.08 307.88,210.87 501.91,211.02 l 18698.33,15.03 c 220.05,0 398.44,178.39 398.44,398.44 0,220.05 -178.39,398.44 -398.44,398.44 l -4436.3,-3.57 c 73.82,968.08 330.66,1951.83 849.82,2700.66 450.51,649.83 1109.43,1122.65 2034.18,1242.56 h 1288.01 c 220.91,0 400,179.09 400,400 0,220.91 -179.09,400 -400,400 H 22075.17 c -220.91,0 -400,-179.09 -400,-400 0,-220.91 179.09,-400 400,-400 h 1306.05 c 17.93,-4.79 36.4,-8.43 55.35,-10.74 937.5,-114.74 1603.95,-590.2 2058.39,-1245.68 517,-745.72 773.89,-1724.42 848.92,-2688.6 l -12023.61,-9.66 c -417.08,-0.34 -794.89,-169.64 -1067.53,-442.28 -273.59,-273.59 -443.41,-651.22 -443.41,-1067.11 z m 6140.23,-17311.14 364.32,-342.46 342.46,364.32 -364.32,342.46 z m 684.92,728.64 364.32,-342.46 342.46,364.32 -364.32,342.46 z m 684.92,728.64 364.32,-342.46 342.46,364.32 -364.32,342.46 z m 684.92,728.64 364.32,-342.46 342.46,364.31 -364.32,342.46 z m 2054.76,2185.86 364.32,-342.46 342.46,364.31 -364.32,342.46 z m 684.92,728.62 364.32,-342.46 342.46,364.31 -364.32,342.46 z m 684.92,728.62 364.32,-342.46 342.46,364.31 -364.32,342.46 z m 684.92,728.62 364.32,-342.46 342.46,364.31 -364.32,342.46 z m 684.92,728.62 364.32,-342.46 342.46,364.31 -364.32,342.46 z m 684.92,728.62 364.32,-342.46 342.46,364.31 -364.32,342.46 z m 684.92,728.62 364.32,-342.46 342.46,364.31 -364.32,342.46 z m 684.92,728.62 364.32,-342.46 342.46,364.31 -364.32,342.46 z m 684.92,728.62 364.32,-342.46 342.46,364.31 -364.32,342.46 z m 684.92,728.62 364.32,-342.46 342.46,364.31 -364.32,342.46 z m 684.91,728.62 364.32,-342.46 342.45,364.31 -364.32,342.46 z m 684.9,728.62 364.32,-342.46 342.45,364.31 -364.32,342.46 z m 684.9,728.62 364.32,-342.46 342.45,364.31 -364.32,342.46 z m 684.9,728.62 364.32,-342.46 342.45,364.31 -364.32,342.46 z m 684.9,728.62 364.32,-342.46 342.45,364.31 -364.32,342.46 z m 2171.7,-691.42 456.88,-203.12 203.11,456.88 -456.88,203.12 z m -2843.55,-6396.42 456.88,-203.12 203.12,456.89 -456.88,203.12 z m 406.23,913.78 456.88,-203.12 203.11,456.89 -456.88,203.12 z m 406.22,913.78 456.88,-203.12 203.11,456.89 -456.88,203.12 z m 406.22,913.78 456.88,-203.12 203.11,456.89 -456.88,203.12 z m 406.22,913.78 456.88,-203.12 203.11,456.89 -456.88,203.12 z m 406.22,913.78 456.88,-203.12 203.11,456.88 -456.88,203.12 z m 406.22,913.76 456.88,-203.12 203.11,456.88 -456.88,203.12 z m 6685.68,1593.94 455.84,205.42 -205.42,455.84 -455.84,-205.42 z m 1577.84,-3501.22 -139.83,310.27 455.84,205.42 139.83,-310.27 z m -345.26,766.12 455.84,205.42 -205.43,455.85 -455.84,-205.42 z m -410.86,911.7 455.84,205.42 -205.43,455.85 -455.84,-205.42 z m -410.86,911.7 455.84,205.42 -205.43,455.85 -455.84,-205.42 z m 5170.84,-13581.26 c 175.28,0 333.99,71.06 448.88,185.95 114.89,114.89 185.95,273.6 185.95,448.88 0,175.28 -71.06,333.98 -185.95,448.87 -114.89,114.89 -273.6,185.95 -448.88,185.95 -175.28,0 -333.99,-71.06 -448.88,-185.95 -114.89,-114.89 -185.95,-273.59 -185.95,-448.87 0,-175.28 71.06,-333.99 185.95,-448.88 114.89,-114.89 273.6,-185.95 448.88,-185.95 z m 95.36,539.47 c -24.38,-24.38 -58.11,-39.47 -95.36,-39.47 -37.25,0 -70.98,15.09 -95.36,39.47 -24.38,24.38 -39.47,58.11 -39.47,95.36 0,37.25 15.09,70.97 39.47,95.35 24.38,24.38 58.11,39.47 95.36,39.47 37.25,0 70.98,-15.09 95.36,-39.47 24.38,-24.38 39.47,-58.1 39.47,-95.35 0,-37.25 -15.09,-70.98 -39.47,-95.36 z m 2341.99,1286.15 c 0,-165.68 134.32,-300 300,-300 165.68,0 300,134.32 300,300 v 1539.3 c 0,165.68 -134.32,300 -300,300 h -1459.45 c -165.68,0 -300,-134.32 -300,-300 0,-165.68 134.32,-300 300,-300 h 1159.45 z m -3679,1239.3 c 165.68,0 300,134.32 300,300 0,165.68 -134.32,300 -300,300 h -1539.3 c -165.68,0 -300,-134.32 -300,-300 v -1459.44 c 0,-165.68 134.32,-300 300,-300 165.68,0 300,134.32 300,300 v 1159.44 z m -1239.3,-3678.99 c 0,165.68 -134.32,300 -300,300 -165.68,0 -300,-134.32 -300,-300 v -1539.3 c 0,-165.68 134.32,-300 300,-300 h 1459.45 c 165.68,0 300,134.32 300,300 0,165.68 -134.32,300 -300,300 h -1159.45 z m 3679,-1239.3 c -165.68,0 -300,-134.32 -300,-300 0,-165.68 134.32,-300 300,-300 h 1539.3 c 165.68,0 300,134.32 300,300 v 1459.44 c 0,165.68 -134.32,300 -300,300 -165.68,0 -300,-134.32 -300,-300 V 16715.02 Z M 42186.2,14451.44 h 8945.46 c 138.07,0 250,111.93 250,250 v 8945.46 c 0,138.07 -111.93,250 -250,250 H 42186.2 c -138.07,0 -250,-111.93 -250,-250 v -8945.46 c 0,-138.07 111.93,-250 250,-250 z m 8695.46,500 H 42436.2 v 8445.46 h 8445.46 z m -7086.55,-3737.7 -70.24,796.9 -796.9,-70.24 70.24,-796.9 z m 1593.82,140.5 -70.24,796.9 -796.91,-70.25 70.24,-796.9 z m 1749.09,13841.74 c 19.84,-219.19 213.63,-380.78 432.82,-360.94 219.19,19.84 380.78,213.63 360.94,432.82 l -316.1,3464.53 c -0.15,28.67 -3.31,56.63 -9.19,83.57 -33.91,220.61 -156.5,408.18 -331.17,535.96 -164.6,120.43 -377.57,187.64 -603.02,175.45 v 0.52 c -24.38,0 -48.22,-2.18 -71.37,-6.35 l -8062.2,-735.61 c -239,-21.8 -450.26,-129.77 -598.03,-286.11 -159.49,-168.71 -247.46,-394.33 -225.42,-636.02 L 39345.26,9999.39 c 22.07,-242.1 149.62,-448.37 337.26,-585.62 173.35,-126.8 400.3,-194.61 638.99,-172.84 l 8097.6,738.84 c 238.98,21.78 450.23,129.75 598.01,286.1 159.5,168.71 247.48,394.35 225.44,636.02 l -230.26,2523.57 c -19.84,219.19 -213.63,380.78 -432.82,360.94 -219.19,-19.84 -380.78,-213.63 -360.94,-432.82 l 230.26,-2523.57 c 0.19,-2.16 -4.78,-8.63 -12.94,-17.26 -19.86,-21.01 -51.02,-35.8 -88.63,-39.22 l -8097.6,-738.84 c -37.93,-3.46 -71.59,5.55 -95.23,22.84 -9.33,6.83 -15.22,11.97 -15.38,13.74 l -1629.98,17864.41 c -0.19,2.17 4.77,8.64 12.92,17.26 19.87,21.02 51.03,35.8 88.65,39.23 l 8097.63,738.84 c 37.9,3.45 71.56,-5.55 95.2,-22.85 9.27,-6.78 15.16,-11.9 15.38,-13.68 z m -33647,-8375.65 c 97.62,-97.62 255.9,-97.62 353.52,0 97.62,97.62 97.62,255.9 0,353.52 l -1619.79,1619.78 c -97.62,97.62 -255.9,97.62 -353.52,0 -97.62,-97.62 -97.62,-255.9 0,-353.52 z m 235.13,-1930.99 c 97.62,-97.62 255.9,-97.62 353.52,0 97.62,97.62 97.62,255.9 0,353.52 l -1619.79,1619.79 c -97.62,97.62 -255.9,97.62 -353.52,0 -97.62,-97.62 -97.62,-255.9 0,-353.52 z m 14057.07,23514.79 -640.29,-0.51 c -79.03,1110.31 -377.12,2254.59 -991.71,3141.07 -208.85,301.25 -452.71,572.6 -735.04,803.3 h 4077.93 c -275.2,-227.69 -513.56,-494.19 -718.25,-789.44 -617.05,-890.03 -915.04,-2039.93 -992.64,-3154.42 z"
       id="path6" /></g><text
     x="-8575.5703"
     y="50778.094"
     fill="#000000"
     font-size="5px"
     font-weight="bold"
     font-family="'Helvetica Neue', Helvetica, Arial-Unicode, Arial, Sans-serif"
     id="text10">Created by Olena Panasovska</text><text
     x="-8575.5703"
     y="50783.094"
     fill="#000000"
     font-size="5px"
     font-weight="bold"
     font-family="'Helvetica Neue', Helvetica, Arial-Unicode, Arial, Sans-serif"
     id="text12">from the Noun Project</text></svg>
