<?xml version="1.0" encoding="UTF-8" standalone="no"?>
<svg
   xml:space="preserve"
   version="1.1"
   style="image-rendering:optimizeQuality;shape-rendering:geometricPrecision;text-rendering:geometricPrecision"
   viewBox="0 0 52248.953 55155.512"
   x="0px"
   y="0px"
   fill-rule="evenodd"
   clip-rule="evenodd"
   id="svg14"
   sodipodi:docname="writing.svg"
   width="52248.953"
   height="55155.512"
   inkscape:version="1.1.1 (3bf5ae0d25, 2021-09-20)"
   xmlns:inkscape="http://www.inkscape.org/namespaces/inkscape"
   xmlns:sodipodi="http://sodipodi.sourceforge.net/DTD/sodipodi-0.dtd"
   xmlns="http://www.w3.org/2000/svg"
   xmlns:svg="http://www.w3.org/2000/svg"><sodipodi:namedview
     id="namedview16"
     pagecolor="#505050"
     bordercolor="#ffffff"
     borderopacity="1"
     inkscape:pageshadow="0"
     inkscape:pageopacity="0"
     inkscape:pagecheckerboard="1"
     showgrid="false"
     fit-margin-top="0"
     fit-margin-left="0"
     fit-margin-right="0"
     fit-margin-bottom="0"
     inkscape:zoom="0.01076"
     inkscape:cx="26115.242"
     inkscape:cy="35037.175"
     inkscape:window-width="1920"
     inkscape:window-height="979"
     inkscape:window-x="0"
     inkscape:window-y="27"
     inkscape:window-maximized="1"
     inkscape:current-layer="svg14" /><defs
     id="defs4"><style
       type="text/css"
       id="style2">
   
    .fil0 {fill:#623e9b;fill-rule:nonzero}
   
  </style></defs><g
     id="g8"
     transform="translate(-3875.2989,-2422.6068)"><path
       class="fil0"
       d="m 15263,31370 c -190,111 -434,48 -545,-142 -111,-190 -48,-434 142,-545 l 6410,-3749 c 190,-111 434,-48 545,142 111,190 48,434 -142,545 z m -9504,25328 9483,-1035 -2252,-3282 -2575,1551 c -189,114 -435,53 -548,-136 -114,-189 -53,-435 136,-548 l 2534,-1527 -2229,-3249 -4549,8227 z m 10232,-314 -10898,1190 c -82,12 -169,-2 -248,-45 -193,-106 -264,-349 -158,-542 l 5235,-9466 c 29,-53 71,-101 125,-138 182,-124 430,-77 555,105 l 2621,3821 6559,-3951 C 18610,45896 17401,44457 16191,43017 12016,38049 7841,33081 5214,27202 3728,23875 3576,21153 4284,19343 4808,18003 5613,17354 6821,16674 9821,14987 16843,11814 23864,8640 28107,6722 32350,4805 35672,3237 c 196,-93 355,-163 521,-225 166,-63 332,-116 543,-175 702,-197 1457,-377 2237,-409 799,-34 1610,88 2394,502 l -1,2 c 38,19 74,44 105,75 v 0 l 6,6 2,2 4,5 3,3 3,3 4,5 1,2 5,6 1,1 c 2,2 4,5 6,7 v 0 c 2,3 4,5 6,8 l 1,1 c 2,2 3,5 5,7 v 0 0 l 4,6 2,3 3,4 3,5 1,2 c 37,62 55,131 56,199 v 1 c 0,3 0,5 0,8 v 2 5 6 2 c -2,34 -8,69 -18,102 v 0 1 c -19,60 -52,115 -98,161 v 0 l -6,6 -2,2 -5,4 -3,3 -3,3 -5,4 -2,1 -6,5 -1,1 c -2,2 -5,4 -7,6 v 0 c -3,2 -5,4 -8,6 l -1,1 c -2,2 -5,3 -7,5 v 0 l -3,2 v 0 l -3640,2481 c -152,688 -83,1441 116,2180 249,923 701,1815 1190,2534 l 2774,4080 5045,-2951 -2331,-4236 c -106,-193 -35,-436 158,-542 63,-35 132,-51 200,-49 l 10787,-418 c 220,-8 405,164 413,384 3,85 -21,165 -64,231 l -5971,9210 c -120,185 -367,237 -552,117 -57,-37 -102,-87 -132,-142 v 0 l -2122,-3857 -4980,2913 11988,17630 c 9,12 17,24 25,36 115,188 55,434 -133,548 L 23881,52220 c -181,117 -424,69 -546,-110 -960,-1407 -1987,-2776 -3051,-4122 l -6608,3980 2600,3790 c 37,54 62,117 70,187 23,219 -136,416 -355,439 z m 33792,-40855 5190,-8006 -9395,364 2010,3652 2691,-1574 c 190,-111 434,-48 545,142 111,190 48,434 -142,545 l -2710,1585 1811,3291 z M 17074,34126 c -190,111 -434,48 -545,-142 -111,-190 -48,-434 142,-545 l 6410,-3749 c 190,-111 434,-48 545,142 111,190 48,434 -142,545 z m 8603,-5032 c -190,111 -434,48 -545,-142 -111,-190 -48,-434 142,-545 l 11869,-6942 c 190,-111 434,-48 545,142 111,190 48,434 -142,545 z m -3293,13295 c -189,114 -435,53 -548,-136 -114,-189 -53,-435 136,-548 l 13176,-7936 c 189,-114 435,-53 548,136 114,189 53,435 -136,548 z m 15075,-9287 c -189,114 -435,53 -548,-136 -114,-189 -53,-435 136,-548 l 6962,-4193 c 189,-114 435,-53 548,136 114,189 53,435 -136,548 z M 23866,26338 c -190,111 -434,48 -545,-142 -111,-190 -48,-434 142,-545 l 13996,-8187 -1635,-2477 c -30,-46 -18,-108 28,-138 46,-30 108,-18 138,28 l 1642,2487 3531,-2065 -2744,-4036 c -535,-787 -1029,-1763 -1303,-2775 -160,-591 -245,-1197 -221,-1789 l 1,1 -22192,15123 c -175,119 -410,81 -539,-83 v 0 c -2073,-2635 -4163,-3913 -5862,-4100 -764,-84 -1443,56 -1998,394 -555,339 -994,881 -1276,1602 -637,1628 -477,4130 914,7244 2582,5780 6720,10704 10858,15627 1237,1472 2474,2943 3669,4437 L 37161,36891 c 189,-114 435,-53 548,136 114,189 53,435 -136,548 L 20971,47575 c 975,1237 1919,2491 2808,3776 L 53409,33308 41611,15959 l -3540,2071 3676,5568 c 30,46 18,108 -28,138 -46,30 -108,18 -138,-28 l -3682,-5578 -702,410 5714,8655 c 30,46 18,108 -28,138 -46,30 -108,18 -138,-28 l -5720,-8664 z m 15735,10015 c -189,114 -435,53 -548,-136 -114,-189 -53,-435 136,-548 l 6962,-4193 c 189,-114 435,-53 548,136 114,189 53,435 -136,548 z M 8156,16827 c 76,5 153,11 230,20 1831,201 4028,1487 6172,4109 L 40352,3378 c -445,-131 -898,-170 -1348,-150 -695,29 -1395,197 -2052,381 -190,53 -337,100 -478,153 -141,53 -283,116 -461,200 -3352,1582 -7586,3496 -11821,5409 -6401,2893 -12801,5785 -16036,7456 z m 3042,-513 c -132,-39 -207,-178 -168,-311 39,-132 178,-207 311,-168 614,185 1247,432 1835,807 595,379 1139,886 1566,1588 72,118 35,271 -83,343 -118,72 -271,35 -343,-83 -384,-631 -874,-1087 -1408,-1428 -540,-344 -1132,-574 -1710,-749 z"
       id="path6" /></g><text
     x="-3875.2988"
     y="57592.395"
     fill="#000000"
     font-size="5px"
     font-weight="bold"
     font-family="'Helvetica Neue', Helvetica, Arial-Unicode, Arial, Sans-serif"
     id="text10">Created by Olena Panasovska</text><text
     x="-3875.2988"
     y="57597.395"
     fill="#000000"
     font-size="5px"
     font-weight="bold"
     font-family="'Helvetica Neue', Helvetica, Arial-Unicode, Arial, Sans-serif"
     id="text12">from the Noun Project</text></svg>
